<mxfile host="app.diagrams.net" agent="Mozilla/5.0 (Windows NT 10.0; Win64; x64) AppleWebKit/537.36 (KHTML, like Gecko) Chrome/99.0.4844.84 Safari/537.36 HBPC/12.1.3.310" version="24.7.10">
  <diagram name="第 1 页" id="Ep-nzc_gjCDjGgkwS9VE">
    <mxGraphModel dx="1779" dy="977" grid="1" gridSize="10" guides="1" tooltips="1" connect="1" arrows="1" fold="1" page="1" pageScale="1" pageWidth="827" pageHeight="1169" math="0" shadow="0">
      <root>
        <mxCell id="0" />
        <mxCell id="1" parent="0" />
        <mxCell id="td1YXTZaVyz9ntBiEEPA-1" value="" style="shape=image;verticalLabelPosition=bottom;labelBackgroundColor=default;verticalAlign=top;aspect=fixed;imageAspect=0;image=data:image/png,iVBORw0KGgoAAAANSUhEUgAAB1sAAAV2CAYAAADcB9VVAAAgAElEQVR4nOzde3yddZ0n8E8rvaVBhbbRdigZqIuyYy8JIh1aUWu5VLAZbssKdq2lDI5LGS/MCFjCttbqOKDV6OK8KB0YF2cRbDflMsNQUKF1qgwpAUe8tUwAQXrj0hJsIrB/MOeYpEkvh5bTJO/3X825POcbXnl4zvP7PN/vM2Ds2LGvBAAAAAAAAIC9MrDcBQAAAAAAAAD0RsJWAAAAAAAAgBIIWwEAAAAAAABKIGwFAAAAAAAAKIGwFQAAAAAAAKAEwlYAAAAAAACAEghbAQAAAAAAAEogbAUAAAAAAAAogbAVAAAAAAAAoATCVgAAAAAAAIASCFsBAAAAAAAASiBsBQAAAAAAACiBsBUAAAAAAACgBMJWAAAAAAAAgBIIWwEAAAAAAABKIGwFAAAAAAAAKIGwFQAAAAAAAKAEwlYAAAAAAACAEghbAQAAAAAAAEogbAUAAAAAAAAogbAVAAAAAAAAoATCVgAAAAAAAIASCFsBAAAAAAAASiBsBQAAAAAAACiBsBUAAAAAAACgBMJWAAAAAAAAgBIIWwEAAAAAAABKIGwFAAAAAAAAKIGwFQAAAAAAAKAEwlYAAAAAAACAEghbAQAAAAAAAEogbAUAAAAAAAAogbAVAAAAAAAAoATCVgAAAAAAAIASCFsBAAAAAAAASiBsBQAAAAAAACiBsBUAAAAAAACgBMJWAAAAAAAAgBIIWwEAAAAAAABKIGwFAAAAAAAAKIGwFQAAAAAAAKAEwlYAAAAAAACAEghbAQAAAAAAAEogbAUAAAAAAAAogbAVAAAAAAAAoATCVgAAAAAAAIASCFsBAAAAAAAASiBsBQAAAAAAACiBsBUAAAAAAACgBAeVuwBemyOOOCKTJ0/OG9/4xnKXQj/y4osvZt26dXn44YfLXcp+VVVVlRNOOCEjRowodyn0I+3t7Xn44Ydz//33l7uU/Wr48OH5wAc+kNGjR5e7FPqRl156Kb/4xS9y3333lbuU/e7kk09OdXV1BgwYUO5S6CdeeeWVPProo7nrrrvKXcp+9773vS//5b/8lwwc6NplXj9PPPFEVq1alR07dpS7lP3qT//0T/Nf/+t/zUEHWa7i9bNx48b88Ic/zNatW8tdyn41adKkTJo0KUOGDCl3KfQjzz77bNasWZMnnnii3KXsV29/+9tz7LHHZvjw4eUuhX7khRdeyP33359f/OIX5S6FJAPGjh37SrmLoDQzZszIn//5n+euVauyZfPmcpdDP1JZWZn3v//9ufPOO/Ptb3+73OXsF5MnT84ll1ySNT/6UZ78zW/KXQ79yJChQzPl+OPz05/+NA0NDeUuZ794xzvekc9+9rP55S9/mQ0bNpS7HPqRgwYNyruOOSZbtmzJokWLyl3OflFVVZXLL788zz3/fB752c/yyiu+6vP6GDBwYN75zndmyODB+fznP5/nn3++3CXtcwcddFDq6+szdNiwPPjgg3np978vd0n0EwMGDMi4t70th48dmy996Ut59NFHy13SfvGZz3wmRx55ZNauXZu2trZyl0M/ctjYsTmmtjZ/+7d/m3Xr1pW7nP1i7ty5mTp1an74wx+mtbW13OXQj1RVVWXatGlpaGjIPffcU+5y9oszzzwz//2///fctWpVnnv22XKXQz/ypje9KSeddFK+853vZPny5eUup98TtvZSY8aMyTe/+c3UX3ll/v3f/73c5dAPvfWtb83iL3whDQ0NeeCBB8pdzj510EEHZenSpVn293+f1atXl7sc+qFhQ4dm4cKFueuuu/LP//zP5S5nn7v66qtz73335dZbby13KfRTl156aR5/7LE+ecHQZZddlt/+9re54R/+odyl0E9dcMEFGTZ0aJYsWVLuUva5uXPn5o1velOf/N3oHc4688xMnDgxn/vc58pdyj53+umn513velf+1//6X3np5ZfLXQ790Ac+8IGcdeaZufDCC8tdyj43ZcqUzJo1K5+bPz/PPPNMucuhH6qtrc2ln/1s5s6dm2f7WBj5jne8I5///Odz6WWX9dmLoTiwHXnkkfni4sX53Oc+l1/+8pflLqdfM/eol3rXu96V1WvWCFopm9/+9re58847c9xxx5W7lH3umGOOycZNmwStlM2Lv/tdbr/jjkyePLncpexzRxxxREaMGCFopaxuvfXWHH/88eUuY5+rqKjIu9/97ixfsaLcpdCP/b//9//ynve8p0+OsJ46dWpWrlxZ7jLox2753vcybty4vPWtby13Kfvc5MmTc/sddwhaKZu77747bW1tmTBhQrlL2ecmT56cf77zTkErZdPU1JTm5uYce+yx5S5lnzv22GPzL3fdJWilbDZs2JBVq1b1yf2rtxG29lLDhw/vk6O56F2eefbZVFZWlruMfW748OF5/rnnyl0G/dyzfXT/qqiocPyi7LZu3don96/hw4enra0t27ZtK3cp9GPPbN2agQMHpqKiotyl7HOVlZV9/n5+HPi2bd/eZ/cvQRDl9tzzz/fJ+y0OHz68z3UT0vs8//zzffL4NXz4cKODKbvnnnuuT65x9DbCVgAAAAAAAIASCFsBAAAAAAAASiBsBQAAAAAAACiBsBUAAAAAAACgBMJWAAAAAAAAgBIIWwEAAAAAAABKIGwFAAAAAAAAKIGwFQAAAAAAAKAEwlYAAAAAAACAEghbAQAAAAAAAEogbAUAAAAAAAAogbAVAAAAAAAAoATCVgAAAAAAAIASCFsBAAAAAAAASiBsBQAAAAAAACiBsBUAAAAAAACgBMJWAAAAAAAAgBIIWwEAAAAAAABKIGwFAAAAAAAAKIGwFQAAAAAAAKAEwlYAAAAAAACAEghbAQAAAAAAAEogbAUAAAAAAAAogbAVAAAAAAAAoATCVuiiuro637rmmtTNnFnuUqDXmj9/fubPn1/uMgAAOEDMnz8/y667LtXV1eUuBQAAYJ86qNwFwL5SN3NmZs+enUGDBu32ta2trfnil76UdevW7fRcS0tL7r///px33nl57PHHu30N9BdfW7IkmzZvzqJFi/bqfbfffnsuu/TSnD9nTq5btqzb19TNnJkZM2bki1/6UlpaWjo9V1NTk898+tO5+eab07hyZcn1w4Fi/vz5mXzcccWf1/74x0nS6bGOVqxY0WnfqampyWWXXpo777yzx32qo/PnzMnpp5/e6bH169fn+htuyGWXXpqKiori47s6JkJv8LUlS/LQQw9l1d1357JLL80//dM/JUnxGDNr1qwk6fZYdv6cOZkwYUL+8pOf3Gk/7Wr9+vX5y09+stvnqquri5/tuEVvUTdzZs4+++xc/ZWv9HgMmD9/fp568slct2xZt8eWrjZu3JgFCxfu9N0u+cP3w+kf+MAuj2Xnz5mTKVOmdNpO4SK+RYsWdfsdclfnghs3bsxdd92VU089NVd/5Suprakp7vcA9F3V1dW5sr4+a9asKR53ejqWdTx+dfe+rgrfGzu+72tLlmTcuHGdXrdixYok6fbczHGI/qKwnvHQww/vdn2xp7WPmpqazLvoojR84xvWLjhgCVvpU55++ulOJ93dnagXFhUKdnVi/vmFCzv97MsQ/c0999yT8847L3UzZ/a4eFw4EamqqtrpudNPP73TSUXHUKdx5cqMnzAhs2bNyqJFizp9ceq6fQvY9AWFY8jXlizZ6bGCwt/75s2bi48VTjYqKip22qcK2tvbc/3113faRzqe+M+fPz+jRo5MkrS1teXGG29M48qVOx0ToTf6yle/mssuvTStra1JkqOOOirjxo0rfid80xvfmNWrV+/Rttb++Me7DGV74mI9+qpCQDp6zJgsWrSouOhVuMihu0Xoupkzs+SrX+3xItjujmXdHccKn9Nx4fq2W28t/vub//mdsXCBUuPKlZ3q6njRoKlF9GZdw6HC98fu1jK6frf82pIlOfjgg3cKkZL0eGEE9BWzZs1KVVVVTj/99Jx22mm5/vrrc92yZZ0u0CucE82YMaPH7XS3r23cuDH/86KLdtqHCt8lO+5rhdd3d24G/cG6devyxS99abdNGUlSW1OT7du3Z9Xdd3e68KHJ+RW9gLAVkrzwwgu7vKI7iS9D9HndXYVZcMEFF+SCCy7o9FjXBemunXhddRfq3H777Zl30UWpqal5DZVD33HooYemsrKy+HPhxP6FF15Ikp06UAtB7FNPPbXTAnVVVVVxITp5dfEtSQYPHtxpny4EVNAbdbwY4bzzzkuSHHbYYUmSK+vr8+1vfzvV1dU5+uijOx3H1qxZk5qammKX94rly/P000/nsMMO6xTmdFTYhzp+Zne6XqzXU4gEvcG6dety44035uyzz87MD30oH/nIR4p/++PGjes2AGpcuXKf/b0XQqPddbZCX1U3c2ZOO+204rnW+XPmZPSYMZ1e0/E87Pw5c7Lsuut6DFJnzZqVyspK+w993vlz5uTII47I/7zoosyaNSujRo4sHpsOPfTQDB48OI89/niSZOTIkRk8ePAut7cn64bJq5OLuvsu2dO5GfQlu2rGKOjuoruOFyNMmDAhGx59NC0tLambOTNtbW1ZdffdOfTQQ/d3+fCaCVvpU97ylrd0+vJS0PUxC8vQvcKJ+vz58zNh/PgeR4u+1vuxdr06+/MLF+aHP/xhKisrOy1SFxbG29vbX9PnwYFg3LhxxRPvTR06V7uekKxfvz6NK1empqYmZ599djGkqZs5M/VXXJEHmpqyaNGi4gUSPV3osKvO1l/+6lf53e9+l4cfekhnK73aunXr8t/OOae4Hx1yyCGdgs358+fnqaeeKgY2Xbvxuo4RfuI3v9mjztaOHeKF57tOU4EDxd5eIJDsPI2k8Le+8tZbuw07u16YuieLbQWF49WkiRM7dQ598xvfyCOPPJLq6upi7V07W1esWJFVd9/d6bM6hsCFY++Dzc27rQMOROMnTEh7e3uxo2d3t5NYdffdmTJlSnF6UEd1M2dmwvjxufHGG01goE+rrq7OlClTdgo4Vyxfnuuvvz7Tpk3Lhkcfzamnnlo8BhbG/S677rri8aTQEfujH/1ojz97V52t27Ztyz333JPxEyZo5qBPamlpyZzzz0+y69tV9DTB7vw5c3L44YfnnnvuSZJMmzYthx12WKf9uOP31t01fcDrTdhKn1LKGGHgVYVRVCuWLy8ucnW3+LYvxmlft2xZp4XuKVOm5Ls335y/veqq17RdOJB1N0Y46XxC0tG6devykf+812SS4knI7Nmzc9utt6a1tTVX1Nd3u1jWcR9L/tAJdOGf/3k+958XSxRO/jt+BvRGhQ7wp59+Os8880wuuOCCTJs2LdffcEOOPOKIbNmyJcmrJ/VDhgzpNKZ7Vzp+j+zuJP6oo47qdMxMdr7AL+l5NDG8XgoXJXR1/pw5Ofnkk3u8uO78OXM6LUIX9oORI0dmx44du7ywoKdj2660tLQURwEXxp4eeuihmXfRRd3WWDieFj6rpqYmn/n0p3PzzTcXt9NxjPAfV1fvVT1wIHjqyScz+bjjUltTs0cBaUtLSzY8+miOPOKIVHf4mz/00ENTV1eXhx5+2KQF+ryWlpY0fOMb+cynP53bb789733ve/NP//RPmTZtWi644IKsX7++x+9mc84/v9PF4Y899lh++ctf5vjjj+92fST5w3lex3WSwrGpcKH6nPPPT93MmTnvvPM6XbAHfdWDzc2pq6vr9vg1aeLE4msKChdJFNTNnJnRo0fn2muvLV6M7p6tHOiErZBk+PDhPX5p6siYD/qy+fPnZ/Jxx6W1tTXPPPNMks738fnakiUZPXp0rr/hhm7f39O9JDsqdJV3vMJt9Jgx2bZtWz79qU/1OMY4MYaRvqljt2tHK1asyOgxYzL5uOM6Pb5x48Z88lOfSktLS7edSq2trbn5llty9lln9djB1DEMqqqqKga3PS22w4GssGh1/fXX58Hm5lx26aW59tprM23atHx+4cI82NycgysrU1NTk8PHjk1lZWVxZFzBuHHj8t2bbkpLS0uOPvronfbJTh0RK1YUu4t++ctf5m+vuqrY0fdaL0SC19voMWNSUVHRY4hTuHCnEGoWvisWdHf8uu3WW7vtNt2VjpMYampqMnr06FRUVBRHgXedfNLRQw89VPz3qaeemi1btnT7XbFjd26t21fQi1y3bFkmTJjQ6Z6TpZwPnXnmmTnkkEPycGPjfqgSDkyDBw8u3mbiggsuSHt7e6699tqMnzAhX1uyJPfcc0+3Y+nf8Y53pLW1NXfeeWdGjxmTGTNmdBoj3PXinmTn6V1ddTxmFm7psi8uZIcDVUtLS9asWdNpOlDBtGnTcv/993fa72bNmpW2trY8/fTTSV6d7OACIXobYSt9SqljhLt2xHbHPVvp67obM7Xkq18tduysWLGixxOBtra24tVmPenYVf5gc3NmzJiRw8eOTZJi10GBK9boLzZu3JjBgwcXT9QL43Q2b97cbSfd+XPm5Mr6+ixYuLDHTqUkufnmm4v/LoSy27dvT9O6dTnl5JON26HPKAQoNTU1+cKiRcV9qePx6GtLlqS2piajx4zJli1bsm7dumI37KBBg4oLXfPnz+/UhdrTaOCO9xmvmzkz73j723P1V75SfE9hLDEcyKqrq3PkEUdk/fr13S6CdWdvO7T3trM1eTUwbWtrKx6zZs2ale3bt++yszX5w735FuziAtrC+P3k1Y5z6C3+8pOfLI4kLUxv2JvjTOGih3//2c8ybdo0C9f0G21tbVmxYkWxs3Xq1KmpqKjIkUcckaqqquIxobBmuGLFimzevDmDBw/O9u3bk/xhQtDuJuR1nSxUCF/X/vjHGTVyZEaPHu3iVvqdwmj78+fM6TTd7uCDD86qu+/u9NohQ4bkpptuyjn/ucZhMhC9kbCVPmPkyJF57LHHOp107MkY4ZEjR2bw4MG73b7/ydOXde1USDp30CWvLlB1vBqz0Gn62OOPp7Kycref0XXxe8eOHcV7lTz00EPd1tCxi8FVn/R23d2zddu2bdm0eXPGT5iQxpUrM/0DH8jgwYOL43R6ukK660VEHTu/u76na9fqN77xjZ32Z52t9FYdQ9PkD50CyR/Gnj700EM5+eSTM2jQoNx2221J/nBM6ngv1lEjR2bb9u09jgbuGMS2tbXlsccfz6mnnpo3v/nNO3Xdddy/jBHmQDTrP0fIX3/DDZl30UWdFsF2ZVedO12PJd19t+tOYR+pqanJkUcckebm5hx99NG59dZbs2bNmlx26aW77WztusidpDi6v/C7+R5Jb1YYSXr+nDk57bTTUjdzZo+vHTVyZLZt21Y8j2tvb09jY2Mee/zxXHbppXu8v0Nf9CfvfGcqKytzRX19Dh87dqfO1q8tWZJf/frXO01B2L59e7Zu3drjdjte0JO8un5x2oc+VPy5u6lE1jjo61paWtLY2JjzzjsvmzdvzsiRI4u3sOja8HTFFVd0Gn/fdZ8q6PidsON0FDgQCFvpM0aPGVNcvN7b92149FH/Y6ZfKywCd1y0rqqq6rZTvOuXmbqZM7N9+/ZO91rYE5s2b85hf/RHSZLNmzdn9JgxWb9+fXHR79vf/nZmzZqVNWvWZPSYMTrL6fUKi8ld79l6++235zOf/nTOnzMn73//+3PzzTcX96+Oi8eFjoY1a9Z0WiArdIIXRqMWnisshldUVOTzCxcW96/uRg8LWumtGleuzMiRIztdXFe4sK4w7rdwRfW2bdt6XFwu3M/1iSee6DQmrqBwv60kOXzs2OKFel1DVJ2t9AZ1M2dmwvjxufHGG7Nu3bo0NjYW95k9ORZ0t7BVOBZ1tbuLDbruW4888kinxeyOUxx2N/mkp3B33LhxOwXEJjzQW23evDnt7e09Pl8YxX3nnXcWH3vmmWfyYHNzWlpacuedd2bKlClZdffd1kDo87obI/z0008Xz48KCusejz/+eLZs3Zo1a9Z0ClvHT5iw23uVFy7wKYRDhQttV6xYkSQ7HYcErfQXhaaL2bNnp729fY/XHrruHybg0RsIW+kzCt1xe6MwPmvNmjX7qSrofbpbZC6omzkzM2bM6PTYnpx4dOepJ5/MhPHji91B4/dwhB30RqNGjuzxgqB169bl+9//fnHMVE+j3QpdSF3H7fSk42J4x1H4bW1tufHGG9O4cuUejcSC3mDNmjXFhbJCp3fhODZr1qxUVVXlkEMOSd3Mmd3uY5MmTkxlZeUuOxYKRo4cmS1btuTUU0/tsduuu0kQxjZyICh0pq5YsaL4N9m4cmXGT5iQyy69dJcLYH/75S9nR1vbfqut433vkuTQQw/t9r6vXfe7QnDaXaj7tSVL8tBDDwlW6bXqZs7M1KlT81d//ddJXr3PXeFC10kTJ+70+tkf/Wi2b9/e4/fFwgVIs2bNMnWBPu3wsWPT1taWa665Juecc05xjPDq1auLx5vC+kbXLruO3XV7u25YuMiocKFsQU/nZtDX1dTU5Lzzzkt7e3sGDRqU+iuucG5EnyVspU+omzkzI0aMKHYw7KnpH/hAkj1fuIb+YPjw4T0uHievniQU1NTU5B1vf3un+0PuqeuWLcvmzZsze/bs1F9xRZ5++uns2LGjpJrhQFboMOjpgqC6mTNz2mmnZf369Zl83HGZP39+p8WvQsf5Y4891u397wpXXXcNibp2p69fvz7Jq1d4dxy12vU+5tDbXLdsWbE77tlnn02SnHfeeXn++ecza9as4qi42pqaXHDBBRk5cuROwcu0adPy81/8Ips3b+7xOLj2xz9OdXV1pkyZslOHeYHOVg5UhUXfwv7QNVBdtGhRzp8zJ59fuLDbbtTCBUFPPflkJk2c2O30k+6OJ5OPO67TxQfd6en+qVu3bi0e9wrjF1taWjJixAhdDfQbI0eOzNFHH13cjzoGNoWw9fTTTy92za398Y93eQxqaWnJmjVriqOILXbTV42fMCFbtmzJ93/wg3z/Bz9IkkydOnWvt7O364Y9Hfd6OjeDvqowcaTrJK3C+sYFF1zgdiv0OcJW+oTxEybk57/4RY8n3F2vil6/fn3WrVuX2R/9aNasWWN8DnSwN52ttTU12bJly16fpHe831dhwWDWrFkZNXJk1q1bV1xY+/4PflAcxdPTQhwc6A4fOzZbt27NsIqK4on3Qw89lNFjxmTcuHEZPXp0Fn7+88V97mtLlmTF8uVZtWpV3vve9yZJp+cLC+YdO31WrFix07FMZyv9QceLEbq7L9ZTTz1VPKasW7cuTevW5bJLL01VVVVqampSUVGRRx55JCNGjMj1N9yQw8eO3eUYYRfq0RsV9pMHmpp2uaB13bJlWXX33bmyvj4rli/P9ddfn8cefzwjRozItddeW7zP8f4aI9zV8X/6p1ny1a9m0KBBnRbqut737u6778748eN36oAt6G6McGKEI71Dd/cjLijcf3xXuvsb39U2oS+orq7OqJEjc/0NNyT5w/pDa2trvvOP/7jH2xlWUZF3/smfpLGxcY/XDXW20p91XKtY++Mfdzo/K+h47Jo/f35uu/XW4v4Bvd2AsWPHvlLuIth7H/7wh1N58MG57rrryl0K/dhJJ52UCePH58tf/nK5S9mnpk2bluOPPz6Lv/jFcpdCPzZp0qSc++EP55JLLil3KfvUn/zJn+TCCy/MJz/1qXKXQj82evTofOmLXyyOZu4rRo0alW984xv58LnnlrsU+rGD3vCG3HTTTfnIRz6SF154odzl7FO33HJL/vzCC4sd1FAOf/d3f5cvLl6cDRs2lLuUfeqb3/xmvvHNb+YXv/hFuUuhH1u4cGFuv+22/Ou//mu5S9mn6uvrc+999+Xee+8tdyn0Y/Muuij/8R//kcbGxnKXsk99/OMfz9atW3PL975X7lLox/7b2WfnTW96U/7u7/6u3KX0awPLXQAAAAAAAABAbyRsBQAAAAAAACiBsBUAAAAAAACgBMJWAAAAAAAAgBIIWwEAAAAAAABKIGwFAAAAAAAAKIGwFQAAAAAAAKAEwlYAAAAAAACAEghbAQAAAAAAAEogbAUAAAAAAAAogbAVAAAAAAAAoATCVgAAAAAAAIASCFsBAAAAAAAASiBsBQAAAAAAACiBsBUAAAAAAACgBMJWAAAAAAAAgBIIWwEAAAAAAABKIGwFAAAAAAAAKIGwFQAAAAAAAKAEwlYAAAAAAACAEghbAQAAAAAAAEogbAUAAAAAAAAogbAVAAAAAAAAoATCVgAAAAAAAIASCFsBAAAAAAAASiBs7aV27NiRimHDyl0G/dzwiors2LGj3GXsczt27MhQ+xdl1lf3r7a2tgyzf1Fmw4cPz+9+97tyl7HPtbW1ZfDgwRk8eHC5S6Efqxg+PMmrf499zY4dO1JZWVnuMujnhg0d2ie/I+5oa8vw//z/B5RLn92/duxIRUVFucugnxs2bFif3b+G2b8os2HDhvXJNY7eRtjaSzU3N2fq1KkZM2ZMuUuhnxo0aFDe+973Zt26deUuZZ97+OGHc/Q73pF3vvOd5S6Ffuz906blgQceKHcZ+9yvfvWrvPzyy3nPe95T7lLox0468cQ+uX8999xz+dnPfpYPzphR7lLox2bMmJEHHngg7e3t5S5ln/vJT36Sk046qdxl0I+dOH16tmzZkt/85jflLmWfe+Df/i0fmDat3GXQjx1zzDEZPXp0fvrTn5a7lH1u3bp1ed/73lfuMujHjjjiiBx33HF5+OGHy13KPtfc3Jz3nnBC3vSmN5W7FPqpN7/5zTnhhBPS3Nxc7lL6vQFjx459pdxFUJpzzz0306dPz2233ZbNW7aUuxz6kcrKypw4fXpaWlqyZMmScpezX8yYMSPnn39+bvne9/Lkk0+Wuxz6kaFDhuQ973lPfv/732fBggXlLme/mDx5cj772c9m5cqVWb9hQ7nLoR856A1vyLvf/e689a1vzRVXXJFt27aVu6R97u1vf50ah2MAACAASURBVHuuuOKKrPnRj/Kzn/0sr7ziqz6vjwEDBmTChAmpmTQpCxYsSEtLS7lL2udGjhyZBQsWZMOjj6bpgQfy0ssvl7sk+pGjjjoqM045JYsWLeqTF7wOHDgwixYtyu927MiPfvSjPtkdz4Hr8LFjc+aZZ6ahoSH33HNPucvZL/76r/86I0aOzPe///20traWuxz6kaqqqvxZXV1WrFiR733ve+UuZ7+44IILMmnSpNx555159rnnyl0O/cib3/zmnHLyyWlqasrSpUvLXU6/J2zt5Y477rhMmTLF1TMlOPzww5Mkv/3tb53I7aXWF1/MA//2b1m1alW5S9mvxo8fn/e9730ZOXJkuUvpdQr715YtW/LCCy+UuZrepa2tLc3NzbntttvKXcp+dcQRR+Skk04yoaEEhx12WAYOHJjnn38+zz77bLnL6VV+//vf5+c//3lWrFiR3//+9+UuZ7+pqqrKBz/4wfzxH/9xBgwYUO5yepWqqqoMHTo0L774YjZt2lTucnqVl19+ORs2bMhtt92WZ555ptzl7DfDhg1LXV1djjrqqLzhDW8odzm9yqGHHprKysq0t7fnqaeeKnc5vc5jjz2Wf/mXf8njjz9e7lL2qz/7sz/LO9/5zgwaNKjcpfQqBx98cA455JAkr/6tsHeefvrp3HPPPfn5z39e7lL2q5NPPjm1tbUZOnRouUvpVYYOHZqqqqok9q9SbN26NatXr+6Tk4U6OuGEE3Lccce55cReesMb3pA/+qM/SpL85je/yUsvvVTminqX7du3Z+3atbnvvvvKXQoRttKPrVixIkkyb968PPHEE2WuBvqWb33rW3nLW96SRYsW9fkv1PB6W7hwYcaPH59rr702d9xxR7nLgT7lL/7iL3LSSSdl5cqV+fu///tylwN9yplnnpmPfOQjWbt2bf7mb/6m3OVAnzJ16tR85jOfyX/8x3/kU5/6VLnLgT7lqKOOyt/8zd/kxRdfzLnnnlvucqBPeeMb35gbbrghSfLRj340zz//fJkrgtK5ZysAAAAAAABACYStAAAAAAAAACUQtgIAAAAAAACUQNgKAAAAAAAAUAJhKwAAAAAAAEAJhK0AAAAAAAAAJRC2AgAAAAAAAJRA2AoAAAAAAABQAmErAAAAAAAAQAmErQAAAAAAAAAlELYCAAAkGTBgQLlLAAAAAHoZYSsAAAAAAABACYStAAAAAAAAACUQtgIAAAAAAACUQNgKAAAAAAAAUAJhKwAAAAAAAEAJhK0AAAAAAAAAJRC2AgAAAAAAAJRA2AoAAAAAAABQAmErAAAAAAAAQAmErQAAAAAAAAAlOKjcBQB9R3V1dRYsWJBt27Zl3rx5JW2jrq4up556ar7whS+kpaVlt6+vr6/PqFGjdvl5dXV1mTNnTgYNGrTb7bW2tmbx4sVpamraq7oBAAAAAID+R9gKlGzu3Lk544wzdnq8qqoqd9xxR6fHCiHmli1bsmDBglRVVXV6fv369SUFtLfddlsuv/zyzJ07N0uXLu3xdU8//XSnAHfu3LmZOnVqrrzyyuJjdXV1Oeecc/a6BgAAAAAAoH8StgKvycaNGzsFlt2pra3NxRdfnCRpaWnJ7NmzS/qsnsLdJDnjjDN2em7t2rVZuHBhSZ8FAAAAAACwO8JW4IDQNUi95ppriv/uGJruSbjbnbe85S2dttnd5ySvduACAAAAAADsCWEr8JpUVVV1G2J2tbsQc+nSpVm6dOlO430bGhp2+b7C6N+rrroqTU1NxfvGbtiwoVNXqzHCAAAAAADAviZsBV6Tve003dUo4OXLl+/RNi688MKMGTMmV155ZR588MGcfvrpqa2tTVNTUyZNmpTKyso0Nzfv8e8AAAAAAABQCmEr8LoqdLDW1dXl1FNP7dRtmiT19fXZtm1bWlpaUl1dnYMPPrhTcLpt27bccsstueSSSzJp0qQ0NjZm27ZtmThxYpJk1KhR2b59ex588MFOn2uMMAAAAAAAsK8JW4GSjRkzJtu2bcukSZPy9a9/PYMGDerxtV07YKdPn56f/OQnO3XEjho1Kps2bdrl5zY1NWXLli2ZOHFiGhsb09zcnKlTp6a6ujoTJ07Mhg0bOm131KhReeyxxzJv3rziY8YIAwAAAAAAr5WwFShZx2C06z1ROyp0sXb8eciQIbnrrrs6hZ4jRozIiBEjsmrVqm4/b8yYMcXP6xiwbtq0KZWVlTnnnHMyevTond7f8X0AAAAAAAD7ysByFwD0ToURv08++eRev/eEE07I7bffnkmTJuVDH/pQqqqqcuKJJ+ZjH/tYtmzZksbGxiTJiBEjUllZWfy8I488svh5TU1NGTx4cHGU8FlnnZWhQ4fmqaeeKr6/YNSoUSXVCQAAAAAAsCs6W4GSnHjiiUmSu+66K5MmTerxnqgFGzduTPJqV+vb3va2HH300dm4cWMuvvjiTJo0KXPmzEl7e3sWL17c6X1tbW3ZtGlTp89LXg1bzz333OLrCmHs6tWrO72/rq4uI0aMSFNT02v/pQEAAAAAADoQtgIlmThxYlavXp2WlpZMmjRpj8cINzY27tR5OmLEiLzwwgu56aab0tTUlPr6+kyePDnJqyHtxo0bc/rpp2f16tW7vT/sGWeckTPOOCNJsn79+mzatCk///nPewxbR4wYkQULFqSqqqr4HsEsAAAAAACwJ4StQEnmzZtX/Hd3AWpHu3u+a5fqwoULd3rNv/7rv3ba3mu1dOnSLF26NEkye/bs17w9AAAAAACg/3HPVgAAAAAAAIASCFsBAAAAAAAASiBsBWC3br311lx44YUZM2ZMuUsBAAAAAIADhnu2ArBbBx10UGbMmJG6urqsWbMmy5cvzyOPPFLusgAAAAAAoKyErQDs1iuvvJLBgwcnSaZMmZLjjjsuv/rVr3LzzTdn7dq1Za4OAAAAAADKwxhhAPbaQQcdlKOPPjp/9Vd/laVLl+aUU04pd0kAAAAAAPC609lKvzd16tQ888wz5S4DeqVhw4Zl2LBh+fjHP56Pfexj+d73vpfbb7+93GUBAAAAAMDrQthKvzd9+vSMGTOm3GVArzZ48OAMHjw455xzTqZPn55hw4aVuyQAAAAAANjvhK30e//n//yfbNy4sdxlwAHtqquu2uXzO3bsyDPPPJMbb7wxd999d771rW+lsrLydaoOAAAAAADKQ9hKv/frX/86TzzxRLnLgAPayy+/nIEDd77N94svvpjnnnuuGLICAAAAAEB/ImwFYLfa29szZMiQ4s9CVgAAAAAAELYCsAdefvnlJEJWAAAAAADoSNgKwG4NGDAgv/3tb4WsAAAAAADQgbAVgN365je/KWQFAAAAAIAuBpa7AAAOfIJWAAAAAADYmbAVAAAAAAAAoATCVgAAAAAAAIASCFsBAAAAAAAASiBsBQAAAAAAACiBsBUAAAAAAACgBMJWAAAAAAAAgBIIWwEAAAAAAABKIGwFAAAAAAAAKIGwFQAAAAAAAKAEwlYAAAAAAACAEghbAQAAAAAAAEogbAUAAAAAAAAogbAVAAAAAAAAoATCVgAAAAAAAIASCFsBAAAAAAAASiBsBYBeoL6+PnPnzu3xuYaGhj3eVl1dXb7zne+ktrY29fX1uf7661NdXb2vSgUAAAAA6DcOKncBAMDu3Xbbbbn88suTJGPGjMnkyZN3es0dd9xR/PfGjRtz5ZVXpqWlZZfbXb16dZJkwYIFPb7+6quvzr333pvGxsbiY/X19TvVsHz58ixdurT4/IQJE7J48eI0NTXt4W8JAAAAANC7CFsBoBdoamrKt7/97Zx66qn5whe+kIULFxafq6+vz6hRozJv3rxO76mrq8vXv/71DBo0qNttLlq0qNPP11xzTVpbWzsFpHV1dXnb296W5557rlPYmqTTa2tra3P55ZdnzJgxnWoDAAAAAOjLhK0A0Es0NjamsbExtbW1ufrqq1NRUdHp+Y6drWvXrs3ChQt3CkiTVwPUc845J1ddddVuu04nTpyYQYMG5cgjj0x1dXWPnbJNTU156qmnMmrUqBJ+MwAAAACA3knYCgAHuLlz5+aMM85I8odRvWeddVbx+Z46W5Okuro6CxYsyIYNGzp1nA4fPjynnXZaMWydO3dupk6d2mmUcG1tbSZMmJAf/OAHefe7350TTzyxOCYYAAAAAABhKwAc8JYuXZqlS5emoaEhhx56aG655ZadulqTzp2t7e3tWbZsWRobGzN79uw0NDSkoaGhUyB7zDHH5Nxzz81JJ52UQw45JLfeemun7dXW1mb79u256aabMnbs2EycOLHHGmtrazN69Oj88z//8z74jQEAAAAAegdhKwD0Ilu3bs1ZZ52VhoaGbNq0aaf7o/Y0Irhr1+sLL7yQp556Kh/5yEeyfv36zJ49u9Pz1dXVmTp1ajZs2JCWlpY0NzfnlFNOSW1tbXG7FRUVne77Wui6BQAAAADoL4StANBLTZ48uVM3a0Fra2u3ry+MFK6qqkpra2tuvPHGnHbaaTnmmGNSV1fX6f6ukyZNSmVlZZqbm5O8ek/WU045pdPo4dbW1ixevHi3930FAAAAAOirhK0A0EutXbu2x87Wjgr3fC2MFk5SfM3ChQszd+7cXHjhhZk+fXqxA3b69OmpqKjIhRdemAsvvLC4rSOPPDLV1dX789cCAAAAAOg1hK0A0ItUVFRk8eLFGTJkyG47W+vq6jJnzpw89thj+eAHP1h8vq6urtPrO94T9pZbbsl3v/vdjB49eqexwHV1dZk1a1YmTZq0n347AAAAAIDeRdgKAL1AdXV1Dj744JxyyilZvnx5Dj744N12tjY2NnYaDbw7ha7W+vr6JNlpPPCDDz6Y008/PdOnT8+mTZtey68DAAAAANAnCFsBoBcYMWJEkmT+/PlpampKQ0NDp+cbGhoybty4JMn69eu7vY/qnrwmyU4BbkFLS0tmz569R/X2tA0AAAAAgL5E2AoAvUBTU1OnoLPQhdrTz93Zk9cAAAAAALDnBpa7AAAAAAAAAIDeSNgKAAAAAAAAUAJhKwBAGS1btiwzZswodxkAAAAAQAmErQAAZfTWt741559/fr773e/mwx/+cN74xjeWuyQAAAAAYA8JWwEAyqyioiKVlZU5++yz84//+I/5xCc+kcMOO6zcZQEAAAAAu3FQuQsAAOBVQ4cOTZKcfPLJOe2007J27dosX748P/3pT8tcGQAAAADQHWErAPtNVVVVDj/88HKXAQe0V155JQMGDOj02KBBg/LKK69k8uTJede73pUNGzbk5ptvzpo1a8pUJQAAAADQHWErAPvNySefnHnz5pW7DOiVCgHsQQcdlKOOOiqf+cxnMmfOnLS3t5e5MgAAAACgQNgKwH6zYcOG3HfffeUuAw5oc+bM2amztaNC5+v999+fm266KbNnz85b3vKW17FCAAAAAKAnwlYA9ps1a9bkgQceKHcZcEA777zzivdq7ejll1/OwIEDs3r16tx0003ZsGFDGaoDAAAAAHZF2AoAUEYvv/zyTj8PHDgwa9asEbICAAAAwAFO2AoAUEYDBw5MImQFAAAAgN5I2AoAUEaDBg1KEiErAAAAAPRCwlYAgDK67777cssttwhZAQAAAKAXErYCAJTRl7/85XKXAAAAAACUaGC5CwAAAAAAAADojYStAAAAAAAAACUQtgIAAAAAAACUQNgKAAAAAAAAUAJhKwAAAAAAAEAJhK0AAAAAAAAAJRC2AgAAAAAAAJRA2AoAAAAAAABQAmErAAAAAAAAQAmErQAAAAAAAAAlELYCAAAAAAAAlEDYCgAAAAAAAFACYSsAAAAAAABACYStAAAAAAAAACUQtgIAAAAAAACUQNgKAAAAAAAAUIKDyl0AAACUW11dXU499dR84QtfSEtLS7evufrqq3PvvfemsbGx+FhDQ0M2bdqUhQsXdvue6urqfO5zn8vtt9+exx9/PBdffHG+/vWvp7a2NhMnTsy8efPS0NCQ5ubmLF26dKf319fXJ0kWLlyYhoaGjBs3rsffYe3atT3WAQAAAMD+IWwFAKDfqK2tzeWXX56Kiopun7/mmmt2emzjxo258sorc++992bWrFlJksbGxsydOzfjxo3LuHHjcscdd+z0vvXr12fevHn51re+lYsvvjjLly9PkkyfPj1jx47NvHnzUl1dnSRpamrao/qXL1++y1AWAAAAgNeXsBUAgH6jqakpZ511VqfHGhoasm3btowcOTJJ8pOf/KTbQLOlpSWjRo3K9OnTkyTTpk3L/Pnzuw1K6+vrM2rUqNTV1WXOnDkZNGhQPv7xjydJqqqqip+7atWqHH744Vm0aFHxve3t7bn//vtz7LHHZtCgQUmSW265Jdu3b88ZZ5yRM844o9vfbe3atXv7nwMAAACA10jYCgBAv9Oxw3X58uXZtGlTcYzwJZdckjvuuKPbsbxLly5NbW1tLrnkktx000277EjdtGlTGhsb09jYWPy8JFm8eHHxfQ0NDXnggQeycOHCTiOHC6OKu44RXr16tc5WAAAAgAOIsBUAgH5j7ty5O3WGdvy54xjhyZMn54477khra2taWlpy9NFHJ3l1lO+5556b+vr6XHjhhZ22VRgd3N1nPvLII6murs6iRYuydu3aNDc35+CDD86mTZuSJCNGjMjgwYPz+OOP79HvUuienTdvnnu1AgAAAJSJsBUAgH5j6dKlWbp0aebOnZuJEyfuFIwWdOxeLXSZVldXZ8GCBZ1e1zFcLYSfHc2dOzennHJK5s+fnyS5+OKL87//9//O//gf/yOTJ0/OD37wg4wdOzbV1dWpra1NkmzZsqXTNiZPnpzrr78+bW1t3Y4RLtwvtr29PcuWLSvWCwAAAMD+J2wFAKBfGjduXDGo7E57e/teb2P9+vVJklGjRmXTpk3FcLeuri7nnHNOrrrqqjQ1NeWee+5JkuLo4EmTJmXixInZsGFDWlpaOnXgFsYZNzQ0ZPny5cUxwh07WwEAAAAoD2ErAAD9UncjfwsKna17s42eOls7dqIuWrQoSecu1CeeeCKzZs1KkqxatSrJHzpwC/dira6uzpAhQ3LkkUfuFBAXfu4YxAIAAADw+hC2AgDQL+2LztbdWbp0acaMGdOpA3Xu3LmZOnVqHnzwwSTJbbfdlgkTJuShhx7qcQRw4X6uzz77bDZu3Jgrr7wyLS0txecbGhpec60AAAAA7D1hKwAA/VKpna0VFRVZvHhxkp7HCCfJk08+merq6vz6179O8ocO1NbW1ixevLgYln7sYx9LRUVFJkyYkNra2jQ1NXVbT5L87ne/29tfEwAAAID9SNgKAEC/s7txu01NTTn33HO7fe6UU07J8uXLM2bMmG4D29ra2owePTrNzc1paWlJS0tLsfN048aNqayszMUXX5x/+Id/yCc+8Yls3749f/EXf5GPfvSjufLKK4vjhQuGDh2aqVOnZvXq1UmSqqqqXHPNNTvV1dzcvFf/DQAAAAB47YStAAD0G13vobonCp2oBfPnz9+p+7S2tjaXX355Kioqkrza4bp06dLi561du7ZTKFtXV5e//Mu/zAMPPJCFCxcmSRYuXJi6urrMmjUr48ePz7HHHptBgwblwQcfTFtbW+66666ceOKJxggDAAAAHECErQAA9BtLly7dbVfrrsyePbvbx5uamnLWWWft8ec1NjZ2e3/Wnh7f3fZ6GocMAAAAwP41sNwFAAAAAAAAAPRGwlYAAKDPmjhxYrlLAAAAAPowYSsAANBnLViwIF//+tfznve8p9ylAAAAAH2QsBUAAOizBg8enHHjxuVTn/pUbrjhhnzoQx/KgAEDyl0WAAAA0EcIWwEAgD5twIABGTp0aEaNGpWPfvSjufnmm3PeeeflzW9+c7lLAwAAAHo5YSsAANBvVFRUpKKiImeddVa+853v5OKLL051dXW5ywIAAAB6qYPKXQAAAHvvve99bz72sY+VuwzotYYMGZIkOfHEE3PKKafk/vvvz0svvVTmqgAAAIDeRtgKANBLNTc3l7sEOOAdf/zxu3y+vb09ra2tefDBBzN69OjXqSoAAACgrxC2AgD0Qj/84Q9zxx13lLsMOOD1tJ+0trbmpZdeyv/9v/83K1asSJJ84hOfeD1LAwAAAPoAYSsAANBvdBeyAgAAAJRK2AoAAPR5QlYAAABgfxC2AgAAfZaQFQAAANifhK3A/2fv7qOzrM88gX9RQQS0tRgcERqXOK22OtBMt2Wm2dluR3YsajOkWF1XKzKpVHbC7kw5257YE0oOMGuHns6S00FrClanL2zZuGltRg+O7XjoNrU7Geix0nYmjBmpFhBfyosaVPYP5rkngYSXBzAQP59zOCb387vu+0rCc/Dw5fr9AACGra997WtCVgAAAOCEOW2oGwAAADhRBK0AAADAiSRsBQAAAAAAACiDsBUAAAAAAACgDMJWAAAAAAAAgDIIWwEAAAAAAADKIGwFAAAAAAAAKIOwFQAAAAAAAKAMwlYAAAAAAACAMghbAQAAAAAAAMogbAUAAAAAAAAog7AVAAAAAAAAoAzCVgAAAAAAAIAyCFsBAAAAAAAAyiBsBQAAAAAAACiDsBUAAAAAAACgDMJWAAAAAAAAgDIIWwEAAAAAAADKcMZQNwAAAEOlvr4+U6dOTUNDw6BrKisrs3jx4kyYMCHd3d1paGhIU1NTpk+ffsTP6ezsTHNzc1paWrJx48asW7cut99+e7773e8mSa666qosXbo0N998c5Kkubn5kL0e7vmlPgEAAAA4sYStAAC8aa1bty41NTVpampKc3Nz6uvrU1dXd9C6tra2tLa2prq6OpWVlUmOPNBsaWkpPl6+fHluv/327NmzJ0nyzne+MxdffHGWLl2anp6evOUtb8mjjz56RL2XAtwDlUJZAAAAAE48YSsAAG9aPT09WbFiRRYsWJDq6uokybZt27Jo0aL09PQctL6rq6vsZ1VXV6exsTFjxozJjTfemCSZNGlSkmTx4sW59957U1lZmXnz5mXevHlF3Q9+8IO85z3vyZgxY5Ik7e3t2bp1ayZNmpSOjo4Bn9Xd3V12nwAAAAAcOWErAABval1dXZkzZ06SFIHr0RhsGvbAydOurq7Mnj272Jb43HPPzapVq9Le3p4kaWpqyjPPPFNMy5a2HG5tbS2e03cb4S1btphsBQAAABhiwlYAAOhjwoQJWbly5YCvlbYTPtCBWwr33Tq4r9ra2sydOzdbt27N888/n3nz5uWKK67I6tWrM2XKlOzYsSPJ/nNizzzzzGzfvv2Ieq6vr09NTU0WLVo0YH8AAAAAnBjCVgAA3pRKwefIkSP7TaFu2bIlo0aNyubNm4trtbW1ue66645pG+Ha2trcdNNNWbVqVTZs2JDbb789d911V6644oosWbIkGzZsyNlnn53q6upMnjw548aNy1NPPdXvHlVVVVm7dm16enpy6aWXHrSNcN+QeLBgGAAAAIDjR9gKAMCbUnt7e9rb29PU1FRcmzhxYl555ZUsXbo0ixcvztq1a/Pggw/myiuvzH333XdMYWvpedXV1fmzP/uzrFmzprhW0tLSkurq6kycODE7duxIV1dXv1C4NEHb1NTULyDuO9k60FmzAAAAAJwYwlYAAMj+rXunTJmS9evXp6enJ3PmzCnOY+3s7OwXipajb2iaJPPmzcu8efOS/OsU6saNG3PllVdm5MiR+c53vpPkX0PavmexVlRUZOfOnWlvby/ul/zrZOuB58UCAAAAcGIIWwEAIMmMGTMybty4dHV1FSHrtm3bsnz58syfPz9r167NsmXLBpxuraqqOmhL3wPPW21vb09FRUW/CdQDtydet25dampqsnPnzkG3AC6d5/rUU09l9+7dWb58eb+e+k7qAgAAAHBiCVsBAHjTGz16dGpqavLYY4+lsbExu3btym233VZsyfvII4+kpaUlt9xyy4Bha2l735KWlpZBn7V+/fpiAnXv3r1ZtWpVcc+bb745EyZMyLnnnpva2toBp2mnTZuWcePG5bnnnjumrxkAAACAYydsBQDgTamysjKLFy/O008/nYkTJ2b9+vWDTpMm6Rem9jVQzaHWliZPX3jhhSTJTTfdlJ07d+bjH/94xo0bl89+9rOprq7OvHnzUlFRcdD9r7jiivzsZz/L9u3bM3bs2CxZsuSg53R2dg76dQAAAABw/AhbAQB4U5o2bVp27NiRxsbGInitq6s7ZE1pEjUZeOvgwWzfvr04s/Wf//mfM3PmzOK16urqNDY25plnnsmcOXOSJF1dXenq6kpjY2POP//8vOc978mYMWOyadOmjB8/PqtXr87kyZNtIwwAAAAwxIStAAC8KbW3txfb9Pb09BRB55GYOnXqQVsHD6a0pXDf5/XV1dWV2bNnH/H1vq8PdL/m5ubD9gQAAADA8SFsBQCAo3Q0geaRBLIAAAAAnJpOG+oGAAA4ccaPH59PfOITefvb3z7UrQAAAADAsGOyFQBgGBo/fnzq6uoya9as9Pb25m//9m+HuiUAAAAAGHaErQAAw8iBIeu+ffsyatSojB49eqhbAwAAAIBhR9gKADAMDBaylowcOXIIuwMAAACA4UnYCgBwCjswZE3SL2QtOe20097o1gAAAABg2BO2AgCcgsaOHZtPfOITmTVrVvbu3Ztk4JC15MYbb8zrr7+ev/u7v0uSTJ06NXV1dUmSF154IV/84heLtZ/61KdyzjnnJEna2tqycePGJMl73/veXHPNNUmSZ599Ni0tLUXNf//v/z1jx45NkqxZsyZPPPFEkmT69On58Ic/nCT51a9+lZUrVxY1jY2NOfPMM5MkX/va1/KLX/wiSVJTU5MZM2YkSbZs2ZK77767qFm0aFERHH/1q1/N5s2bkyQf/OAH8x/+w39Ikjz55JNZvXp1kv0h86JFi4r61tbWPPXUU0mSK6644EnG0QAAIABJREFUIv/u3/27JMk//MM/5K/+6q+K7+Ptt99e1Nx11115+umnkyQf/vCHM3369CTJpk2b8s1vfjNJctZZZ+Uzn/lMUfOlL30p27ZtS5Jcc801ee9735skefzxx/Otb30rSXLOOefkU5/6VFHzF3/xF3n++eeTJLNmzcq0adOSJH//93+f//N//k+S5G1ve1v+63/9r0XN8uXLs3PnziTJ7Nmzc/nllydJfvzjH+eBBx5IkkyYMCH/5b/8l6LmjjvuyJ49e5Ik/+k//adccsklSZIf/vCHefDBB5MkF154YW699daiZsmSJcXvs5tuuikXX3xxkuTRRx/N3/zN3yRJ3v72t+eP/uiPiprPfe5z2bdvX5Jk7ty5qaysTJJ873vfy/e///0kSVVVVT7+8Y8nSV577bU0NzcX9Z/4xCcyadKkJMm6deuyfv36JMk73/nO3HDDDUmSV155JcuWLStqbrvttvzGb/xGkqSjoyM/+tGPkiTvfve787GPfSxJsnv37nz+858vahoaGnLeeeclSV5//fUAAAAAHA1hKwDAKaiioiJTpkzJq6++mpEjR2bfvn0ZMWLEoOsvuOCCIkBN9gd9v/mbv5kk2b59e7+1F110UcaPH58kOfvsswesKQWrJVOmTCnuP27cuOL6W9/61qLmwDC4qqoqZ511VpJkzJgxxfVzzz23qCmFdX1rzjhj///ClmqT/SFkqaY04VtSun5gzfjx44vXdu/eXVwfMWJEv5pSIHxgzQsvvFBcP+OMM/rV9P1aKyoqBvxeH1jTd6vn888/v3itFPSW1vStKX0vkv0/49JrPT09/XrpW9N3yrlvTSnsLn3NfWv6/t6aOHFi8dpPf/rT4vpZZ53Vr6avvjUbNmwYsKYU5pZMmjSpeO3HP/5xcX3MmDHF9VJoXFJZWZm3v/3tSfb/3isZN25cUfPiiy/2q7noootywQUXJEn+6Z/+acD+AQAAAAYzYvLkyfsOvwyGn/vvvz/J/mmGLVu2DHE3MLzceeedOf/887NkyZJiig44Ppqbm3P55Zfn7rvvTkdHRy699NLMmjUrNTU12bt376Bnsy5atKhfYAUcbP78+ZkxY0a+/e1vF9PRwPHx0Y9+NDfeeGM6Oztzxx13DHU7MKzU1NTkU5/6VJ588sn8yZ/8yVC3A8PKO97xjtxxxx156aWXit1VgOPjnHPOyVe/+tUkyc0335xf//rXQ9wRlM9kKwDAKWzTpk3ZtGlTLrjgglxzzTW5+uqr8+qrr2b06NFD3RoAAAAADHunHX4JAAAnu2eeeSZf/vKXc/311+cb3/hGdu7c2W+LVWdRAgAAAMDxJ2wFABhG9uzZk29961u57rrrcvfdd+eXv/xlXn755YPOPgUAAAAAjp1thAEAhqmHHnooDz30UCZNmpRdu3YNdTsAAAAAMOwIWwEAhrktW7YMdQsAAAAAMCzZRhgAAAAAAACgDMJWAAAAAAAAgDIIWwEAAAAAAADKIGwFAAAAAAAAKIOwFQAAAAAAAKAMwlYAAAAAAACAMghbAQAAAAAAAMogbAUAAAAAAAAog7AVAAAAAAAAoAzCVgAAAAAAAIAyCFsBAAAAAAAAyiBsBQAAAAAAACiDsBUAAAAAAACgDMJWAAAAAAAAgDIIWwEAAAAAAADKIGwFAAAoU1NTU+65555UVlYOdSsAAADAEDhjqBsAAACGh/r6+tTU1GTRokUZP358GhsbM2bMmEHXd3Z2prm5OZWVlVm8eHEmTJhwRM9pa2tLa2vrYXvo6ekZcM0XvvCFPProo2lvb09TU1OmT5/e7/Vrr7021157bfF5d3d3GhoaBrzXAw88kMbGxsyYMWPQngbrq6mpKUnS3Nyc2traXHXVVVm6dGm/1w/sraSzszNJUlFRkYaGhrS0tGTjxo2H7AEAAAA4/oStAADAcVEK+r7whS/k3nvvTW9vb+677760t7cftLYUNJb09vbmrrvuKtZWV1dn4cKFWbNmTXGtFMoeq0cffTRz585NRUVFmpubi3v/+Z//eUaPHp37778/q1ev7ldTW1ubuXPnZuTIkQPes66uLnV1df2u7d27N6tWrTro629paUlVVVXxeUdHR/HxypUrk+wPlJubm1NdXZ0FCxZkxYoVSdLve3Lg9xAAAAB44wlbAQCA46a1tTWtra2prq7ud32gyc2h0t7enoqKitTU1GTPnj257rrr+oWofSdbS9O37e3tA4bG5ShNyR5ushUAAAA4+QlbAQCAY1ba8rY0zfnUU08lSd75znemvb29CDNXrlyZ7u7ubN++vV/9qFGjMm/evMybN6/f9YGuJYefNC1NiPa1bdu2YhvfUiicJF//+tdTX1+f3//938/o0aPz7W9/O6tXr05LS0u/+qPZ7rj0rGnTpvXrc+XKldm0aVMqKyuLLZYPnGxta2vL9u3b+9UtWbKk3/fkpptuEsoCAADASUDYCgAAHLPSlrcLFy7sd/3nP/95Pv/5zx80uXms2wgPNmna1NSUKVOmDHpm64GhcOkeEydOzEsvvZTRo0cP+jX29PRkzpw5R/Fd2V/T3t6elpaWnH322cV5tgsWLMiyZcvS1dXVb30p4C19fQeeg3vgNsIVFRVH1Q8AAABwfAlbAQCAE+aqq67qN5m6cuXK7N27N1u3bs2WLVuO+/MqKipy7rnnZtq0aQOGrc3NzamsrMztt9+e5ODzU5P+2whXVVWlvb09q1atyoYNG456srWnpyfV1dW54IILMmbMmCxevDj33ntvxo0b129ata+NGzcm2R8u19TUZP369enp6cn48eMP+loAAACAoSVsBQAAToje3t7ceeedB01vJjlosvVotxEeSHV1dcaPH5+tW7dm6tSpR3TGaun81CSZP39+ZsyYUWwjPJCjnWxNkquvvjq9vb3ZtWtXurq68vGPfzy7du065GRrkixcuDCbN28utjs+UHV1dRobGzNmzJjs3bs3Dz/88FH3BgAAABwbYSsAAHBcVVRU5IorrkiSTJo0qQgES9ra2vqtL01sfvazny3Cx8NtIzyQW265JTt27Mjq1auzcOHC1NbWHlHgWtpauKTvZGvfCdWB1g6ms7Oz2Fp5ypQp2bBhQ971rnelvb0969evT2Nj42EnW/sGwUnS1dWV5cuXZ8GCBXnqqafS1dWV2bNnH7YXAAAA4MQRtgIAAMfNqFGjcuWVV+bBBx/M+973vuzatSu9vb257777irNLDzR58uT09vZmx44dZT+3vr4+F1xwQTEt+sgjj2TWrFnZsGHDgNsJH6i7uzubNm3qN9laOmf2QKUgdTB9p3YnT56cJ554Is8991xxrW9IWl1dnQULFmTFihUHTbmWwuWBti0+MKjds2fPgJOyAAAAwIklbAUAAI6LyZMn57nnnsvSpUuzcOHCbNmyJS+88MJBWwSXJjdLKioq8sorrxxRKDqQpqam/PZv/3ZWrVpVhI2tra2ZOnVqFi9e3G8yta+xY8empaUlvb29ZT33SJQma+vr65Psn+IdKEA9MDxta2tLa2vrQdsWHyqcBQAAAN54wlYAAOC4aG9vT3t7e2pra3PBBRcUZ4j2nWwtKU1/VlZWpqamJuvXrz/q55XOLN21a1cWLFhwUKDa0NCQpqamrFy5sggvS0aNGpUbb7wxbW1tmThxYqZPn56qqqokB28jfKDp06eno6PjkL11dnYOeH3Hjh1FgFrqv6enJ+PHjxegAgAAwClI2AoAABxXV1xxRR588MEiXL3hhhuSJLW1tZk7d25GjhyZZP/05rRp09Lb25t169YNer++56Tu2bMnXV1dqa+vT11d3UEh6oFK56Y2NjbmyiuvzLJlyzJ58uSMGjWqOCO2qanphG0jfKAPfOADWbFiRUaOHNlv699Sj6WzbX/yk5/k0ksvLb5XBxrsvNfDfT8AAACA40vYCgAAHFcNDQ0DXi9Nvg50/UBdXV1FSDvY60caKvY9I7X0ed97loLT+fPnH7bfQ4Wsh1rT2tpa9Pv1r3/9sD0CAAAAp4bThroBAAAAAAAAgFORsBUAAAAAAACgDMJWAAAA4Ki1trbmyiuvHOo2AAAAhpSwFQAAADhqEydOzCc+8YmsWbMmH/vYxzJ27NihbgkAAOANJ2wFAAAAynLWWWdl3Lhxuf766/PNb34z8+bNy8SJE4e6LQAAgDfMGUPdAAAAAHDqGjFiREaPHp0kmTlzZmpra/ODH/wgbW1t2bRp0xB3BwAAcGIJWwEATkHvfe97c8455wx1GzCsXHzxxTn99NNz6aWX5vrrrx/qduCUNHLkyOzbty8f+MAHMn369PziF7/It771raFuCwAA4IQRtgIAnILGjh2bj3/840PdBgxLl112WS677LKhbgNOWSNGjEiSnH766bnooouycOHC/PSnPy2uAwAADCfCVgCAU9CGDRvyF3/xF0PdBgwr//k//+fU1NTkb/7mb7J27dqhbgdOel/5ylcGfe3ll1/Ovn378o1vfCNtbW2ZNWtWfuu3fusN7A4AAOCNIWwFADgFvfjii3nmmWeGug0YVvbs2ZN9+/Zl165d3l9Qppdeein79u3LN7/5zbS1teX1118f6pYAAABOKGErAAAAcEyErAAAwJuVsBUAAAAoS9+Q9f77789rr7021C0BAAC8oYStAAAAwFHbvXt31qxZI2QFAADe1IStAAAAwFG7/vrrhawAAMCb3mlD3QAAAABw6hG0AgAACFsBAAAAAAAAyiJsBQAAAAAAACiDsBUAAAAAAACgDMJWAAAAAAAAgDIIWwEAAAAAAADKIGwFAAAAAAAAKIOwFQAAAAAAAKAMwlYAAAAAAACAMghbAQAAAAAAAMogbAUAAAAAAAAog7AVAAAAAAAAoAzCVgAAAAAAAIAyCFsBAAAAAAAAyiBsBQAAAAAAACiDsBUAAAAAAACgDGcMdQMAAABHor6+PlOnTk1DQ8OgayorK7N48eJMmDAh3d3daWhoSFNTU6ZPn37Ez/nABz6Q1atX97vf5s2b09zc3G9dU1NTKioqBuynvr4+dXV1h33Wnj17smzZsnR1dR1xfwAAAMDJQ9gKAACcEtatW5eampo0NTWlubl50ECzra0tra2tqa6uTmVlZZIUweuhzJ8/PzNnzux37eabby6C1sGe19HRUXzc2dlZhLIHPrOlpSUbN25Ma2trkqS6ujoLFiw4wq8eAAAAOBkJWwEAgFNCT09PVqxYkQULFqS6ujpJsm3btixatCg9PT0HrT/WadH6+vpicrU0xdo3jD3UZGuSVFVV9QtiS9f6BrZ79uw5ph4BAACAoSVsBQAAThldXV2ZM2dOkhSB69EYbDq1s7Mzzz77bPF5bW1trrnmmowcOTIdHR3Fdr9Hw2QrAAAADH/CVgAA4JQ1YcKErFy5csDXStsJH2igEPRA7e3taW9vT3V1dRYuXJg1a9Zkx44dueeeezJhwoR+a0vTq3v37s2qVavS3t6exGQrAAAAvBkIWwEAgJNebW1t5s6dm5EjR/Y7F3XLli0ZNWpUca5qae111113zNsIJ8ktt9ySn/3sZ0WAWpqqPRImWwEAAGD4E7YCAAAnvdKkaVNTU3Ft4sSJeeWVV7J06dIsXrw4a9euzYMPPpgrr7wy99133zGHraVnVVRUpKOjI93d3dm+fXumT58+4Pq+58cONFF7oL5bIgMAAACnJmErAABwyqmsrMyUKVOyfv369PT0ZM6cOcV5rJ2dncUk6rHef8KECWlraysmVJuamvpN1pbU19enpqYmyf4J1qqqqgHve+A2wiWDbXkMAAAAnNyErQAAwClnxowZGTduXLq6uoqQddu2bVm+fHnmz5+ftWvXZtmyZQNOtw50lur27dv7fV4KcMvRd+vg5F+D2N7e3jz77LM577zzsnTp0vT09JR1fwAAAODkIWwFAABOKaNHj05NTU0ee+yxNDY2ZteuXbntttuK8PKRRx5JS0tLbrnllgHD1oHOUh1MdXV1GhsbM2bMmGzbti1PP/10Xn755SPqs6mpKdOnT093d3fmzJmTlpaWbN68OT/60Y+yYsWKPP/888W2wwAAAMCpSdgKAACc9CorK7N48eI8/fTTmThxYtavX3/IbXcPnC4tGaimtHb+/PnFtVLImqTfhGwpQD1wMjbZf2brxIkTs3jx4kyYMCGdnZ2ZOXPmQetK58/W1tZmxYoVGTly5IBbEwMAAAAnP2ErAABw0ps2bVp27NiRxsbGIngd6OzTvvbu3ZtVq1YlGXjr4EPp6urK7NmzB3ztUGe2Pv3000e8/XApdAUAAABOXcJWAADgpNc3mDza81SnTp160NbBA5k/f/6Ak6h9DTZ92traeshJ22TwaVsAAADg1CVsBQAAhrWj2Z537969+cEPfnACuwEAAACGk9OGugEAAE6sCy+8MGPHjh3qNgAAAABg2BG2AgAMUxdeeGH+23/7b7n77rtzwQUXDHU7AAAAADDs2EYYAGCYufDCC3PttdfmP/7H/5hXX301STJ69Ogh7goAAAAAhh9hKwDAMHHhhRdm9uzZ+YM/+IMiZD3jjP3/uzdy5MihbA0AAAAAhiVhKwDAKe5QIWvJgZ8DAAAAAMfO37oBAJyijiRkLZkwYUJ+67d+K0ny7LPP5umnn06SjBkzJhdffHGx7vHHH8/rr7+eJJkyZUrGjRuXJNm2bVt+9atfJUnGjh2bqqqqouYnP/lJ8XFVVVXGjh2bJNm6dWu2bt2aJDn77LPzb/7Nvxmw5jd/8zdz1llnJUl+9atfZdu2bUmSc845JxdddFGS5PXXX8/jjz9e1LzjHe8otkZ++umn8+yzzyZJ3vKWt6SysjJJ8uqrr+aJJ54oai655JKMGjUqSbJly5Y899xzSZJzzz03kydPTpLs3bs3mzZtKmouvfTSYir4qaeeyvPPP58kGT9+fC688MIkSW9vb372s58VNe9+97tz+umnJ0l6enry4osvJknOO++8TJw4MUny8ssv5xe/+EVRc9lll+W0005Lkjz55JP59a9/nWT/z+03fuM3kiR79uzJP/7jPxY1pZ9nkmzevDm7du1Kkpx//vk5//zzkyS7d+9Od3f3gDXd3d3ZvXt3kuSCCy5IRUVFkmTXrl3ZvHlzkuS0007LZZddVtT84z/+Y/bs2ZMkmThxYs4777wkya9//es8+eSTSZLTTz897373u4uaX/ziF3n55ZeTJJMmTcrb3va2JMkLL7yQf/7nf06yf/L60ksvLWp+9rOfpbe3N0kyefLknHvuuUmS559/Pk899VSS5Mwzz8w73/nOombTpk3Zu3dvkqSysjJvectbkiTPPfdctmzZkmT/dtrveMc7ipqf/vSnee2115IkF110UcaPH58RI0YUv+8T75HEeyQ5Nd8jo0aNyiWXXFLUHI/3yDnnnJOkvD9Hzj777AAAAAxHwlYAgFPMiBEj8sEPfjB//Md/fNiQteRDH/pQ8Rf1999/f+6+++4k+wPb//E//kexbtasWXnllVeSJLfcckt++7d/O0myZs2afPWrX02y/y/c+9ZcddVV2bdvX5Lk1ltvzeWXX54kue+++/KNb3wjSXLxxRdn6dKlSfaHNbW1tUX9/Pnzi9DsK1/5Sv73//7fSfYHP5/73OeS7A9RZs+eXdQsWLAgU6ZMSZLceeed+fa3v50kufzyy9PY2Jhkf1Bxww03FDV/+qd/mkmTJiVJVqxYkQcffDBJ8p73vCcLFy5Msj8wmzNnTlHz6U9/OhMmTEiSLF++PI888kiS5H3ve18aGhqS7A+lbr311qLms5/9bBFiLF26ND/4wQ+SJL/7u7+bT37yk0n2hzil+iRZvHhxEaZ97nOfy2OPPZYk+b3f+73MnTs3yf5w5U//9E+LmiVLlhQ/98bGxmzYsCFJ8vu///u58cYbk+wP7D7zmc8k2R8K9f25LVy4sAja/uAP/iAf+9jHkiT/7//9vzQ1NSXZH9b0rVmwYEERZl199dX5wz/8wyTJ//2//zdLlixJsj9o7FvzyU9+sgiM/vAP/zAzZ85Mknz/+9/P5z//+ST7Q8O+NX/0R3+UZ555Jkkye/bszJgxI0mybt26fPGLX0ySvO1tb+tXc9NNN2XHjh1Jkuuvvz7//t//+yTJd7/73XzpS19Ksj9k61tz3XXXZefOnUX97/zO7yRJv6D0jXqPVFVVZdmyZUn2h6Af+chHivrbbrutCM1WrVqVtWvXJjk53iOf+cxnihBysPfIU089lXnz5hU1t99+e9761rcmGfw9snnz5vzxH/9xUfO5z30uY8aMKT4eru+R2traXHXVVUmSv/3bv80dd9yRpLz3yPjx40/Ye6ScP0c2btwYAACA4UjYCgBwitm3b1++//3vZ/Xq1Zk1a1ZqamrS29tbTKQNpLOzM9/97neTpPhL/WT/ZN3y5cuLz0vhbZKsXbs23/ve95Lsnz4r2bJlS7+aUoiU7A+cHnrooSQpJr9K9aWavuuT5Gtf+1oxLdV3Km3z5s1FTd++kuTee+8tpqX+4R/+obj+85//vKgpTX2VrFq1qghr+k7ZPfHEE0VNabqs5Mtf/nIxHdh3AnDjxo1FTWmKreRLX/pS8bPo21tXV1dRUwovSv7n//yfRSjU9/v22GOPFdOFpUm+ki9+8YsZMWJEkv4/nx/+8IfFhGVpyjDZ/33v+3MrTaUlyaOPPlr8viiFMcn+YLxvTWkKM0m+973vFT+v7du3F9dfeumlfjV977du3bri+9j3Xrt27epX88ILLxQfP/jgg0VIUwqXkuTFF1/sV1OaWkySBx54ID/+8Y+TJL/85S+L688++2y/mpdeeqn4uL29PWeddVYuu+yyYjKw1OeJeo/80z/9U3H9UO+Rr3/96yfte+Suu+466vfIX/7lXxbvkb7Tq4d6j6xYseINf4/0/b3zRr1HHn744WJyuJz3SOnrSk7Me6QUjJfzHrn44ov7TdoCAAAMFyMmT5687/DLYPi5//77kyQNDQ3FtlnA8XHnnXfm/PPPz5IlS/J3f/d3Q90ODCvNzc25/PLLc/fdd6ejoyPJ/u0tr7nmmlxzzTXp7e3NmDFjDgprFi1aVPzFOjCw+fPnZ8aMGfn2t7+d1atXD3U7MKx89KMfzY033pjOzs5iYhc4PmpqavKpT30qTz75ZP7kT/5kqNuBYeUd73hH7rjjjrz00kv9dgQBjt0555xT7A508803H/SPJ+FUctpQNwAAwLF55pln8uUvfznXXXddvvnNb+bFF188aJLswPAVAAAAADh2wlYAgGFiz549+da3vpXrr78+d999d375y18WW36+9tprQ9wdAAAAAAw/zmwFABiGHnrooTz00EP5t//236auri6nnebf2AEAAADA8SZsBQAYxn784x87qxUAAAAAThAjDgAAAAAAAABlELYCAAAAAAAAlEHYCgAAAAAAAFAGYSsAAAAAAABAGYStAAAAAAAAAGUQtgIAAAAAAACUQdgKAAAAAAAAUAZhKwAAAAAAAEAZhK0AAAAAAAAAZRC2AgAAAAAAAJRB2AoAAAAAAABQBmErAAAAAAAAQBmErQAAAAAAAABlELYCAAAAAAAAlEHYCgAAAAAAAFAGYSsAAAAAAABAGc4Y6gYAgENrampKkjQ3Nw+6prq6Oo2NjRkzZkw6OzvT3NycpqamTJ8+/YifU6pLktra2tx0002577770t7eXqyprKzM4sWLs379+rS2th50j5aWllRVVR32Wd3d3WloaDji3gAAAAAATkbCVgA4yT3wwANpbGxMfX19WltbBwxR9+7dm1WrVqW9vT0f+tCHiutHGmq2tLQUH1dWVuaqq64qgtaBAtS6urrU1dUd9OwkaWtrK4LY6urqLFiwICtWrEhXV1eSpL6+PlOnTi3jOwEAAAAAcHIRtgLASa6rqyv33Xdfrrrqqqxbty7JoUPURx555Jiet3Dhwjz22GPZsGFD7rnnnqxfv7541uEmW5P+QWzJkiVL+n3e3d19TD0CAAAAAJwMhK0AcApob2/vt53v0aqvrz8oAE36bx2c7N+yuKqqKlVVVamrq0t3d/egoepgTLYCAAAAAG8WwlYAOAVVVVWlo6PjoOsHbunb14HTsH23Di4pBa/19fWpqanJ8uXLU1tbm7lz52bkyJHFur7Tq9u2bcuiRYvS09Nz0GslJlsBAAAAgOFI2AoAJ7G+E6l9J0Y3bdqUysrKPPjgg8W1UkC6YcOGY3pmdXV1PvShD2XNmjXp6elJT0/PUU3VmmwFAAAAAN4shK0AcBJrbW1Na2trvynUioqKbN++PcuWLUtjY2NqamrS1dWV3/u938uyZcuKCdNyVFZWZsGCBdmwYUNuuummzJs3Lw8++GCqq6szYcKEAWv6bkU82DmyB35NAAAAAADDgbAVAE4h1dXVGT9+fB5++OF0dXVl9uzZaWpqypVXXpm2trZierRc06ZNy7nnnpv3ve99WbZsWbq6ulJZWZnLLrssd91110ETrqUQuLq6Oo2NjRkzZsyA9z1wG+Ek2bNnT/EMAAAAAIBTkbAVAE4hV199dXp7e7Nhw4Y0NTVl+vTp6e7uzl133ZW5c+empqam3/mpfQ10zuv27dv7fd7e3n5UWwaXlILfvlpaWtLb25vx48dnx44defHFF4sJWAAAAACA4eC0oW4AADgyb3vb23LJJZfkiSeeyIoVK1JRUZGZM2emoaEh7e3tWbBgQZLk5ptvHrC+u7s7M2fOLH51d3cP+qz6+vp0dHSko6Mj8+bNO+IeKysrc88996SjoyMbN27M1772tSQp/tvR0ZGmpqYjvh8AAAAAwMnMZCsAnMRK2/M+9thjmTZtWtasWTPo5GlPT0/mzJkz4GsDnZM60Pmq9fX1qaurK4LZZH+Aunjx4sybN2/A4HX79u2pra3N3LlzkySrVq0qeqyuri7Wlabnd+JKAAAgAElEQVRam5qa0tHRkb179/ZbCwAAAABwqhG2AsBJrLq6Oj/5yU/y+c9/vgheDzdpWjoLNRl46+DBbN++Pa2trQMGs729vYc8s/Voth+2lTAAAAAAMFwIWwHgJNY3+BzoXNRDufrqq9Pd3T3gBOuBSqHpQHp6enLrrbcO+Nrh7t3V1TXotC0AAAAAwKlO2AoAw9TRTJAeSSALAAAAAEB/pw11AwBQMmLEiKFuAQAAAAAAjpiwFYAhV1dXl//1v/5XzjrrrKFuBQAAAAAAjphthAEYMnV1dbn++utz+umnZ8yYMTntNP8GCAAAAACAU4ewFYA3XN+QtTTNum/fPmErAAAAAACnFGErAG+YgULWvk4//fQh6AoAAAAAAMojbAXghCuFrGeccUZGjx494JoRI0bkzDPPzKhRo97g7uDUYgIcAAAAAE4ewlYATpgPfOAD+fSnPz3oJGtf+/bty6pVq96gzuDU9fOf/3yoWwAAAAAA/oWwFYATpqurK1u3bk1dXV327t2bkSNHHnL9ww8/nFdeeeUN6g5OTRdffPFQtwAAAAAA/AthKwAnzEsvvZQ1a9ZkzZo1+fCHP5zZs2fnrW9966BTrvfee2+effbZN7hLOLU0NzcPdQsAAAAAwL8QtgLwhvjrv/7r/PVf/3V+53d+J9dee20uvvjinHFG/z+G9u3bN0TdAQAAAADA0RO2AvCG+uEPf5gf/vCHede73pW6urr87u/+7hFtMQwAAAAAACcbYSsAQ+KJJ57IE088kUmTJuXqq6/O1VdfPdQtAQAAAADAUTltqBsA4M1ty5YtufPOO/ORj3wkzz333FC3AwAAAAAAR8xkKwAnhddff32oWwAAAAAAgKNishUAAAAAAACgDMJWAAAAAAAAgDIIWwEAAAAAAADKIGwFAAAAAAAAKIOwFQAAAAAAAKAMwlYAAAAAAACAMghbAQAAAAAAAMogbAUAAAAAAAAog7AVAAAAAAAAoAzCVgAAAAAAAIAyCFsBAAAAAAAAyiBsBQAAAAAAACiDsBUAAAAAAACgDMJWAAAAAAAAgDIIWwEAAAAAAADKIGwFAAAAAAAAKMMZQ90AMHy0tLSkqqrqsOu6u7vT0NCQJKmtrc3cuXMzcuTIw9Zt27YtixYtSk9PT5Kkvr4+V155ZZYtW5aurq5iXXV1dRYuXJg1a9akvb293z0qKyuzePHiTJgw4bDP6+zsTHNz82HXAQAAAAAAb07CVuC4amtrS2tr66CvNzU1paKiovi8vb39oED0SFRXV6empibLli3Ljh07cs899xwUoM6bNy/z5s1LkuzZs6dY29vbm7vuuqt4bm1tba666qosXbq0CHKbmpqOuicAAAAAAODNRdgKHFd1dXWpq6s75Jru7u5jekZlZWU++clP5v7770+S/Nmf/Vm/KdbDTbaOGjWqXxBbsnLlyn6fd3Z2HlOfAAAAAADA8CZsBY6ro51sLcfChQszadKkIizt7Ow8qulYk60AAAAAAMDxIGwFjqujmWxtamrK9OnTj+r+e/fuzapVq9LQ0FAEt83Nzamvrz/ouX2nV/ueE2uyFQAAAAAAOB6ErcBxdTSTrc3NzQOuqayszOLFi7N+/fpB71VbW5tLLrkky5cvT5K0trYe8rl9mWwFAAAAAACOB2ErcNyUJkeTpKWlJRs3bkxra2sRXDY3Nw8asLa0tGT79u0Dvt73Xsn+M1mvu+66bNiwIYsWLUqSfOc738mVV16ZMWPGDHj/Ugjc09OTW2+99bBfy2B9AgAAAAAAlAhbgeOib6B6KJWVlbn99tvz3e9+t99k6fjx47N69eoBax5++OHcdNNN2b59e9rb21NdXZ23vvWtede73pUFCxakp6cn1dXVqampybJly9LV1dXveYsXLy6eM3fu3IwcOXLA5xy4jXCSbNu2LYsWLSomXgEAAAAAAEqErcBx0dzcnJaWljQ1NR12e+DNmzcXQWtlZWVmzZqVRx55pF9I2ld7e3umTp2aWbNmZcOGDUe1ZfCB9yk9t28/Tz/9dM4777wkyWOPPVbWvQEAAAAAgDef04a6AWD4WL16dS655JLU1tYO+PrNN9+cnTt39gtjFy5cmM2bNx824Gxubs7OnTtz8803F9eamprS0dGRjo6OXHHFFUfcZ3V1ddauXZsVK1bk/vvvz49+9KMkydKlSzN16tR0dHSkvr7+iO8HAAAAAAC8OZlsBY6brq6u3HDDDUkyYPh54MRrbW1tzjzzzHz1q189ovuvXr06CxYsyBe+8IVceuml6ezszMyZM5PsD1Df9773ZcmSJYPW19fXp66uLnv27Om33XDfcLh07mxLS0s6OjoOWgsAAAAAAFAibAWOWSnEPFBVVVW/6x0dHcXHpRDz1ltvLa61tLSkqqoqyf6zUtetW9fvfl1dXZkzZ86gfezateuQZ7YezfbDpdAVAAAAAABgMMJW4JiVe4bqgY4l4BwsiO3p6TlkQJscfJYrAAAAAADAkXBmKwAAAAAAAEAZhK1whN7//vfnz//8z4e6DQAAAAAAAE4SthGGw3j/+9+fG2+8MZMmTcppp/n3CQAAAAAAAOwnbIVB9A1ZR40alREjRqS3t3eo2wIAAAAAAOAkIWyFAwwUspbs27dvCDsDAAAAAADgZCJshX/RN2Q988wzB1wjbAUAAAAAAKBE2Mqb3rRp0/LpT3/6kCFryZlnnpmWlpY3qDM4dZ1xhj9eAAAAAAAY/k4b6gZgqI0YMSKvvfZav+2CAQAAAAAA4HCMHvGm9/d///f5zne+k8suuywf/ehH8/73vz+vvvrqgJN5L730UhoaGoagSzi13HnnnUPdAgAAAAAAnHDCVvgXjz/+eB5//PFMnjw5H/nIR/LhD384vb29GT169FC3BgAAAAAAwEnINsJwgKeeeipf+tKXcsMNN2Tt2rXZvXt3XnrppaFuCwAAAAAAgJOMsBUG8etf/zpf//rXc+211+YrX/lKtm7dmtdee22o2wIAAAAAAOAkYRthOAIdHR3p6OjIhAkThroVAAAAAAAAThImW+EobNu2bahbAAAAAAAA4CQhbAUAAAAAAAAog7AVAAAAAAAAoAzCVgAAAAAAAIAyCFsBAAAAAAAAyiBsBQAAAAAAACiDsBUAAAAAAACgDMJWAAAAAAAAgDIIWwEAAAAAAADKIGwFAAAAAAAAKIOwFQAAAAAAAKAMwlYAAAAAAACAMghbAQAAAAAAAMogbAUAAAAAAAAog7AVAAAAAAAAoAzCVgAAAAAAAIAyCFsBAAAAAAAAynDGUDcAnLpqa2tz3XXXZfny5enq6kpTU1OmT59+0Lq9e/dm1apVaW9vL65VV1dn4cKFWbNmTdrb21NfX5+pU6emoaHhqHpoampKRUXFIetqa2szd+7cjBw58rD327NnT5YtW5aurq6j6gMAAAAAAHjzMdkKHFfd3d2ZOXNm8euzn/1sdu/efdC66urq9Pb2ZsOGDamsrExNTU02btx41M974IEHcsEFF6S+vv6Q67Zu3Zrbbrut6KutrS3btm3rd+2uu+5Kb2/vUfcAAAAAAAC8OZlsBcrS0tKSqqqqJMmSJUvS2dmZJKmqqkpHR0e/tXv37j2ofurUqdm8eXN6enpSX1+fCRMmpK6uLnV1dQet3bZtWxYtWpQZM2YM+HqSAWs7OzvT3Nxc1tcHAAAAAABwOMJWoCwNDQ0HbSN8pOrr6/P2t789Dz/8cDHV2tbWliSpqanJokWL0tPTM2BtKXgd7PXBnH/++Vm5cuVB1w+8tmfPnqO6LwAAAAAA8OYlbAWOi/r6+n6TpW1tbZk6dWox/Vo6C3XHjh2pqakp1t18883ZuXNnWltbD7sV8EAODHwrKyuzePHibN68ud9U69atW7N06dIipK2vrz8o2C3dCwAAAAAA4Eg4sxU4JmPHjs2iRYsyZcqUdHZ2ZubMmenu7i5eb2try2233ZZnnnkmyf5w9dxzz83u3bszduzYVFRUZPXq1cX6CRMmZOXKleno6Ch+HRjCzps3L/fcc08qKyuzYcOG9Pb2prq6Okkybdq0jBs3rqzzXwEAAAAAAI6GyVagLKUzW0sTq9XV1amrqyvOay2FnaWzVEvb877lLW/JmjVr8sEPfjC7d+9OQ0NDv/sebpvgnTt3Zu3atVm4cGGmTZuW9vb27Ny5M1OnTk2SVFRUZNeuXdmwYUO/OtsIAwAAAAAAx5uwFShL3zNbk6S1tTWtra3F6y0tLdm4ceNBYWppq98PfvCDZT+7q6srO3bsyNSpU9Pe3p6NGzempqYmlZX/n707j4+qPPQ//s2+s2VB1oFELVYxYbxFtHhtKVpUbIQiUCgaMIIbqQJXNOKkiYhyC2iJLWgjiwpDMQWDFa1w6YY1tTqAtle8CjiskrAECIHMZDK/P+jML5MZ9gknHD7v18uXZuY853wTnkwi33meY1F2dra2bt0aUNamp6dr+/btAVnYRhgAAAAAAAAAAJwvylYA561r164qLCxUYmJiwONZWVkB93HdsmVLUPnanG8b4aYqKytVUlKizp07q7q6WpICCtbq6molJydrxIgR6tSpk9auXRswvuk4AAAAAAAAAACAcKFsBXDedu7cqWHDhvk/nj17tiwWi1wul9atWxew4vV0TraNsMViUWZmptavXy/pxOrWAQMG+LcSrqiokM1m0549e1RRUREwNj09nXu4AgAAAAAAAACAsIs0OgAA87DZbFq9erU+//xz7dmzR+vWrVN2drbKy8tltVrP69y33HKLJGnNmjWSTpSto0aN8hervjK2eamam5ur1NRUORyO87o+AAAAAAAAAABAc6xsBXDWLBaLiouLlZGRoS1btshqtWr69OmqrKzU7bffLunEPVulE/d2tVqtKiwsVG1trYqKis7pev3799f69euVk5OjuXPnKiYmJuSxQ4cO9W9dvGXLFlVXV2vz5s0nLVtTU1P9n4tvDMUsAAAAAAAAAAA4E5StAM6a0+lUXl5ewGPNtwpuem9Wh8MRsM2wJI0fPz7ovGVlZSG3HG5+vebbBJ+Lptdq/rkAAAAAAAAAAACcCbYRBgAAAAAAAAAAAIBzQNkKAAAAAAAAAAAAAOeAshUAcFoVFRV64YUXdOONNxodBQAAAAAAAACAVoOyFQBwWtHR0bryyis1ZcoULViwQLfddpvRkQAAAAAAAAAAMBxlKwDgtCIiIhQREaH4+Hhddtlluu+++/Tmm29q5MiRSklJMToeAAAAAAAAAACGoGwFAJy1xMREJSUlafjw4bLb7XrwwQfVtWtXo2MBAAAAAAAAAHBBRRsdADDaqFGjVFtba3QM4KIUHx8vSbr99tt155136sMPP9SKFSsMTgUAAAAAAAAAwIVB2YpL3pVXXqnOnTsbHQO4qEVFRUmS+vXrJ4/Ho7i4OIMTAQAAAAAAAADQ8ihbccmbMWOGdu3aZXQMoFVbuXLlKZ/3er368MMPtWzZMn311VeaP3/+BUoGAAAAAAAAAIBxKFtxyXO5XKqvrzc6BtCqeTwe/+rVppqXrAAAAAAAAAAAXEooWwEAp+V2uwPKVkpWAAAAAAAAAAAoWwEAZ8Dr9fr/TckKAAAAAAAAAMAJlK0AgNOKj4/X3/72N0pWAAAAAAAAAACaoGwFAJzWz372M0pWAAAAAAAAAACaiTQ6AACg9aNoBQAAAAAAAAAgGGUrAAAAAAAAAAAAAJwDthGGqcTGxioyMlJut1sej0dRUVGKiYmRx+OR2+1WRESE4uLiAsbExMQoPj7+pGMiIyMVGxsrr9er+vp6SVJcXJwiIiL8Y6KjoxUdHa2GhgY1NDSccozL5VJjY+MFGxMTE6OoqCj/GN/n19jYKJfLJenE/Tglqb6+Xl6v1z+m+dfkQo0J9eflG3M2f8bHjx8/63lxpmOYF6f+M/aJiooK+f11PtdhXly886Ilx1xK86L59xfzIiro63gxzYumY3i9MH5e+L7HIiMjFR8fz7xgXvB6EcZ5ERl54r3eERERio+PZ14wL3i9COOY6OjogO8v5gXzgteL8M2LmJgYSZLX62VeMC94vQjzvPBdy5ctPj7+rOYF0JqwshWmcdNNN2nevHmy2+169NFHNWTIED311FNatmyZZs2apaFDhyovL092u112u11er1eSVFJSIrvdroKCAv34xz9WUVGRli5dqv/+7//WsGHDdN9998lut2vJkiUaNmyY7r77br366quy2+165JFHdPfdd/vPMXPmTA0fPlwPPPCA7Ha7XnvtNQ0fPlzDhw/XokWLZLfb9fDDD2vEiBF69tlntXTpUs2YMUMjR47UI488IrvdrkWLFmnEiBEaMWKEXn/9dS1btkwPPfSQJGnChAmy2+366U9/Kknq06eP7Ha75s6d6/86vPbaa7Lb7erRo4ck6eGHH5bdbteIESMkSd/5zndkt9s1Z84c/xjf16RLly6SpMcee0x2u11Dhw6VJH33u9+V3W7X888/L+lEQe0bk5GRIUmaOnWq7Ha77rzzTknS9773PdntdhUXF0uSkpKS/GPatWsnSXr66adlt9v1wx/+UJJ06623ym636+mnn5YktW3b1j8mKSlJklRcXCy73a7vf//7kqTBgwfLbrdr6tSpkqT09HT/GN8P7Oeee052u139+/eXJA0ZMkR2u12TJk2SJHXu3Nk/xmf27Nmy2+3q27evJGnEiBH+P3NJslgsstvtev311/1jfvnLX8putysnJ0eSNHr0aNntdj3wwAOSpCuuuEJ2u12vvvqqf4xvzl599dWSpLFjx8put2vcuHGSpKuvvlp2u13z58/3jykrK5PdbteVV14pSRo/fnyLzIulS5ee87yIioqSJN19990h50VJSYkkKTEx8YznxbRp0047LwYMGCBJuuOOO8I6L3x/+T5r1izZ7XZdf/31IedFjx49znleLFiwwD/m17/+ddjmxZgxYyRJOTk5YZ0XXbt2lSQ9+uijstvt+vGPfxwwL5577rmgeXG614tQ86J9+/aSpGnTpoVtXjzxxBOSpLS0tBaZF8OHD5fdbtfEiRNbZF4kJydLkq6//vqwzYvS0lL/mMWLF5/3vPC9XvjmxY033njOP0fOZF4MGjRIkjRw4MCwzgvf/5jOmDHjnOeF7+dI83kR6ufIiy++eM7z4pprrpEk/+869913nyTp29/+dljnRc+ePSVJDz30UNjnRXR0tP/r2LFjR0nS448/HrZ54fv9ok2bNiedF507d5Yk9ezZ84znxU033SRJuuuuuwLmRZcuXcI6L/r06RP2efHyyy/7x/zmN78J27wYOXKkJOk//uM/ZLfbNXv27BaZFz/60Y9aZF74Xmd//vOfn/PrRfN5MXnyZEnhf73wzYtRo0bJbrfrwQcfbJF58a1vfUuSdP/995/zvLj22mslSe3btw96vViyZEnY58XNN9/covPiBz/4gSTp9ttvP+ufI6eaF75S+he/+EXY58Xll1/eovPinnvukSRlZ2efdl74fr9o/noRal5069ZNUvDvneczL5555hlJUkJCgn9Mhw4dwj4vnnzySUlSampqWOeF7/dO3/9v+X5H9v2OdS7zYuHChf4xv/rVr2S329W7d29J0r333hu2efHSSy/5x/j+niQc82LYsGGSpBtuuKFF5sVTTz0lu92u2267TZL0gx/84LznRdPXC19Z8+yzz4ZtXhQUFEiSunfv3iLzwvd6kZ+fL0m66qqrwvJ64ZsXmZmZkk7++8W5zIuZM2dKOvHG1TOdF+PHj5d04s0MJ5sXvtcL37yw2WySpJSUlLDOC9/vF7m5uWGbF2+88Yb/6/jCCy+02Lx45ZVXTjovfL93nsu8+MlPfiJJuu6668I6Ly677DJJ0n/913+d8vWi6e8X5zIvUlJSAuaF7/fO85kXU6ZMkSR16tQprPPCarVKkn7yk5+EnBdNf78403nR9M9rzpw5Zz0vgNaEla0wjXHjxql63z59/PHHamxsVHpGhvZWVekPf/iDvF6v0tLTFSHp/fffDxjnlRQhqbGxUalpadq1e7f27Nkjr9erDqmpAWM6pKZKktZ/8IF/TPsOHeTcvl07duyQ1+tVu/bt5fF4/GPa/ft/5P/yl79I/x7Ttl07bdu2TV9//bW8Xq/atG2r+vp6/5i2/y6d/vjHP8rT2Kie//4LbwAAAAC4mDTdlQEAAAA4H2lpaXr99df9b/4DWouIbt26eY0OAYTDa6+9pm/27vW/o9gs+vbtq9sGDVJRUZFSUlIUHx+vuro6HT16VLGxsWrbtq08Ho8OHDgg6cQPnIiICB08eFANDQ3+MUePHlVdXZ3i4uLUpk0bNTQ06ODBg5JOrPqTpAMHDsjj8ahNmzaKi4sLGuN2u1VTU6OIiAilpaUFjGnbtq1iY2NVW1urY8eOKT4+XikpKSHH7N+//0Tp3GxMQkKCkpOT5XK5dOjQIUVGRir13wV38zFHjhzR8ePHlZiYqKSkJP+YqKgo/zvJ9u3bd6IAb9dOMTEx/jG+69TX1+vw4cMBY6qrqyWdeMd9dHS0Dh8+rPr6ev91jh8/riNHjig6Olrt27eX1+vVvn37JEkdOnRQVFSUDh06JJfLpaSkJCUmJgaNaWxs1P79+wPG1NTUyO12Kzk5WQkJCTp27Jhqa2sVExOjdu3aBYxJTU1VZGRk0J9xa5oXzzzzjDp27Kg5c+Zo8+bNpp8XzccwL3i9aMl5UVBQoGuuuUavvfaa1q9fz7xgXvB6EcZ5MXLkSA0YMEDvvvuuVq5ceUnOi+ZjmBcX9+tFqDFGzYuBAwdq+PDh+uijj1RWVtYq5oXvOswL4+ZF8zHMi3ObFzk5OXrooYfkdDr17LPPMi+azItQYy7meeH78+L14sLNi+7du2vatGmqq6vTo48+GvI6zIuLe16caszZvF6EY140HxPqZ8KFnhe+MS0xLxITE/Xiiy9KOrHyuK6u7pTzonfv3po2bZpcLpd/lyWgtaBshWkMGTJEVqtVRT//udFRwqpp2QpcLObPn6+OHTtq+vTp+uSTT4yOA5hKSUmJevfurd/85jdavXq10XEAU3nooYd0yy23aNWqVQHbowE4fz/+8Y/105/+VJWVlf7t+gCER//+/TV58mR9/fXXeuyxx4yOA5jKlVdeqZkzZ+rYsWMaNWqU0XEAU2nTpo0WL14s6cSW9YcPHz7l8XFxcf7bnW3durXF8wFng22EYRpVVVVq9PLeAQAAAAAAAAAAzKS+vp6SFa0WZStMY8CAAYqNiTE6RovgPkcAAAAAAAAAgEtVRkaGRo0apYaGBr300ktGxwECRBodAAiXK664QlHRvH8AAAAAAAAAAAAzSU5O1s0336ybbrrJ6ChAEJopmIbD4VBGRobRMQAAAAAAAAAAQBjV1NSovLxcDQ0NRkcBglC2wjQ++ugj/XDQIKNjAAAAAAAAAACAMDpw4ICWLFlidAwgJLYRhmn07NlTUZEXZkr36dNHy3/7W02bNu2CXI97tgIAAABnxmazqby8XFar9YyOXbRokSwWS9DjNpvttOMtFosWLVp0Rsf6zltaWhrwWGlp6RmPBwAAAC5VSUlJ6tevn/r27Wt0FCAIK1thGrfeeqv2VlUZdv37xo3T4MGDtWjRIlWsWhXWc1O2AgAA4FKXn5+voUOHSpKqqqpUVFQkp9MZdFxJSYlsNpsKCgpOeox0oijNzMzU+vXr5XQ6lZ+fr/79+6uoqKhF8je9XmlpqbKysvzPZWVlafXq1f6Pq6qq9PLLL2vChAn+W6WsWLFCZWVlLZINAAAAaO06duyoqVOnyuVyacSIEUbHAQJQtsI0ampq5G1sNDoGAAAAgBZSV1enGTNmyOFwBJSvJzNv3rygx3ylZU5OjmJjY+VwOCRJ2dnZ/uK1JeTk5MjlcmnNmjX+0jQ/P1/Z2dmaOHFiyDEffvihrFarCgsLWyQTAAAAcLFwuVzatWuXXC6X0VGAIJStMI1ly5Zp0G23he18ffr00ZNPPKHExERJktvtPumq1dwf/UiDBw9WTEyM7r//fuXl5YV1hSsrWwEAAIBAZWVl/tKytLRU1dXVKikpCTouVKFpsVg0ZMgQ7d+/Xw6HQ7m5uerevbuysrICClzfatNTraQ9UwMHDlR9fX3AObKzs7Vp06ZzPicAAABwqdi5c6ceeeQRo2MAIVG2AiexYcMGDW+yHcEvX3xRo0eP1vYdO4KOrVi1SmlpaS22jTAAAACAk9u0aZP69+8vi8USVIiGKjRvueUWZWRk6MiRI5JOFKHbt2/3F7K+e6iGKm9D6devX8A2wNKJN2suWLBAFRUVys/PV1ZWlrZs2SKbzaZ+/fr5j2te8PqwbTAAAAAAXBwoW2EaEyZMUFV1dYud/9NPP1WnTp1a7PynwspWAAAA4OTWrFmjvn37KicnJ6Bszc3NVVxcnNasWeN/zGq1asCAAdq4caNSUlJktVqVkpKiuXPnnvP1KysrT1rMNr+e77izLXQBAACAS1lmZqZmzZoll8ulkSNHGh0HCEDZCtOIjIwM+zmnTZumftdf7//Y7Xare7duIVe3toRrrrlG+ffdp7/85S8X5HoAAADAxcjpdOqjjz7SkCFDtHHjRjmdTv9Wwc3vw9qtWzdt3LhRBw4cUHZ2thwOh/Ly8losW/PrSSe2Mc7MzFRGRkbQiljp1OUtAAAAcKmKiIhgYRJaJcpWmMayZct0ww03hO1806ZN07W9e+tpm00bNmzQtGnTdJ3VGrbzn86AAQP08EMPaf78+frDH/5wwa4LAAAAXIzKysqUnZ2tKVOmaNasWSouLtbWrVuDtuKtqKiQdOJertKJ1a/jxo1TTExM0DmbFqHnuq1v8+tJJ8rhUAWvzWbTtddeq9///vdnfR0AAADAzHbu3KmJEyfK6/UaHQUIQtkK09i/f78aw/xCW1tbqwMHDqhPn0KoYdoAACAASURBVD5KT0vT0aNHJUkHDhxQbW2t0tPS/Mfu27dPkpTW5LFzNXLkSP3w1ltVUlKiDRs2nPf5AAAAgEvBxIkTVVpaqnnz5p3x6tCKigp/IerT0lv8Wq1WFRYW6r333vMXuL6idcaMGXI4HC1yXQAAAOBi5XK5tHPnTqNjACGFf99VwCCDBg1SbGxs2M73zjvvKDk5Wb966SU9+cQTWrR4sfbv368BAwbI6XSqoqJC3bt31y9ffFGSVLFqlT5xODRkyBD9/u23NW3atHO6bkFBgfrk5KiwsJCiFQAAADgLNptNWVlZqqmpUb9+/VRaWmp0pJOaMWOG+vfvr/Lycs2ePZuiFQAAADiFjh076vHHH9ekSZOMjgIEYWUrTCMzM1N7q6rCdr4NGzZo+IgRQY/5VKxapYpVqwKenz59+jlfLz09XT/72c908MABFRYWyu12n/O5AAAAgEuFb5VoYmKiKisrdfvtt/ufKy0t1erVq1VXV9eqikxfjry8PP82xgcPHtT+/fsNTgYAAAC0TklJSbrhhhvkcrmMjgIEoWyFafz9739X165djY5xTq655hoVTJyov/71r1q8eLHRcQAAAIBWLz8/X0OHDj1lkTpx4kRJgYXsud57tek5msvIyAi4v6uP2+3WggULgrYpbsq3jbHNZlNxcbGKiorkdDrPOh8AAABgZgcOHNDSpUvl8XiMjgIEoWyFaXz88cfqeNllRsc4awMGDNDDDz2kV155Re+++67RcQAAAICLQllZ2RmXpg6HQ8OGDQsafzKh7tUa6hxn43RZW+r+sAAAAIAZ1NTU6M033zQ6BhASZStM44orrlC3rl31m1dekdfrPe3xcXFxkiSX2y1vY2NLxztljunTp+uTTz4xLAMAAABwMUhMTNT06dNVVVVl+hWgFotFxcXFysjIMDoKAAAAYLjk5GRZrVZ5PB598MEHRscBAlC2wjQGDhyodu3a6eWXX9YXX3whSYqIiAh5rNfr1Zw5cyRJzz//vKrO416vZ1LsnkpDQ4N27tx5XucAAAAAzO5sVrKagdPpVF5entExAAAAgFYhIyNDjz32mFwuF2UrWh3KVpjG1q1b1b59e23btk3btm0743G7du2i7AQAAAAAAAAAoJWqr6/Xtm3b5HK5jI4CBKFshWk888wzRkcAAAAAAAAAAABhtmvXLk2aNMnoGEBIlK0wjejoaEVERMjj8ajRwHuwAgAAAAAAAACA8ImIiFB09IlKy+12G5wGCBRpdAAgXObNm6fly5fr2muvNToKAAAAAAAAAAAIk549e2r58uV64403jI4CBKFsBQAAAAAAAAAAAIBzwDbCMI3CwkJFRkbq4MGDRkcBAAAAAAAAAABhsn37dj3wwAPyer1GRwGCULbCNKqrq42OAAAAAAAAAAAAwqyhoUF79+41OgYQEmUrTKOgoEBt2rTRkiVLtG3bNqPjAAAAAAAAAACAMLjsssuUn58vt9utmTNnGh0HCEDZCtPo3bu30tLS9Pvf/97oKAAAAAAAAAAAIEwSExN13XXXyeVyGR0FCELZCtN48803lZiYqF27dhkdBQAAAAAAAAAAhMn+/fu1ePFieTweo6MAQShbYRrvv/++0REAAAAAAAAAAECYHTp0SG+99ZbRMYCQKFthGt/97ncVHx+vDRs26MCBA0bHAQAAAAAAAAAAYZCSkqK+ffuqsbFRf/zjH42OAwSgbIVp5OXlKS0tTcXFxZStAAAAAAAAAACYRHp6uh555BG5XC7KVrQ6lK0wja1bt2r//v06evSo0VEAAAAAAAAAAECY1NfX64svvpDb7TY6ChCEshWm8dxzzxkdAQAAAAAAAAAAhNmuXbv0xBNPGB0DCImyFaaRkJCgiIgI1dfXy+PxGB0HAAAAAAAAAACEQWRkpOLj4yVJdXV1BqcBAkUaHQAIl7lz52rJkiXq3bu30VEAAAAAAAAAAECY9OjRQ0uWLNHChQuNjgIEoWwFAAAAAAAAAAAAgHPANsIwjSlTpigyMlK1tbVGRwEAAAAAAAAAAGHidDo1btw4o2MAIVG2wjQOHTpkdAQAAAAAAAAAABBmHo9HBw8eNDoGEBJlK0xj8uTJatu2rRYvXqwtW7YYHQcAAAAAAAAAAIRBp06d9OCDD8rlcmn69OlGxwECULbCNHr16qW0tDSlpKQYHQUAAAAAAAAAAIRJQkKCevfuLZfLZXQUIAhlK0zDbrcrPj5eu3btMjoKAAAAAAAAAAAIk/379+s3v/mNPB6P0VGAIJStMI1169YZHQEAAAAAAAAAAITZoUOHtHr1aqNjACFRtsI0vve97ykhIUH/+Mc/tG/fPqPjAAAAAAAAAACAMGjbtq1uvPFGeTwevf/++0bHAQJQtsI0Ro8erbS0NO3Zs4eyFQAAAAAAAAAAk0hNTdX48ePlcrkoW9HqULbCNL744gvt2bNHtbW1RkcBAAAAAAAAAABhcvz4cX322WdqaGgwOgoQhLIVpjFr1iyjIwAAAAAAAAAAgDDbvXu3bDab0TGAkChbYRpt27ZVRESEamtreXcLAAAAAAAAAAAmERUVpZSUFHm9Xh06dMjoOECASKMDAOEya9YsLVy4UNdcc43RUQAAAAAAAAAAQJhYLBYtXLhQr7zyitFRgCCUrQAAAAAAAAAAAABwDthGGKbxs5/9TJGRkTp27JjRUQAAAAAAAAAAQJg4nU6NGTNGXq/X6ChAEMpWmEZdXZ3REQAAAAAAAAAAQJh5PB7V1tYaHQMIibIVpjF16lS1a9dOCxYs0Jdffml0HAAAAAAAAAAAEAZdunTRI488IrfbLZvNZnQcIABlK0zj8ssvV1pampKSkoyOAgAAAAAAAAAAwiQuLk69evWSy+UyOgoQhLIVpvHaa68pPj5eO3bsMDoKAAAAAAAAAAAIk3379unXv/61PB6P0VGAIJStMI2//vWvRkcAAAAAAAAAAABhdvjwYa1Zs8boGEBIlK0wjVtvvVXx8fH68MMPVV1dbXQcAAAAAAAAAAAQBm3bttXNN98sj8ejd955x+g4QIBIowMA4XL33Xdr7Nix6tKli9FRLln5+fkqLy+X1Wo97bFWq1VLly5Vbm6u/7Hc3FwtXbr0jMb7zlFeXn5GN0T3HZufnx/0+KJFi874mgAAAAAAAACACys1NVVjx47VPffcY3QUIAgrW2Ea//znP5WSkqLDhw8bHQVnwGq1yuVyKSkpSRUVFYqJifE/N3369IBjV6xYobKysqBzOBwOzZgxQ4WFhcrPzw95TNPr1dbWas2aNbJYLCouLtb69evlcDjC90kBAAAAAAAAAMKurq5On3zyiRoaGoyOAgShbIVp/PKXvzQ6As5Cdna21q9fr6VLl2rp0qWyWCx66qmn9M4776iioiLgWIvFokWLFikjI+Ok5xs6dKiGDh0a8FhVVZWKiorkdDqVnZ2trVu3yul0Kjc3Vy6XS2vWrFFqamqLfH4AAAAAAAAAgPD45ptvghbpAK0FZStMIy0tTZGRkaqpqZHL5TI6Dk4hNzdXnTp10tq1a/2P5eTkSJI2btwYdLzT6VReXp5/7IgRIzRr1qygVaknK2zz8/PVvXt3//UGDhyorl27at68ef5jmv6gPtlKWgAAAAAAAADAhRcdHa0OHTrI6/Wqurra6DhAAMpWmMZzzz2ntLQ0FRcXhyzscGEkJiaGfIfRli1bNHHiRFksFg0ZMkQxMTFKT09XeXm5EhMT/cc1LUB9mq5Q3bhxo4YMGSKr1RpUtoYqbC0Wi/r37+//2Ff0vvzyy6qoqJDValVBQYHmzp3LlsIAAAAAAAAA0Ap1795ds2fPlsvl0ogRI4yOAwSgbAUQVnV1dZoxY8ZJi8t7771XLpdLe/fuVXV1tYYNG3ZWhafT6dT69euVnZ0d9NzAgQP10Ucfyel0hryedGL74k8//TRoq2IAAAAAAAAAAICzRdkK03j44YcliRtkt3JxcXFatmyZRo4c6X/MarUqIyMj5IrYUOXtmjVr1L9/f+Xn5/u3+83Pz1dKSorWrFlzyuuVlJS0xKcFAAAAAAAAAGgh27ZtY0UrWi3KVpgG92m9ODz11FOyWCwBj5WVlQXdI9VqtaqwsFCffvpp0GpXp9OplStXasyYMaqurlZ6eroGDRqkGTNmBKxqDXW90tJSZWVlBeVqWvQ23bYYAAAAAAAAAGAsr9dLB4BWi7IVpjFt2jS1b99er7zyir744guj4+As2Gw2ZWZm+gvOpkXryVai+rYBHjdunNxu9ym3Lm5q4sSJAR9zz1YAAAAAAAAAaN26dOmiSZMmye1264knnjA6DhCAshWmYbFYlJaWpoSEBKOj4CytX79eu3fv1rx58/T555/LYrGcsmiVTpSkY8aMkdvtVkxMjIqKirRgwQLuxQoAAAAAAAAAJhMXF6fMzExWt6JVomyFabz66quKi4tj69eL0Lp167Ru3TqVlZWptLRUiYmJ2r17d8hjbTab+vXrF3Qv19zcXI0bN04TJkxQZWUl92YFAAAAAAAAAJOoqqrSiy++qMbGRqOjAEEoW2EalZWVRke4pPhKz1Ca3v+0qS1btgRt49vcxIkT/dsISyfu52qxWFRcXKyMjAxVVlbq9ttvDxpXUVHhX9Vqs9m0evVq/71XAQAAAAAAAAAXr9raWv35z382OgYQEmUrTOOOO+5QQkKC/vrXv2rv3r1GxzG981k56nQ6NX78+JM+73A4NGzYsIDj8/Lyzivbya7ncDjO6twAAAAAAAAAgAurXbt2GjhwoDwej1auXGl0HCAAZStM46677lJaWpq++uorylYAAAAAAAAAAEyiQ4cOGj16tFwuF2UrWh3KVpiGw+FQmzZtdOjQIaOjAAAAAAAAAACAMDl69KgqKyvV0NBgdBQgCGUrTGPevHlGRwBMq7y8XPX19frd736nd955R/X19UZHAgAAAAAAAHCJ2Lt3r2bOnGl0DCCkSKMDAOFy2WWXqUuXLoqPjzc6CmA6iYmJat++vUaPHq3ly5dr7NixysjIMDoWAAAAAAAAgEtATEyMunTpoi5duhgdBQhC2QrTeOaZZ/TSSy+pV69eRkcBTCshIUExMTH60Y9+pEWLFunxxx/XFVdcYXQsAAAAAAAAACbWrVs3vfTSS5ozZ47RUYAgbCMMADhrcXFxkqSbb75ZN910k/75z3/qd7/7nT7++GODkwEAAAAAAAAAcOFQtsI0xo8fL0nyer1nNe7RRx/V8ePHWyISYHoRERGKiopSTk6OevXqpb179+rNN980OhYAAAAAAAAAE9m6dauGDh1qdAwgJMpWmMbZlqw+7dq186/SA3BuvF6vvF6vOnfurC5duigykl3qAQAAAAAAAITPuXYAQEujbIVplJSUqF27dvr1r3+tzZs3n/G4n//859q5c2cLJgMufqtXrz7pc8ePH1d0dLTeeustrVy5UkeOHNGNN954AdMBAAAAAAAAMLOuXbvq8ccfl9vt1uTJk42OAwSgbIVpdOrUSWlpaYqPjzc6CmA6DQ0Nio4O/JERqmQFAAAAAAAAgHCLjY1Vt27d5HK5jI4CBKFshWnMnz9fcXFx2rZtm9FRANNpWrZSsgIAAAAAAAC4kPbu3atf/OIX8ng8RkcBglC2wjQ++eQToyMAptXY2BhQsq5YsUK1tbVGxwIAAAAAAABwCTh69Kj+9re/GR0DCImyFaZx1113KSEhQX/605+0Z88eo+MAphIbG6vy8nJKVgAAAAAAAAAXXPv27TVo0CA1Njbqt7/9rdFxgACUrTCNO+64Q2lpafr8888pW4EwGzVqFCUrAAAAAAAAAEO0b99ew4cPl8vlomxFq0PZCtP4+9//rpSUFB08eNDoKIDpULQCAAAAAAAAMEptba3+8pe/cM9WtEqUrTCNsrIyoyMAAAAAAAAAAIAwq6qq0gsvvGB0DCAkylaYRrdu3RQTE6NvvvlGdXV1RscBAAAAAAAAAABhEBcXpy5duqixsVFff/210XGAAJFGBwDCxWazafbs2bryyiuNjgIAAAAAAAAAAMKkS5cumj17tmbOnGl0FCAIZStMo6GhQW63W42NjUZHAQAAAAAAAAAAYeR2u+V2u42OAQRhG2GYxoMPPmh0BAAAAAAAAAAAEGZbt27V8OHDjY4BhMTKVgAAAAAAAAAAAAA4B5StMI3nnntO8+fP11VXXWV0FAAAAAAAAAAAECbdunXT/PnzVVpaanQUIAjbCMM00tLSlJaWpri4OKOjAAAAAAAAAACAMImJiVHHjh3lcrmMjgIEoWyFacydO1exsbHaunWr0VEAAAAAAAAAAECYfPPNN5o+fbq8Xq/RUYAglK0wjc8++8zoCAAAAAAAAAAAIMzq6ur0ySefGB0DCImyFaYxbNgwJSUlac2aNdq9e7fRcQAAAAAAAAAAQBikpqZq8ODB8ng8euONN4yOAwSINDoAEC4//OEPdddddykjI8PoKAAAAAAAAAAAIEzatm2ru+66S3feeafRUYAgrGyFaXzwwQdKTk7W/v37jY4CAAAAAAAAAADC5MiRI/qf//kfeTweo6MAQShbYRqLFi0yOgIAAAAAAAAAAAiz6upqvfTSS0bHAEKibIVpZGZmKiYmRjt27FBdXZ3RcQAAAAAAAAAAQBjEx8fLYrHI6/Xq//7v/4yOAwTgnq0wjSeffFLPP/+8rrzySqOjAAAAAJes/Px8LVq0SBaLRZJksVi0aNEirV69Ouif/Px8/7jc3FwtXbpUVqs15Hmbnsdms530+jabTeXl5Sc9T/Njm2Zt+viprgEAAADgwurcubOef/55PfPMM0ZHAYKwshWmcezYMdXV1amhocHoKAAAAMAlyWq1atCgQUpMTNS8efO0ZcsWTZw4UXl5ecrPz1d2drYmTpwoSSotLT3luWw2m/r16xfwWGVlpfLy8k45rqSkRDabTQUFBSoqKpLT6Qx5nMViUWZmptavXy+n06n8/Hz1799fRUVFZ/EZAwAAALgQGhsbVVdXJ5fLZXQUIAhlK0yjoKDA6AgAAADAJctisaigoEDvvfeeHA6HpkyZorVr1/qf79y5s6qrq/3HpqSknPacvrI2lPz8fA0dOvSU4+fNmxf02IoVK1RWVqacnBzFxsbK4XBIkrKzs/3FKwAAAIDW5euvv9bo0aONjgGERNkKAAAAADhvt9xyizIyMjR06FB/CTphwgQNHDhQa9euVa9evbRs2TKVl5crMTFRVVVVWrNmjXJzczVu3DjFxMRIkqZPn66qqirt3r37lNcrKytTWVmZpBOrZKurq1VSUhJ0XPMVtdKJsnfIkCHav3+/HA6HcnNz1b17d2VlZQUUuKtXr5YkVVVVnXKVLAAAAADg0kXZCtOYNWuW2rdvrzlz5uhf//qX0XEAAACAS0pZWZk6d+6s9PR0bdq0SdnZ2Vq7dq3GjRuncePGacGCBVq1apVWrVoVMM7pdKqiokKlpaXKysqSJK1fv16dO3dWTk6Ov/BszrdCVZI2bdqk/v37y2KxBBWi2dnZ2rRpU8BjvmL4yJEjkqSBAwdq+/bt/kLWd7/WUOUtAAAAgAvPYrHIZrPJ7XbrgQceMDoOEICyFabRtm1bdejQwf+OeAAAAAAXXlZWlr80zcrK0pYtW7Rw4UJNmTJF0olic9OmTf6iVDpxr9eUlBTV1NSorKxMI0eOlBS4jXDTe6o2L1TXrFmjvn37KicnJ+C53NxcxcXFac2aNQHXGjBggDZu3KiUlBT/tefOndsyXxAAAAAA5y0qKkodOnTgnq1olShbYRpz5sxRTEyMtm3bZnQUAAAA4JK1ZcuWgJWt//mf/ymr1ap27dppwoQJkuTfrte3Pe/gwYO1e/du9ejRQzU1NRo/frxsNpvS09PP6JpOp1MfffSRhgwZoo0bN8rpdPq3Cm5+H9Zu3bpp48aNOnDggLKzs+VwOJSXl9ciXwsAAAAA4bFnzx4VFRXJ6/UaHQUIQtkK0/j888+NjgAAAACgmdjYWPXv31+VlZUqKSlRaWlpwMpWq9WqzMxMrV+/Xj169AgYW11dfcbXKSsrU3Z2tqZMmaJZs2apuLhYW7duDVhBK0kVFRWSTqyUlRR0z9immm5h3HTbYgAAAAAX1rFjx/Tpp58aHQMIibIVpvGTn/xESUlJevfdd7Vr1y6j4wAAAACXpObbCFdVVSk5OVn9+vXzl5e+la1ut1v/+Mc/9L//+78BxarFYvEXsGdj4sSJKi0t1bx58/zl7ulUVFT4C1gf7tkKAAAAtC5paWm666675PF4tHDhQqPjAAEoW2EaAwYMUFpamj7++GPKVgAAAMAA6enpqqys1O7duwO2EW66TW/zla0+ubm5/v/OyclRbGysHA7HWV3fZrMpKytLNTU16tevn0pLS/33fAUAAABw8WrTpo3uuOMOuVwuyla0OpStMI0//elPSkpK0r59+4yOAgAAAFxyrFarUlNTtXbtWv9K0aYF6tkYOHCgNm/efEZlq9VqVWFhoRITE1VZWanbb7/d/1xpaalWr16turo6zZgx46zLWwAAAACtw+HDh/Xuu+/K4/EYHQUIQtkK01iyZInREQAAAIBLltVq1ebNm1VRUSGLxaLi4mJlZGSosrLyrM8TFxenxYsXn/K4/Px8DR069JRFqm9Va9NClnuvAgAAABefffv26ZVXXjE6BhASZStMo1evXoqJidG2bdtUW1trdBwAAADgktK0wHQ6nQFbBzd1sm19m947NVQZWlZWFvB4849PxeFwaNiwYSfN2xz3agUAAABal4SEBF1++eVqbGzUv/71L6PjAAEijQ4AhMvkyZNVUlKiyy+/3OgoAAAAAAAAAAAgTDp16qSSkhLZbDajowBBWNkK0zh8+LCio6PV0NBgdBQAAAAAAAAAABAmHo9HNTU1crvdRkcBglC2wjQmT55sdAQAAAAAAAAArdiKFSu0cuVKvfPOOzpw4IDRcQCcIafTqbFjxxodAwiJbYQBAAAAAAAAAJeE+Ph4DRkyRG+88YYee+wxZWZmGh0JAHCRo2yFabz44ot6/fXX1bt3b6OjAAAAAAAAAGil4uPjJUk/+MEPVFpaqmeeeUY5OTkGpwJwKj169NDrr7+uV1991egoQBC2EYZpJCUlKTk5WVFRUUZHAQAAAAAAANDKRUaeWIt03XXXqXfv3tq1a5fefPNN/elPfzI4GYDmIiMjlZycLJfLZXQUIAhlK0xj5syZio6O1o4dO4yOAuDfvv/976tXr15GxwBMpXPnzoqKilLfvn3Vvn17o+MApnLllVcqKipK3/72tzV69Gij4wCmctVVVykqKkoWi4XvLyDMunfvrqioKKWmpvL9BZyH2NhY9ezZU4899pjGjRun8vJyffnll0bHAvBvu3fv1pNPPimv12t0FCAIZStM46uvvjI6AoBmunbtqgEDBhgdAzClvn37qm/fvkbHAEzp6quv1tVXX210DMCUevTooR49ehgdAzCltLQ0ylbgDHi9XkVERJz0+ZiYGLVp00YPPPCA/vznP5/yWAAXzvHjx7V582ajYwAhUbbCNO655x4lJyfr7bffZnUr0Eq8/fbb+uyzz4yOAZjK5MmT9a1vfUt2u11//OMfjY4DmMo999yj/v37a+3atVq+fLnRcQBTue222zRkyBBt2LBB8+bNMzoOYCrf+c53dP/992vnzp0qKSkxOg7Q6i1atOikz7ndbsXExOi9997TihUr1K5dO/Xr1+8CpgNwMunp6br77rvl8Xj08ssvGx0HCEDZCtO46aablJaWpr/97W+UrUArUVNTo6qqKqNjAKZSX18vr9erI0eO8P0FhFldXZ28Xq+OHj3K9xcQZrW1tfJ6vTp+/DjfX0CYHTp0SF6vV263m+8v4By5XC7Fxsbq3Xff1YoVK/zfS+3atTM4GQCflJQU3XLLLXK5XJStaHUoW2Eaa9asUVJSkqqrq42OAgAAAAAAAKAVarqNsK9k9a1k5Q0LQOt16NAhrVq1Sh6Px+goQBDKVpgGW70BAAAAAAAAOJWIiAhKVuAitH//fi1cuNDoGEBIlK0wjd69eysmJkZfffWVDh8+bHQcAAAAAAAAAK0QJStw8UlISNBVV12lxsZGbdy40eg4QADKVphGQUGB0tLSVFxczIstAAAAAAAAgCB5eXmUrMBFqFOnTnr66aflcrk0YsQIo+MAAShbYRr79u2T1+uVy+UyOgoAAAAAAACAVoiiFbg4NTQ0qLq6WvX19UZHAYJQtsI0nnzySaMjAAAAAAAAAACAMNu+fbvGjx9vdAwgpEijAwAAAAAAAAAAAADAxYiyFabxq1/9SsuWLdO1115rdBQAAAAAAAAAABAmPXv21LJly/T6668bHQUIwjbCMI3Y2FjFxcUpMpL3EAAAAAAAAAAAYBYRERGKi4tTRESE0VGAIJStMI3p06crKipKe/bsMToKAAAAAAAAAAAIk127dmny5Mnyer1GRwGCULbCNJxOp9ERAAAAAAAAAABAmNXX12vr1q1GxwBComyFaeTn5ys5OVkrV66keAUAAAAAAAAAwCTS09M1evRoNTQ06KWXXjI6DhCAm1vCNK6//nrdfPPNat++vdFRAAAAAAAAAABAmKSkpOjmm2/WTTfdZHQUIAgrW2Eaq1evVmJiovbu3Wt0FAAAAAAAAAAAECY1NTUqLy+Xx+MxOgoQhLIVprFy5UqjIwAAAAAAAAAAgDA7cOCAlixZYnQMICTKVphGnz59FBcXp88//1yHDh0yOg4AAAAAAAAAAAiDpKQk9e7dW42Njfroo4+MjgME4J6tMI2HHnpIU6dOVc+ePY2OAgAAAAAAAAAAwqRjx46aOnWqJk+ebHQUIAgrW2Ea33zzjerr63X8+HGjowAAAAAAAAAAgDBxu93atWuXXC6X0VGAIJStMI2nn37a6AgAAAAAAAAAzz4z6gAAIABJREFUACDMduzYoUceecToGEBIbCMMAAAAAAAAAAAAAOeAla0wjVdeeUVpaWkqLi7Wpk2bjI4DAAAAAAAAAJCUn5+v/v376/3339eIESMUExMT8rjKykqVlJQEPW6z2ZSenq6JEyee9bVzc3M1btw4vf322yorKzvtsWPGjNHrr7+uioqKgMfvuOMOPfvss3I6nWedAecvMzNTs2bNksvl0siRI42OAwSgbIVpRERE+P8BAAAAAAAAALQO2dnZ2rp1q44ePaq9e/eGLC1LS0sD/jsrKyvoPKtXrz7pNbZs2RKyjPWVpmPGjFF1dXVAiRoq5549e1RRUSGr1aopU6bot7/97Wk/P1wY/P0/WivKVphGUVGRoqKiVF1dbXQUAAAAAAAAAIAkq9Wq1NRUrV279ozHNC1Nz3RVq9VqVXl5uRITE096zIQJEzRhwoSAx3wlrcViUWZmptavX+8/3/79+1VRUaHc3Nwzzo6WsXPnThUUFMjr9RodBQhC2QrT2L17t9ERAAAAAAAAAABNDB48+JxLS6vVql69ep3R6lKHw6Fhw4ZJ+v/bFhcVFQWtoLVarSooKNDcuXPlcDj8j997771KTk6Ww+GQxWJR//79lZGREbCadt68eZIkt9utBQsWnHKVLMLL5XJpx44dRscAQqJshWk8+OCDSklJ0fLly/X1118bHQcAAAAAAAAALmlWq1XXXnut9uzZ43+sY8eO/tKyuea7Fo4dO1abN2+WdGI74JPd67X5FsIOh0MDBgxQTk5OyLL1yJEjAUWrL6fPLbfcouTkZE2bNk0Oh4N7trYCHTt21L333iu3260XXnjB6DhAAMpWmIbValVaWpref/99o6MAAAAAAAAAwCVv7NixcrlcAY/57tmamprqvydqRUVFwD1bpROrU7OysrRp0yZVVFQErSK1Wq0qLCyUJC1cuDDgOYfDoc2bNys7OztgnMViUd++ffXOO+8E5XQ6nUpNTZV04t6t7733XkAhC2MlJSXphhtuCJpPQGtA2QrTeOutt5SUlBTwLikAAAAAAAAAwIVnsVh05MgRffnll7riiiskKaA09RWbPk1Xpubm5mrQoEGqq6sLeW6bzabrrrvulFv5/v73v9eUKVOUm5vrP+bee+9VfX19UAF75MgRrV27Vvfcc09QFrQOBw4ckN1uV0NDg9FRgCCUrTCN5u9GAgAAAAAAAAAYw+l0qrCwUPn5+ZJOFKT9+vULOm7ChAmaMGGC/+MdO3YoIiJCK1as0K233qrMzMyTbiHcdGyorYTXrVunMWPGaMeOHRo8eLAyMzNVVFQUMqfVapUktWvXTosWLVJGRkbQ9Zpuf9z8emhZNTU1Wr58udExgJAoW2Eaffv2VVxcnD777DPV1NQYHQcAAAAAAAAA8G8lJSX+/7ZarSooKFBycrJqa2s1d+7coC17LRaLbr31Vm3dutW/XbCPzWZTenr6acvOsrIySdL06dNVVVWloqKi095ztaamRnl5eQGPcc9W4yUnJ6tPnz5qbGzUBx98YHQcIECk0QGAcLn//vs1adIk9ejRw+goAAAAAAAAAIAQfEXrihUr5HK5tH79ehUUFPhXloZTbm6u7rzzTtXV1al9+/aaPXt2i1wHLS8jI0OTJk1SQUGB0VGAIKxshWns2LFDR44c0bFjx4yOAgAAAAAAAABoJj8/X3feeacWLFignTt3SpKqq6s1d+5cFRYW6r333vOvRj0fpaWlysrKUlVVlQoKCvyrUfPz8zV9+nRJ0ooVK8JyLVwY9fX12rZtm9xut9FRgCCUrTCNpttQAAAAAAAAAABaD5vNpszMTH/52XSFqcPh0LBhw1RaWqrS0tKQ2wNbrVYVFhYqMTFR0omy9GTPr1ixIuQ5ysrK/AVraWmpVq9ezb1XLxK7du3SpEmTjI4BhETZCtOIjj4xnT0ej7xer8FpAAAAAAAAAAAnWz3qcDg0atSogMealp5OpzPg3qm+QvZkTvd8c80LVofDEXSvVp+KigpVVFSc8bkRfhEREYqKipIkNTQ0GJwGCMQ9W2Ea8+bN05tvvqns7GyjowAAAAAAAAAAgDDp2bOn3nzzTS1ZssToKEAQylYAAAAAAAAAAAAAOAdsIwzTKCwsVGRkpA4ePGh0FAAAAAAAAAAALim+3SfXrVsX9nNv375dDzzwALcQRKvEylaYRnV1tfbu3SuXy2V0FAAAAAAAAAAALikWi0UPP/yw3njjDQ0ZMkSxsbFhO3dDQ4P27t2rqqqqsJ0TCBfKVpjGxIkTNW3aNPXs2dPoKAAAAAAAAAAAXHISEhKUmpqqn/70p1q+fLny8vKUnp5+3ue97LLLNG3aNE2dOjUMKYHwomyFaVx77bW67rrr1LZtW6OjAAAAAAAAAABwSfJ6vUpISFBsbKzuuusuLV68WFOmTNHll19+zudMTEzUddddJ6vVGsakQHhwz1aYRnl5uRISErRr1y6jowAAAAAAAAAwiYiICAoe4Bz5thL+/ve/r+9973v69NNP9bvf/U5ffvnlWZ1n//79Wrx4sTweT0vEBM4LZStM4w9/+IPREQAAAAAAAACY0PTp042OAFzUIiIiFBERoZycHF111VXavn27oqKizrg8PXTokN56660WTgmcG8pWmMZ3v/tdxcfHa8OGDTpw4IDRcQAAAAAAAACYxMz/x969x0VZJmwcv0DOgkfAJI3S3jZ7S9yp7bVdttxWW1fdnTTLskwyVrLStmQ7YGGQUm7qllSWsWgnszJcLMkN1+3AbuTmrNZ2sAIdTVQQDUXUGQ7vH77zvAwzHNSxh55+38+nTzA898z1DPM0xMV93/PmmR0B6PTa20/V5XJp//79Wr58uT788EM999xzHb7vmJgYXXzxxWpoaNA777xzslGBgKJshWWkpKQoNjZWWVlZlK0AAAAAAAAAAqKpqUnvvvuu2TGATq+1srWurk4HDx7U8uXLVVxcLEnq1q3bcd13XFycbr/9drlcLspWdDqUrbCM8vJyVVdX69ChQ2ZHAQAAAAAAAADgB81fyXqijh49qi1btsjtdgcoHRA4lK2wjIcfftjsCAAAAAAAAAAA/KAFsmT12Llzp+69996A3BcQaJStsIyoqChJx/7CpaObagMAAAAAAAAAgJN3KkpWj+DgYEVERBiPA3QmlK2wjMcff9zYs3XTpk1mxwEAAAAAAAAA4AfjmWeeCXjJ6nHmmWdqwYIFcrlcmjBhwil5DOBEBZsdAAAAAAAAAAAAAN9vp6poBTo7ZrbCMtLT09WlSxcdPHjQ7CgAAAAAAAAAACBAnE6nbr75ZjU1NZkdBfBB2QrLqKmpMTsCAAAAAAAAAAAIsIaGBu3bt8/sGIBflK2wjLvuukvdu3fX888/r7KyMrPjAAAAAAAAAACAAOjbt69uueUWud1uzZkzx+w4gBfKVljGoEGDFBsbq5iYGLOjAAAAAAAAAACAAImMjNTgwYPlcrnMjgL4oGyFZbz88suKjIzUzp07zY4CAAAAAAAAAAACpLq6Wnl5eWpoaDA7CuCDshWWsX79erMjAAAAAAAAAACAAKupqdGaNWvMjgH4RdkKyxg2bJgiIiL00Ucfae/evWbHAQAAAAAAAAAAAdCtWzf99Kc/VUNDg4qLi82OA3ihbIVlXH/99YqNjdXu3bspWwEAAAAAAAAAsIjY2FilpaXJ5XJRtqLToWyFZWzZskW7du1SbW2t2VEAAAAAAAAAAECAHDlyRJ988onq6+vNjgL4oGyFZcyfP9/sCAAAAAAAAAAAIMAqKiqUmZlpdgzAL8pWWEa3bt0UHBys2tpa/roFAAAAAAAAAACLCAkJUXR0tJqamlRTU2N2HMBLsNkBgEBZsGCBli5dqvPPP9/sKAAAAAAAAAAAIEDOOOMMLV26VEuWLDE7CuCDshUAAAAAAAAAAAAATgDLCMMyfv/73ysoKEiHDx82OwoAAAAAAAAAAAgQp9OpSZMmmR0D8IuyFZZx6NAhsyMAAAAAAAAAAIAAa2hoUG1trdkxAL8oW2EZ99xzj3r06KH8/Hx99dVXZscBAAAAAAAAAMtJTEzUrFmztGbNGhUWFrZ6XGpqqsaNGye32638/Hzt2LFDGRkZioqK6tDj1NXVKScnRw6Hw+drNptNGRkZ+vjjj5Wdnd3m/XiOXbt2rfLy8rxunzFjhhYtWuT3MVrKzMyUpHYfr6Xc3Fz17du31XNBx5x++um6/fbb5Xa7je8F0FlQtsIyzj77bMXGxqpr165mRwEAAAAAAAAAS3I6ndqwYYMmTZqkHTt2qLq6WllZWYqPj/c6rrKyUtOmTZMk9e7dW5Lkcrn0wgsvtFnSSpLdbteECRNa/brD4VBOTo4yMjKUmprqVaK2ZLPZVFtbq+LiYiUmJiorK0slJSUBLz49993yefCYM2eOz22lpaXHXd7+UIWHh+vcc8+Vy+UyOwrgg7IVlvH8888rIiJCO3bsMDsKAAAAAAAAAFhWXl6eEhISNGbMGD333HOSpIKCglZLT6fTKZvNdtyP06dPHy1btqzVAlOSxo0bp3HjxnndVllZqdmzZ8vpdCopKUnl5eVyOp2y2+1yuVwqLi42CmB/cnNzNXDgQL9fKyoq8vq8eWHqcrn0zDPPqLCwUKmpqRo5cqQxo7XlDFtmZx6fvXv36qmnnlJDQ4PZUQAflK2wjPfff9/sCAAAAAAAAADwg+ApGBMTE497bGuzQD1LB3vs2bNHKSkpkv5/tuv8+fN9ZqW2trRxamqqzjjjDK1bt06SNHz4cPXr10+LFy82jmk+47R5Ydxy1mlubq6qqqq8bmtemDqdTk2dOlV2u12FhYXav3+/Zs6cqcmTJysjI0M5OTmaOXOmsrKy9Jvf/Eb5+fntzvDF/ztw4ICKi4vNjgH4RdkKy7jiiisUERGhDz74QFVVVWbHAQAAAAAAAIAfDH8zTKX/n2XaUvNZoFL7Swdv2rRJY8eOlc1m8ylbhwwZYhzjkZiYqOTkZONzu92uvn37Go95PHu2JiYmKiYmRps3b27zuMzMTA0ePFhZWVlyOBzGfq0bNmwwCteUlBTZbDalp6dLEoVrB3Xv3l2XXXaZGhoatGbNGrPjAF4oW2EZV199tWJjY7V9+3bKVgAAAAAAAAA4BTxL7HpmoVZXV8vlcmnTpk0655xzjGVzPcdWVVXJ6XS2uWxvRzidTpWUlCgpKcnna8OHD9eGDRvkdDqN2yZPniyXy6U9e/ZIkpKSkvTxxx+fULk5ZMgQ9ezZU8nJySouLvZ6nOY8s15tNptWrlyp2tpazZw501jCePbs2XrjjTeUl5eniRMnHneOH7LevXvrpptuksvlomxFpxNsdgAgUP7zn//I4XDowIEDZkcBAAAAAAAAAEuaPn267r//ftXW1ko6VoJFR0frww8/1Nq1azVnzhxlZmYqNzdXkryW3T1ZxcXFiomJUWpqqnFbamqqYmJifJaYDQ8P14oVK4zPs7OzTyhLYmKixo4dq40bN6q8vFyLFi2S3W5v9dhly5Zpzpw5Wrt2rVJSUoxitrCwUHa7XUlJScbH6LjDhw/L4XB4zV4GOgtmtsIyHn/8cbMjAAAAAAAAAMAPis1mM2a2Op1OFRcXKysrS9HR0V77rwaC0+nUqlWrNGnSJFVVVSkuLk4jR45UTk6Oz2zTWbNmee0n65mR21LzPVtbLnlst9s1ZcoUbd++3ShqU1NTlZaWpri4OK/7SU1N1bhx41RXVye3293qssqS9O2332rChAmaNGmS10xgtG7Xrl166KGHzI4B+EXZCsvo3bu3goODVVNTI5fLZXYcAAAAAAAAALC0Hj16KDk5WeXl5ZKkZcuWKT4+XgUFBUpISNCcOXNUWlrqd0ZpWFiY0tLSlJaWZtxWV1fX7mN6lgGeMmWK3G53h8vK6dOne33e3p6tQ4cO1YUXXqj8/HyvpYfz8vJUVVWlCRMmaNeuXaqpqTFuz8vLM/aenT9/vt/7TU1NVXJysmbPnt3qcsTwFRISop49e0oS2wii02EZYVjGI488oiVLlui8884zOwoAAAAAAAAAWN5FF10kSYqIiNDixYtVUlKiUaNGKS8vT9nZ2XrmmWc0ePBgv0vmulwuPfPMMxo1apRGjRqlZ555pkOTaGw2myZNmiS3263Q0FDNnj37lCzJW1paKrvd7neP18LCQk2cONEoWnHqnXHGGVqyZImeeOIJs6MAPpjZCgAAAAAAAAAAOiQ1NVUjR47Uhg0bdN5557U5Q7OwsNAoK202m3G70+nU1KlTWz22f//+PveVmZmpoUOHqq6uzms2q2ep37S0tFZn0X7Xunbt6rU8cUuVlZXfYRoApxplKyzjtttuU1BQkNxut9lRAAAAAAAAAMCSBg0apBdeeEGFhYVKTU3V4sWL2x1TVlampUuX+l06uDV1dXXq06ePsTRxaWmpRo0a5XNc85I2MzNTRUVFPnuvBpJnb1ZJcrvdys/P9znm0KFD7S4jjOOzdetWXXvttWpqajI7CuCDshWWwT6tAAAAAAAAAHBqzZw50/jYs09pR9hsNrlcLqOobYtn39M9e/YoJSWlw9n8zWptOYPWw+FwtHrfLfd3ba69c25e/p7IePjX1NSko0ePmh0D8IuyFZZx//33q0ePHnr22We1ZcsWs+MAAAAAAAAAAP6Pw+HQxIkTO3Rse4UlfnhOP/103Xnnnaqvr9e9995rdhzAC2UrLCMxMVGxsbGKjIw0OwoAAAAAAACAH6j4+Hj25AQCLDw8XAMHDmSFS3RKlK2wjD//+c+KiIhodTN2AAAAAAAAADhVEhMTNWHCBJ111lmaNm2a2XEAS6msrNTjjz+uhoYGs6MAPihbYRmlpaVmRwAAAAAAAADwA+MpWYcNG6bGxkZt3brV7EiA5dTW1uqdd94xOwbgF2UrLGPUqFGKjIxUSUmJ9uzZY3YcAAAAAAAAABbWsmRtampScHCwgoODzY4GWE6PHj30y1/+Uo2NjVq1apXZcQAvlK2wjLFjxyo2NlZlZWWUrQAAAAAAAABOiZYlqySvgjUoKMisaIBl9erVSzfccINcLhdlKzodylZYxr///W/FxMSopqbG7CgAAAAAAAAALKa9ktWjsbFREREROnLkiHFbeHi4cazL5TL2nQwJCVFoaKgkqampyWtMRESEUdy63W7V19dLkrp06aKwsDDjsY4ePep3TPPHCfSYyMhI4+PWzqehoUEul8vvmKNHjxrPYSDHBAUFKSIiwu+Y0NBQhYQcq0Tq6+vldrv9jjly5IiampoCPiY4OFjh4eF+x4SFhalLly6SvL/XLcccPnzY+DiQY5p/r1uOaf7abW1My9dua6/35mOaZ+yIQ4cOqbS0lD1b0SlRtsIynnrqKbMjAAAAAAAAALCYLl266M4779SIESPaLFk9Bg4cqKVLl+q6664zbsvNzVW/fv2Mj9966y1J0qWXXqr09HRJUmVlpVJSUowxTz/9tOLj4yVJ8+fP1/r16yVJI0aM0IwZMyRJ33zzjaZOnWqMyc/PV48ePSRJOTk5KikpkSSNHj1at9xyiySpvLxct99+uzHmxRdfVFRUlCTpwQcf1IYNGyRJV155pW6++WZJ0pYtW3TnnXcaY1asWGGUnbNmzdK///1vSdLVV1+tSZMmSZI++eQT3XPPPZKOlZOvv/66Mf4Pf/iDPv30U0nS9ddfrwkTJkiSNm7cqAceeEDSsTKu+Zg77rhDX331lSTppptu0tixYyVJH3zwgR566CFJUnR0tF555RVjzLRp0+R0OiVJU6dO1ejRoyVJ7777rubNmyfp2IzJF154wRhz8803a9euXZKk2267TVdccYUkad26dVq4cKEkqU+fPsrPzzfG3Hjjjdq7d68k6c4779SwYcMkSUVFRXriiSckSf369dPTTz9tjLn22mt14MABSdLdd9+tn/70p5Kkv/zlL1qyZIkkacCAAVq0aJExZty4cUapef/99+uiiy6SJL366qtatmyZJOncc8/V/PnzjTFjxowxXrfZ2dkaPHiwpGPf9+XLl0uSLrjgAuXk5Eg6VhD/9re/Ncbn5ORo0KBBkqSlS5fqtddekyTZbDZlZWVJOlbOXnXVVcaY+fPna+DAgZKOvY5Xr14tSRo6dKhmzZolSca5d9SePXuM7xnQ2VC2wjJOO+00denSRdXV1V5/RQMAAAAAAAAAJ6qhoUGrV69Wly5ddPnll6uhocGYHejPvn37VFxc7HXb+vXrjRJ027Ztxu3ffPONUUTV1tZ6jSkuLlZMTIxxnIfT6TTGtFzl769//asxG7SiosK4vby83BhTXV3tNaaoqMiYbdh8e7avv/7aGFNZWek1Zs2aNUbhXFVVZdz+5ZdfGmOaP74k43bp2HPk8fnnnxtf27Fjh3G753n3aH6un376qfE9aP58ulwurzEHDx40Pv7444+NWZFff/21cfvhw4e9xtTV1Rkfb9682fhd85dfful1TPMxzWeCOhwOo0j87LPPvLI0H9N8Bu9HH31klLWeEtpzzs3HeGaVStKHH35oPMeff/65cfu+ffu8xnhmz0rHimnP89X8fPbu3WuMaX68JJWUlBglt+ff0rHXhGeMZ/aux7vvvmucx9atW43bd+/ebYxpbGzUr3/9a3VUaGio8ccHO3fu7PA44LsQ1L9//6b2DwM6v2effVaxsbHKysrSpk2b2j3es6779OnTvX5YAXDynn76afXp00dz5szRxo0bzY4DWEp2drYuuOACPfvssyoqKjI7DmApt956q0aMGKHVq1dr6dKlZscBLOWqq67SDTfcoNLSUmYkAAGWnJysmTNnatu2bV6zzgCcvHPOOUfz5s3T4cOHNXHiRElSXFycRo8erSuvvFINDQ2KioryKac2b96s++67z4zIwPdGt27d9Nxzz0mSJk+e3O5M1wEDBmjBggVyuVzGTGigs2h9rQMAAAAAAAAAAGCoqqrSsmXLdM011+jFF19UdXW110xISewpCQA/MCwjDMvw7E3Q8i/JAAAAAAAAACCQXC6XVq1apVWrVunyyy/X1VdfrdNOO03h4eFt7ucK4MSUl5dr3LhxZscA/KJshWVQsgIAAAAAAAD4rq1fv17r16/XhRdeqPHjx6tnz55mRwIsiQ4AnRVlKywjOztbPXr00JNPPqktW7aYHQcAAAAAAADAD8jGjRu1ceNGhYTwa3cg0Pr166e7775bbrdbM2fONDsO4IX/6sMy+vbtq9jYWEVGRpodBQAAAAAAAMAPVH19vdkRAMsJCwtT//795XK5zI4C+KBshWU8/fTTCgsL09atW82OAgAAAAAAAAAAAmTPnj364x//yFLC6JQoW2EZGzduNDsCAAAAAAAAAAAIsEOHDumDDz4wOwbgF2UrLMNutysqKkp///vftXv3brPjAAAAAAAAAACAAOjZs6dGjhyphoYGvfrqq2bHAbxQtsIyxowZo9jYWH3++eeUrQAAAAAAAAAAWETPnj11zTXXyOVyUbai06FshWVs2LBBMTEx2r9/v9lRAAAAAAAAAABAgNTW1ur9999XfX292VEAH5StsIxnn33W7AgAAAAAAAAAACDAKisrtXDhQrNjAH5RtsIy+vfvr5CQEO3evVuHDx82Ow4AAAAAAAAAAAiAsLAwnX766WpqatK2bdvMjgN4CTY7ABAomZmZWrhwoX70ox+ZHQUAAAAAAAAAAARIv379tHDhQs2bN8/sKIAPylZYRn19verr69XY2Gh2FAAAAAAAAAAAEECeDgDobFhGGJYxbdo0syMAAAAAAAAAAIAAKy8v19VXX212DMAvZrYCAAAAAAAAAAAAwAmgbIVl5OTkaPHixRo0aJDZUQAAAAAAAAAAQID0799fixcv1qJFi8yOAvhgGWFYRlxcnGJjYxUeHm52FAAAAAAAAAAAECChoaE67bTT5HK5zI4C+KBshWXk5uYqLCxM5eXlZkcBAAAAAAAAAAABsnv3bs2dO1eNjY1mRwF8ULbCMj7++GOzIwAAAAAAAAAAgACrq6vTRx99ZHYMwC/KVljG+PHj1bVrVxUXF6uiosLsOAAAAAAAAAAAIAB69+6tMWPGqKGhQS+++KLZcQAvlK2wjF/96leKjY3V5s2bKVsBAACAAElNTVVSUpKmT5/e6jGJiYnKyspSfHy8ysrKNH36dGVmZmro0KEdfpzS0lJlZ2d73V9JSYny8vKMHOPGjfMZV1lZqdmzZ8vpdPod15Inl79x5eXlRobmx8fFxfk9/9YytVRXV6ecnBw5HI52jwUAAADgq3v37rryyivlcrkoW9HpULbCMv7xj38oOjpa+/btMzsKAAAAYBnFxcVKTk5WZmamsrOzWy0YCwoKlJeXJ5vNpsTEREkyitf25Obmen0+efJkxcfHa9y4cfrNb36j/Px85eXlqbi4WLNmzdKaNWtUWFgou92u0aNHt3q/drtdU6ZMUWhoqHFbZWWlpk2bJqfT6fV4nqK1tfMrKioyPm5eDLc8x9zcXG3evNkoe202m2bMmNHucwAAAACgdQcPHtTf/vY3NTQ0mB0F8EHZCstYtmyZ2REAAAAAy3E6nVq0aJFmzJghm80myXs2aUsnO3szNTVVAwYM0LRp0zR58mTFxcWpsLBQ0rGlw8LCwrRjxw5JUlxcnMLCwtq8v0OHDmn+/Pmt5kpNTTVmrnpmsY4aNcr4elszWyVp4MCBXkWs57bmhW1dXV37Jw4AAACgVVVVVXriiSfMjgH4RdkKyxgwYIBCQ0O1Y8cOfpkBAAAABJDD4VBKSookGYXr8WhttmjzGaLSseWDk5OTFR8fr8WLFxu3FxYWKj8/X8OHD1d5ebnGjBmjOXPmSDo2o1Y69seX8fHxkmTMiP3HP/7RZi673a7f/OY3Cg0NVVFRkbHc7/FgZisAAABw6kVERCgxMVGNjY366quvzI4uvis4AAAgAElEQVQDeKFshWXcd999io2NVVZWljZt2mR2HAAAAMCyWpahzXmWE27JXynZkmcWbXp6ut58800NGzZMa9as0fDhw5WWlqaysjKfPVU9UlJSvErd7du3a8uWLfrZz35mFLP+MtntdtlsNqWnp+uVV15RdXW1V3Hr4Zm96na7lZ+fb8y2ZWYrAAAAcOolJCTokUcekcvl0oQJE8yOA3ihbIVlHD58WHV1dazZDgAAAARI8z1Pm89C/eabbxQWFmbsc+o5dsKECSe9jLAkhYWF6YYbbpAkpaWlye1265lnnlFSUpJyc3O1bt06jR49WnPnzvVaynjQoEGqq6vT2rVrlZCQoNGjR3stI9y8VPWUpZJ000036YsvvjBu88zi7QhmtgIAAACnXlNTk+rq6uRyucyOAvigbIVl8AsMAAAAILAKCwtVWFiozMxM47aEhAQdPXpUc+fOVVZWllauXKm1a9dq5MiReuGFFwJStrpcLhUUFBgzWy+99FJ17dpVAwYMUHx8vAYOHChJxuzagoICVVVVKSwsTLW1tZKk7OxsowBui+fc4uLiVFRUpLKyMlVVVWno0KF+j2++X62/GbwtNV+CGQAAAMCJ2bp1q66//nqzYwB+UbYCAAAAADokMTFRAwYMUElJiZxOp9fSvaWlpV6zRQPt/PPPV3R0tO6//37179/fZ2Zrbm6uvvrqK589ZWtra1VdXd3m+cTHx6ugoMCYoZqZmemzn6x0bO/Z5ORk4/E8pW9LLZcR9mhtiWUAAAAAwPcXZSss49FHH1WvXr20cOFCffrpp2bHAQAAACxnxIgRio6OlsPhMErWyspKzZ8/X7feeqtWrlypnJwcv7Nb/e1tWlVV5fdx/C0jvGfPHkVFRXntv+qZ2bpjxw5VV1erpKTEq2xNSkrS0aNHvZYabs5TGJ+I5ksHS/9fxLpcLu3du1exsbE+yxwDAAAAODGJiYnKzMyU2+3WLbfcYnYcwAtlKyyjR48e6tWrl0JDQ82OAgAAAFhORESEkpOTtWHDBmVkZKi2tlbTpk0zysT169crNzdXN910k9+y1d/epv70799fLpdLTz31lK699lpjGeH33nvPmDlrt9v97tmamJjo9bFnFm57bDabMjIyFBUVpcrKSlVUVOjIkSMdel4yMzM1dOhQlZWVKSUlRbm5uSovL9eHH36oRYsWaf/+/caywwAAAABOTJcuXdSrVy/2bEWnRNkKy1i4cKFCQ0O1detWs6MAAAAAlpCYmKisrCxVVFQoISFBJSUlbS6D23K2p4e/Ma0dm5SUpOrqaq1fv17r16+XJF166aXHnX3EiBGSpOLi4laP8ZSskrxm5HoK1JYzcaVje7YmJCQoKytL8fHxKi0t1ahRo3yO8+x3a7fbtWjRIoWGhvpdmhgAAABA+3bv3q3Zs2erqanJ7CiAD8pWWMbnn39udgQAAADAUoYMGaLq6mplZGQYxau/vUibc7vdys/Pl+R/6eDWVFVVKTExUXFxcVq6dKkkGUsV19XVaceOHR3OHRUVpfPPP1+rVq1qc0apw+HQ+PHj/X6trT1bKyoqOrz8sKd0BQAAAHDi6urq9PHHH5sdA/CLshWWcd1116lr16566623tHPnTrPjAAAAAN97zYvC493fNCkpyWfp4NZ4lhR2Op1ex+fl5fmdFdtagdleRofDoYkTJ7abp7XZp63laa4j5wsAAADg+MTGxurKK69UQ0OD8ceZQGdB2QrLuPzyyxUbG6uPPvqIshUAAAAw2fEsl0tBCQAAAKAt3bp10+jRo+VyuShb0elQtsIy3nnnHUVHR2vv3r1mRwFwnJKSkjRx4kQ9+OCDOnz4sNlxAAAAAAAAAHQiBw4c0Nq1a9XQ0GB2FMAHZSss46WXXjI7AoDj5ClZzz33XIWGhio4ONjsSAAAAAAAAAA6mb179+qZZ54xOwbgF2UrLONHP/qRQkNDtW3bNtXW1podB0AbWpasHpStAAAAAAAAAFqKjIzUwIED1djYqM8++8zsOIAXylZYRnp6umJjY5WVlaVNmzaZHQeAH62VrB5dunQxIRUAAAAAAACAzqxv37566KGH5HK5NGHCBLPjAF4oW2EZBw8eVGhoqOrr682OAqCF9kpWD8pWAAAAAAAAAC01NDSopqZGLpfL7CiAD8pWWMZdd91ldgQALQwYMEDXXHNNuyWrx4wZMxQbGytJevXVV/Xuu+9Kkmw2m26++WZJx/6w4t577zXGPPjgg4qLi5N0bO/mf/7zn5Kk//mf/9GNN94oSaqurlZmZqYxZs6cOerZs6ckadmyZfrXv/4lSfrZz36miRMnSpJ2796thx56yBgzb948RUdHS5KeffZZYwb9L37xC40fP16S9M033+jhhx82xixYsEARERGSpMWLF+s///mPJOmKK66Q3W6XJG3dulXz5883xuTm5hrLKS9atEhbtmyRJI0aNUqjR4+WJH355Zd6/PHHJR1bejk3N9frMcvLyyVJdrtdV1xxhSTp008/1VNPPSVJCg8P18KFC40xjzzyiHbs2CFJGj9+vH7xi19IkjZv3qwlS5ZIkqKjozVv3jxjzEMPPaTdu3dLkq677jolJydLkj766CMtXbpUktSjRw/NnTvXGDN79mzt3btXkjRp0iQNHTpUkvTBBx/oxRdflCTFx8dr9uzZxpiMjAzV1NRIkqZMmaILL7xQkvTee+/plVdekSQlJCRo1qxZxpg//OEPqqurkySlpaVp8ODBkqS//e1vKigokCQlJibq7rvvNsb8/ve/l9vtliTdfvvtGjRokCTpr3/9q1avXi1JGjhwoNd7zW233WZ8fOedd+rss8+WJL3xxhtau3atJGnQoEG6/fbbJUn19fW64447vHKeeeaZkqRVq1Zp3bp1kqQLLrhAt9xyiyTp8OHDSk9PN8bMmjVL//3f/62wsDD913/9l3F782vkwIEDuu+++7ye9/j4eEnS8uXL9Y9//EPSyV8je/bsUXZ2tjHmkUceUUxMjKSTv0ZGjBihK6+8UlLgr5GFCxeqrKxMkvTb3/5Wv/rVryRJn332mZ588klJJ3aNdO3aVX/84x+9nsNdu3ZJCuw1EhcXpwcffNAYE8hrZP369Xr99dclSWeccYbuueceY8yJXCO33367mpqajPGe1+ybb76pt956S9LJXyNHjhzRzJkzvZ6P008/XVLr7yNtXSP79u0zbr/44os1efJk4/YHHnjA+Fpr10hycrKuu+46SW1fI3l5efr3v/8tSRo2bJiuvvpqSdLOnTuVk5NjjDmRa2TRokXGHy/l5ubqiy++kBTYayQsLEx/+tOfvM7tZK6Ra6+9Vj//+c8lSRs3blR+fr4kqXv37l7Px8leIzfddJMuuugiSdL777+vFStWSArMNXLnnXcav/S57bbbdN5550k6+Wvk3HPP1fTp0yUd++XSjBkzvHKezDXy2muv6Z133pEk/fjHP1Zqaqok35+1Wnsfaesaeeihh9SrVy9J0nPPPacNGzZIOvaHdRdddJGefPLJTneN/PrXv9aYMWMkSV999ZUee+wxSVJQUJCeeOIJr8f0/KzV0Wtk3rx52r59uyTpqquu0uWXXy5J+vjjj419xzp6jTR/H2l5jTz44IOqqqqSJN1www265JJLJJ38NdK3b1/df//9xpi7775bhw4dkhTYa2TAgAFer9eTvUbS09N11llnSZL+8pe/qLi4WJJ0/vnna9q0aZICc41kZmaqT58+kk7+Gmn+s1ZlZaWysrKMMW1dIykpKQoLC1NCQoKaa36NPP300/rkk08kScOHD9fYsWMlSdu2bdOjjz5qjDnZa+RE3kc6co1ERUV55Zw7d64qKioknfw1UlpaqhdeeEGSjBXTPFr7Wauj18jUqVOVlJQkSfr73/+ulStXSpL69+/v9To6kfeR6dOnq7GxUZJ0xx136JxzzpHUua+Rl19+WSUlJZKkn/zkJ0pJSZEk7d+/3+s5PJFr5OGHH1a3bt0kSX/+85/lcDgkSZdddpmuueYaSW2/j7R2jTT/+RCAuZxOp/HfDaCzoWwFAJxSR48eNWadh4S0/bbT0NCghoYGSTL+p1GSmpqajNtbzl6vr683vub5ZYxnvOd2z7/9PU7zMc2P7eiYjj5O8/Npa0x9fb3xy43WHqf5ffm7j+Md05Hzaf49aKn5efp7Dtp7nNa+1x09n5ZjTvZxOvI6bKm112Fbr92OZPP3+vDcf2uPcyKvQ3+vD3/n2tHzOdlr8USukebZOvp6b+156+hrqqOv9xN5TQXymg/E9dvamI5m68j3+kSukZZjTvQ11d7129Zrt7XMHb0WT/Z8Wn4Pmt/HibyPHM9z4M/Jvid09HFa+29OW6/3jl7zrZ3Pyb6PnOz5tPX6OJHX1PG89xzvNdLW+XjGnch7won8HNjRa6Sj7yPNdfQaCeTPWs2zBQUFdej6besaCQoKajdbW+dzstdIaz+Lt3Qi18iJvI80f0119Bpp7Xzae02dzDXf8jXluf+Wz+eJ/L9SIK+RE3lNnezrsK3X1Mmez8m+3k/kvbSj73Gn6hrp6HvCifwM1PzYQLwnBPI9rq33EQAA/Anq379/U/uHAZ3fY489pl69eunRRx81/hKtLatWrZJ07C8Bv/nmm1MdD/hBefrpp9WnTx/NmTNHGzdu1Jlnnqkrr7xSV1xxhY4eParw8HC/42688UZjxgoA/7Kzs3XBBRfo2WefVVFRkdlxAEu59dZbNWLECK1evdqYFQMgMK666irdcMMNKi0t9VotA8DJS05O1syZM7Vt2zbdeeedZscBLOWcc87RvHnzdPjwYWNWLYDA6Natm5577jlJ0uTJk3XgwIE2jz/zzDOVnZ0tt9ttrFwEdBbBZgcAAqVr166KiYlhz0egE9q2bZsee+wxXX/99Xr99dd1+PBhY3m+5lr+FTIAAAAAAAAABAcHKyYmxtjmC+hMWEYYljFv3jyFhIQY+0UB6Hz279+vF198UcuXL9eYMWN01VVXKTo6WpGRkZK8lzEDAAAAAAAAAEmqqKjQfffdZ3YMwC/KVljG119/bXYEAB3U2Nio1atXa/Xq1br00kt19dVXq3///mbHAgAAAAAAANAJHTlyRF988YXZMQC/KFthGTfeeKOio6P1xhtvMLsV+B5577339N5776lXr17t7s0AAAAAAAAA4IcnLi5OV199terr67VkyRKz4wBe2LMVlvHzn/9cI0aMUO/evc2OAuAE7Nu3T/X19WbHAAAAAAAAANDJxMTEaMSIEfrlL39pdhTABzNbYRnFxcXq2rWrqqqqzI4CAAAAAAAAAAACpKamRqtXr2ayBjolylZYxquvvmp2BAAAAAAAAAAAEGDV1dVaunSp2TEAvyhbYRnnn3++wsLC9PXXX7PvIwAAAAAAAAAAFhEZGalBgwapsbFRmzZtMjsO4IU9W2EZd9xxhx544AENGDDA7CgAAAAAAAAAACBA+vbtqwceeED33Xef2VEAH8xshWVUV1erqalJLpfL7CgAAAAAAAAAACBA6uvrVVVVxe//0SlRtsIy7r33XrMjAAAAAAAAAACAANu+fbumTp1qdgzAL5YRBgAAAAAAAAAAAIATQNkKy3jyySe1YsUKDR482OwoAAAAAAAAAAAgQM466yytWLFCzz//vNlRAB8sIwzLCAsLU3h4uIKD+RsCAAAAAAAAAACsIigoSOHh4QoKCjI7CuCDshWWMWfOHIWEhKiiosLsKAAAAAAAAAAAIEB27typ9PR0NTY2mh0F8EHZCstwOp1mRwAAAAAAAAAAAAF29OhRlZWVmR0D8IuyFZZx8803Kzo6Wn/5y18oXgEAAAAAAAAAsIi4uDhNnDhRDQ0NeuKJJ8yOA3hhc0tYxtChQzVs2DD17NnT7CgAAAAAAAAAACBAYmJiNGzYMP385z83Owrgg5mtsIy33npLUVFR2rNnj9lRAAAAAAAAAABAgHz77bd6/fXXVV9fb3YUwAdlKyyjoKDA7AgAAAAAAAAAACDA9u3bpxdffNHsGIBflK2wjB//+McKCwvTF198oZqaGrPjAAAAAAAAAACAAOjatavOP/98NTY26l//+pfZcQAv7NkKy7j11lt177336qyzzjI7CgAEXGZmplJTU1v9Wm5ubofvy263a/ny5bLZbMrMzNSyZcuUmJgYqKgAAAAAAABAQPXp00f33nuv0tPTzY4C+GBmKyxj9+7dOnr0qI4cOWJ2FAAIuDfffFMZGRmSpISEBA0dOtTnmKKiIuPjyspKzZ49W06ns837LSkpkSRlZWW1evyCBQv03nvvqbCw0LgtMzPTJ0NBQYHy8vKMrw8ePFg5OTlyOBwdPEsAAAAAAADAl9vt1s6dO+VyucyOAvigbIVlPPDAA2ZHAIBTxuFw6IUXXtDo0aM1d+5cZWdnG1/LzMxUXFycpk+f7jXGbrdr0aJFCg0N9Xufc+bM8fp88eLFqqur8ypI7Xa7zj77bNXU1HiVrZK8jrXZbMrIyFBCQoJXNgAAAAAAAOBk7dixQ7fffrvZMQC/KFsBAPieKCwsVGFhoWw2mxYsWKCoqCivrzef2VpaWqrs7GyfglQ6VqBOmDBB8+fPb3fWaVJSkkJDQzVgwAAlJia2OlPW4XBo165diouLO4EzAwAAAAAAAIDvJ/ZshWUsWbJEBQUFSkpKMjsKAARUamqqioqKVFRUpNTUVDkcDo0fP16jRo3SqFGjVFpaqrKyMuPzUaNGGbNLExMTtWzZMmVmZnrdZ9euXTVmzBivx2i5d6vNZtPgwYP1zjvvKDo6WiNGjPhuThgAAAAAAABoZsCAASooKNDLL79sdhTABzNbYRlBQUHGPwBgJXl5ecrLy1Nubq569eqllStX+sxqlbxntrrdbuXn56uwsFApKSnKzc1Vbm6u11LDF154oSZOnKgrrrhCPXv21BtvvOF1fzabTbW1tXrllVfUv3//Nv+YxWazqW/fvlq7dm0AzhgAAAAAAADwFhQUpOBg5hCi86FshWXMnj1bXbp0UVVVldlRAOCU2bdvn8aPH6/c3FxVVVX57I/a2hLBLfdzPXTokHbt2qUbbrhBZWVlSklJ8fp6YmKikpOTVV5eLqfTqc2bN2vkyJGy2WzG/UZFRXnt+1pQUKC8vLxAnzIAAAAAAAB+4L755hvNmDFDTU1NZkcBfFC2wjIqKirMjgAA36mhQ4d6zWb1qKur83t8YmKisrKyFB8fr7q6Or300ksaM2aMLrzwQtntdq/9XYcMGaLo6Ght3rxZ0rE9WUeOHKkxY8YYZWtdXZ1ycnLa3fcVAAAAAAAAOBkul0s7duwwOwbgF2UrLOOWW25Rt27d9Oqrr2rbtm1mxwGAU660tLTVma3Npaamaty4ccbSwpKMY7Kzs5Wamqq0tDQNHz7cmAE7fPhwRUVFKS0tTWlpacZ9DRgwwGtfVwAAAAAAAOBU69OnjyZPniy3260//elPZscBvFC2wjIuvPBCxcbG6u233zY7CgCcMlFRUcrJyVF4eHi7M1vtdrumTJmi7du3a9SoUcbX7Xa71/HN94RduXKlXn31VfXt29dnWWC73a5JkyZpyJAhp+jsAAAAAAAAAF9du3bVJZdcIpfLZXYUwAdlKyyjsLBQUVFR2rVrl9lRACDgEhMTFRMTo5EjR6qgoEAxMTHtzmwtLCz0Whq4PZ5ZrZmZmZLkszzwpk2bNHbsWA0fPpz9sQEAAAAAAPCd2b9/v15++WU1NDSYHQXwQdkKy3jzzTfNjgAAp0zv3r0lSffff78cDodyc3O9vp6bm6uBAwdKksrKyvzuo9qRYyT5FLgeTqdTKSkpHcrb2n0AAAAAAAAAx2v//v169dVXzY4B+EXZCsu4+OKLFR4erk8++UTffvut2XEAIKAcDodX0emZhdra5/505BgAAAAAAACgs4mOjtaPf/xjNTQ06J///KfZcQAvwWYHAALld7/7ne666y6deeaZZkcBAAAAAAAAAAABEh8fr7vuukt33HGH2VEAH8xshWXs2LFDBw8e1OHDh82OAgAAAAAAAAAAAuTo0aPaunWr3G632VEAH5StsAz2BwQAfB8VFBRo7969Wrlypd5++22z4wAAAAAAAHQ6O3fu1F133WV2DMAvlhGGZXTp0kUhISEKCgoyOwoAAB0WHh6ufv36aerUqVqxYoXGjx+vqKgos2MBAAAAAAB0GkFBQQoJCVFICHMI0flQtsIynn76ab322mtKSkoyOwoAAMctKipK3bp103XXXacVK1bod7/7nU477TSzYwEAAAAAAJjurLPO0muvvaaXXnrJ7CiAD8pWAAAAE7VckSEyMlIhISEaM2aM8vPzdd999+ncc881KR0AAAAAAACAtjDfGpaRkZGhLl26aP/+/WZHAfB/fvvb3+qSSy4xOwbwvRQaGipJuvTSS3XJJZdoy5Yteu2110xOBQAAAAAA8N3bvn27pk2bpqamJrOjAD4oW2EZVVVVZkcA0EL37t31k5/8xOwYwPdaU1OTQkJCdM4552js2LGKiIgwOxIAAAAAAMB3qr6+Xrt37zY7BuAXZSssY/r06erWrZuWL1+urVu3mh0HgKSXX35ZDofD7BhAp7Zy5UpjFqs/brdbn332mZYvX65PPvlE2dnZ32E6AAAAAAAA85122mm6+eab5Xa79cc//tHsOIAXylZYxuDBgxUbG6s1a9aYHQXA/6mvr5fb7TY7BtCp1dfX+y1b3W63Pv30U7388sv65JNPTEgGAAAAAADQOURFRemiiy6Sy+UyOwrgg7IVlrFy5UpFRUWpoqLC7CgAAHRYy71GKFkBAAAAAAC8VVdX6/nnn1d9fb3ZUQAflK2wjL/+9a9mRwAA4LiFhBz7cYySFQAAAAAAwL+amhqtWrXK7BiAX5StsIyf/exnCg8P16ZNm7Rv3z6z4wAA0CFhYWHatGkTJSsAAAAAAEArYmJi9JOf/ESNjY165513zI4DeKFshWWkpKQoNjZWWVlZlK0AgO+Ne+65h5IVAAAAAACgDXFxcZo+fbpcLhdlKzodylZYRnl5uaqrq1VXV2d2FAAAOoyiFQAAAAAAoG1Hjx7Vli1b2LMVnRJlKyzj4YcfNjsCAAAAAAAAAAAIsJ07d+ree+81OwbgF2UrLCMyMlJBQUE6evSoGhoazI4DAAAAAAAAAAACIDg4WBEREWpqatLhw4fNjgN4CTY7ABAoixYt0ksvvaQLLrjA7CgAAAAAAAAAACBAzjzzTL300ktatmyZ2VEAH5StAAAAAAAAAAAAAHACWEYYlvGHP/xBwcHBOnjwoNlRAAAAAAAAAABAgDidTt18881qamoyOwrgg7IVlvHtt9+aHQEAAAAAAAAAAARYQ0OD9u3bZ3YMwC/KVljGXXfdpe7du+v5559XWVmZ2XEAAAAAAAAAAEAA9O3bV7fccovcbrfmzJljdhzAC2UrLGPQoEGKjY1VTEyM2VEAAAAAAAAAAECAREZGavDgwXK5XGZHAXxQtsIyXn75ZUVGRmrnzp1mRwEAAAAAAAAAAAFSXV2tvLw8NTQ0mB0F8EHZCstYv3692REAAAAAAAAAAECA1dTUaM2aNWbHAPyibIVlXHbZZYqMjNRHH32kvXv3mh0HAAAAAAAAAAAEQLdu3fTTn/5UjY2Nevvtt82OA3ihbIVl3HDDDYqNjdXu3bspWwEAAAAAAAAAsIjY2FilpaXJ5XJRtqLToWyFZXz55ZfavXu3amtrzY4CAAAAAAAAAAAC5MiRI/rPf/6j+vp6s6MAPihbYRmPPvqo2REAAAAAAAAAAECAVVRU6IEHHjA7BuAXZSsso1u3bgoKCtKhQ4f46xYAAAAAAAAAACwiJCREXbt2VVNTkw4cOGB2HMALZSssY8GCBYqNjVVWVpY2bdpkdhwAAPAdstlsSk9P1yuvvKLCwsJ2j7fb7ZowYYJqa2u1Zs0aY0x795Oamqrk5GTNnj1bTqdTiYmJysrKUnx8vM+xBQUFysvL8zvOX/6MjAxFRUX5jBs5cqRycnLkcDg6fL65ubkaOHBgu89DWVmZpk+f3u5xAAAAAACY6YwzztCCBQvkcrk0YcIEs+MAXihbAQAA8L1jt9s1ZcoUhYaGet2elpamtLQ0v2Pcbrfy8/NVWFiopKQkVVdXa+nSpZoxY4YOHjyoG2+80ShN09LSNHbsWDkcDtlsNs2ePVu9e/fWyJEjFRUVpcWLFxtFZUpKilJTU5WUlGQUl7m5uW3m91eGNi9ZpWOFanJysnJyclRdXa1ly5b5lLrNz7eurs6rlG1+fzabTTNmzNCiRYuMr3syAwAAAAAA4MRRtsIyfv/73ys4OFh1dXVmRwEAAKdYYWFhh2ejtpSYmKgBAwaopKREDodD5eXlSk5OVkpKitd9SdKECRM0f/58SdKMGTO0du1aORwOpaena926dcZ9JiQkqKqqyrj/mJiYdnOUlpYqOzu71Yy33HKLVq1aJUl6+OGHvc6vI+c8btw4jRs3zuu2OXPmeH1eVlbWbk4AAAAAAMzmdDp14403qqmpyewogA/KVljGoUOHzI4AAABMMGbMGFVXV3eoaJWkIUOGKDo62ihH/RWeP/rRjzRkyBDNnz9fDodDqampio+P9yow09LSNHz4cK1bt07nnnuuVqxYoZUrVyoqKkqVlZUqLi5WamqqV+HpmRHbnvT0dPXr18+YtVpaWtrh8/NgZisAAAAAwCoaGhp08OBBs2MAflG2wjLuuecede/eXUuXLtVXX31ldhwAAPAdsNvtOvfcczV//vw29yltvoTw8OHDFRoaqtGjRystLU2VlZVyOBwaOXKkcfywYcMkHZsJ6hlbWlqquLg4bd68WUlJSVq3bp2mTJmiKVOmKD8/X6tXr9bq1au9HjcvL0/FxcXGvq5ut1vr1q3T8OHDNXToUBUVFbWadfr06e6Ph1oAACAASURBVMrMzFRcXJyys7N9ilvJexnhlvuvMrMVAAAAAGAVp59+um677TbV19crMzPT7DiAF8pWWMbZZ5+t2NhYde3a1ewoAADgO5CYmKixY8fK5XKpurraq2j0yMzM1NChQ7Vx40YVFhbKbrcrJiZG+/fv15o1ayRJo0ePVmFhoRYtWqTExERlZWWppKTEa/9USUpKStLAgQONQnfgwIEqKyvT0qVLlZ6eLkkaPny4Nm/e7DV2yJAhkqTKyko9//zzuvHGGyV5LyPsKVWbn0PzIlk6Vty2zNQWZrYCAAAAAKwiPDxcgwYNksvlMjsK4IOyFZbx/PPPKyIiQjt27DA7CgAA+A6kp6crLCzM7/9o2Ww2ZWRkaNeuXRo1apRxe9euXfX2228bM1ebaz5z1DMrtPmMWOnYTNDmM1svvfRS2Ww29ejRw5hhOnDgQI0bN06VlZWaPXu2Lr30UlVUVCghIUFlZWVKSUlRbm5um+dms9k0YcIEbdq0SbNnz5YkvfHGGxo5cqSioqL8jmlervornls6nuIWAAAAAAAz7d27V0899ZQaGxvNjgL4oGyFZbz//vtmRwAAAN+R1NRUSdL69euVnJysWbNmqV+/fj7HDRw40Fiq11Ocbtq0yadsnTVrlsLCwvTtt9/qlVdeUWFhoRITEzVr1qw2c4SFhSk5OdmYpZqbm+s1s9Uzk9bpdCohIcFrbEVFRav36ylwzzvvPM2YMUNOp1M2m03JycnKyckxZqdKMmbjesZlZGS0Wsi2XEZYkurq6nzuEwAAAACAzuTAgQMqLi42OwbgF2UrLGPEiBGKjIzUBx98oKqqKrPjAACAU8hTZnpK17lz58rpdBpft9lsSk9PN4rT5hITE33ub+7cuerdu7cyMjK89kF1u91ex7VcRriyslLR0dFe+696Zra63W59/vnn2rBhg9d92Gw29e7du82fV453yWAPh8Oh8ePHe92Wm5srl8ul3r17q7q6WjU1NcbyxQAAAAAAfB90795dl112mRoaGoxtgYDOgrIVlnHNNdcoNjZW27dvp2wFAADHxW63KyIiQi6XSy+88ILfma1xcXEqLS1VRUWF1zLCKSkpxjEtZ7Z6eEph6VjZ6nK5tGnTpnZzefaclaR33nmnw+fjme0aHx+vgoICORwOzZgxQy+99JLGjBmjoqIirz1jAQAAAADozHr37q2bbrpJLpeLshWdDmUrLOPTTz9VTEyMDhw4YHYUAADwPREXF6d+/frp6NGjWrp0qS6++GK/M1s9s1HXrVtnzJS12+3H/Xi9e/dWcnKySkpKvGbituQpWUtLS409Z202my6++GK/SwF72O12TZkyRZK89pq12WzGMZ6CNTMzU0VFRT770gIAAAAA0NkcPnxYDodD9fX1ZkcBfFC2wjIee+wxsyMAAACTNZ8JWllZ2e7s0YSEBGOGp2fGqb+ZrTabTV988YVxu2fWaGlp6XHlS05O1sGDB9tdIri1Gae1tbVt7tlaWFjY4dKUWa0AAAAAgO+LXbt26aGHHjI7BuAXZSsso3fv3goODlZNTY1cLpfZcQAAwHeg5d6mHSkQnU6npk6dKklexaTD4dDEiRP9HtdyfPOlg5ubPn16h3K21JHcDofD7+O2lae9sQAAAAAAfB+EhISoZ8+eksQ2guh0gs0OAATKI488oiVLlui8884zOwoAAAAAAAAAAAiQM844Q0uWLNETTzxhdhTAB2Ur/pe9O4+rss7///8EBBXBDXAFUXBPXI6aS6ZlWioWaSaVWWqU1oTdmvzMbXL6YPpxnI+2fCqnnbGyqcmZ0rHFwcmxpqwxU4Q0FRXZkVU22Q7b7w9/5/pyBBXx4IWnx/12m9vE4bzPeXHO0+u64HVe1wUAAAAAAAAAAACgGTiNMJzGr371K7m4uKiqqsrsUgAAANBKPPPMM9q6dauOHDlidikAAAAAgGZKTk7WPffcY3YZQKNotsJpcJ1WAAAAnG/ixIm6/vrrdfLkSf3tb3/Tf/7zH7NLAgAAAABcptraWlVWVppdBtAoTiMMp/G73/1Ozz//vAYNGmR2KQAAAGhF2rRpo0GDBmnFihX605/+pJkzZ5pdEgAAAADgMvTu3VvPP/+8/vCHP5hdCtAAzVY4jb59+yo4OFjt27c3uxQAAAC0Mi4uLmrfvr169uyphx56SH/9618VHh4uLy8vs0sDAAAAAFxC27ZtFRwcrKCgILNLARrgNMJwGps2bZKHh4dSUlLMLgUAgBY3aNAgVVRUmF0GcE3y9PRUXV2d7rvvPi1cuFCff/65PvvsM7PLAgAAAABcQE5Ojl5++WXV1NSYXQrQAM1WOA2uvwUA+CXp0aOHpk+fbnYZwDXLxcVF7u7ukqTp06dr5syZSk5OlouLi8mVAQAAAADOd/bsWX399ddmlwE0imYrnMasWbPUvn177dmzR9nZ2WaXAwBAi0pMTNSHH35odhlAq3ex6/lYrVa5urpq69at2rZtmxYtWqQ+ffpcxeoAAAAAAE3RuXNn3XLLLaqtrdW2bdvMLgewQ7MVTmPOnDny9fVVYmIizVYAgNNLT09XfHy82WUA16Ty8nK1adNGH3/8sbZu3aqysjKzSwIAAAAAXETXrl11//33y2q10mxFq0OzFU7j4MGD6tixo4qKiswuBQAAAK1MXV2dKioq1KZNG23bto0mKwAAAABcQ0pLS/XDDz+ourra7FKABmi2wmm89tprZpcAAACAVoYmKwAAAABc+7Kzs/W///u/ZpcBNIpmK5xGjx495Obmpvz8fFVUVJhdDgAAAFqB6upqmqwAAAAAcI1zd3dXt27dVFdXp8zMTLPLAezQbIXT+J//+R/5+vpq9erViouLM7scAAAAtAL33nsvTVYAAAAAuMYFBATohRdekNVqVXh4uNnlAHZczS4AAAAAAFoKjVYAAAAAANCSmGyF03jkkUfk4uKi2tpas0sBAAAAAAAAAAAOcurUKd11111mlwE0imYrnEZdXZ3q6urMLgMAAAAAAAAAADgYg1ZorTiNMJzG6tWr9fLLL2vQoEFmlwIAAAAAAAAAABzE399fL7/8sl544QWzSwEaYLIVTqNXr17y9fVV+/btzS4FAAAAAAAAAAA4iIeHh/r06SOr1Wp2KUADNFvhNN544w15eHgoKSnJ7FIAAAAAAAAAAICDZGdna8OGDVxKEK0SzVY4jQMHDphdAgAAAAAAAAAAcLDS0lL95z//MbsMoFE0W+E0wsLC5Onpqa+++kpZWVlmlwMAAAAAAAAAABygS5cumjFjhmpqavTXv/7V7HIAOzRb4TRmz54tX19fHT16lGYrAAAAAAAAAABOokuXLpo/f76sVivNVrQ6NFvhNPbt2ydvb28VFBSYXQoAAAAAAAAAAHCQs2fP6ttvv1VNTY3ZpQAN0GyF03j77bfNLgEAAAAAAAAAADhYTk6OXnzxRbPLABpFsxVOw9/fX+7u7srKylJ5ebnZ5QAAAAAAAAAAAAfw8PBQ7969VVtbq5SUFLPLAey4ml0A4CirVq3Siy++qEGDBpldCgAAAAAAAAAAcBB/f3+9+OKL2rBhg9mlAA3QbIXTqKmpUXV1tWpra80uBQAAAAAAAAAAOEhdXZ2qq6tVXV1tdilAA5xGGE5j2bJlZpcAAAAAAAAAAAAcLCkpSXfffbfZZQCNYrIVAAAAAAAAAAAAAJqBZiucxrp16/T6669ryJAhZpcCAACuQYGBgXr33XcVERHRpPtbLBZ9+OGHeuutt+zWXO7j2GzcuFERERGKiIjQ9u3bFRYW1qSa33rrrSbdFwAAAACAa1VAQIBef/11vfLKK2aXAjTAaYThNPz8/OTr66u2bduaXQoAALgGWCwWrVy5Up6enna3z507V3Pnzr3guq1btyo6OloWi0VWq1VvvPGGli1bptzcXE2bNk3BwcHG48yYMUMxMTGaOnWqnn/+ecXGxl60pl69emnNmjWKjY3V8uXLlZaWpoCAAC1ZskTu7u4N6vjyyy+b+dMDAAAAAHDtcHd3V48ePWS1Ws0uBWiAZiucxsaNG+Xh4aGkpCSzSwEAANeA2NhYzZs3T9K5CdHVq1drz549io6ObtL6ESNG6NSpU4qNjdW+ffs0bdo0RUZG2j1WbGysVqxYoS1btig2Ntb4Xrdu3Rp9zODgYO3YscP4etWqVdq0aZPCwsJksVi0fPlyvfLKK0bTNjAw8ApfBQAAAAAAWr+srCz9/ve/V11dndmlAA3QbIXT+Omnn8wuAQAAXKOmT58uSU2eFLVYLOrZs6fi4+MlqdEGbdeuXY1G6/bt243brVar3nzzTbvbJCkqKkqStGbNmiY9f/2p3KVLl2rp0qXG9xMTExUZGdmknwUAAAAAgNaurKxM+/fvN7sMoFE0W+E05s2bJ09PT+3atUuZmZlmlwMAAK4RFotFU6dO1ZYtW/Tggw9q/PjxF7yv7RTCs2fPlqenp0aMGKEdO3aorKxMMTExuv32243T/dqmV22N0Ms57e+lJm1tU7kWi6VBQ3fjxo3Kzc293JcBAAAAAIBWq2vXrpo9e7Zqamr0wQcfmF0OYIdmK5zGbbfdJl9fX/300080WwEAQJMtXrxYHh4eSktLazBtKkkRERGaO3euEhMTjWu1BgUFKScnR/Hx8XrnnXe0fPlyxcbGGo1RW8Pz/CnVwMBAeXh4NJhE3bp1q6Rz16CXzk3aenl5XfIar9K5Sdm0tLRm//wAAAAAALR2nTt31pw5c2S1Wmm2otWh2Qqn8d1338nb21tnzpwxuxQAAHCNiIqKUs+ePWW1Wht8zzZdKkmPPvqoUlJSJEkBAQH65z//qQkTJjRYExYWpiVLlsjd3d3u+qu2iVjJ/jTCttMBS1JmZqaCgoJksVg0adIkxcTEXLLZGhAQIA8Pj+a/AAAAAAAAXANKSkq0e/duVVdXm10K0ADNVjiNd9991+wSAADANSQsLEz+/v7aunWrZs+erQULFmjt2rWN3vf11183/tvWOD2/2bpgwQL17NlTpaWl2r17t92Uq42Pj48xRXu+3NxceXh4aMGCBZKadv3YESNGKD8/v0kTsAAAAAAAXKtyc3Ptfr8GWhOarXAa/fr1k7u7u9LT01VWVmZ2OQAAoJXbvn27tm/frrCwMEnSBx98YNe0vNR1U8/3wQcfKD8/X6tXr9bcuXM1d+5c43vx8fGSGp9EtVqtys3NVVxcnObMmaPAwECtW7dOKSkpDU5H7OXlZTSEY2JiFBQUpD179jSohUsqAAAAAACcSbt27dSnTx/V1dXpxIkTZpcD2KHZCqexcuVK+fr6avXq1YqLizO7HAAA8AtjsVjUq1cvSfanDa7/ydvzJ1HrN19HjhypLl26qKCgQPn5+QoMDJS3t7dKS0u1fft2ubu7KzExUZGRkcbjlpSU2DWCbWsAAAAAAHAmvXr10vr162W1WhUeHm52OYAdmq1wGhUVFSovL1dNTY3ZpQAAgF+QgIAAdenSRZMmTdIrr7yi5cuXNzrZarFYNHz4cMXExCgqKkrjx4+XJCUmJsrPz09z585VTEyMLBaLHnzwQX3++eeSpL/+9a+NTtxK0qpVq+xq8fHxkZeXV0v/yAAAAAAAXFV1dXUqKytTVVWV2aUADdBshdOwTXkAAABciYiICKNRWlZWdsnrofr5+Sk1NVWRkZEKDAyU1Phkq8Vi0enTpxuckjgiIkK333673nzzTW3fvt1opq5du1aJiYmNNlpLSkqMY5/69UpSTk5Ok673CgAAAADAtSIpKUkLFiwwuwygUTRbAQAA8Itmu3arTXR0dJOu0drYB71SUlK0aNGiS96vvvOfr7HHuNj3mlovAAAAAAAAHM/V7AIAR3nuuecUHR2t6667zuxSAAAAAAAAAACAgwQGBio6Olqvv/662aUADTDZCqfRuXNn+fj4yN3d3exSAABoVdq2bSsXFxdVVFSYXQoAAAAAAMBlc3Nzk4+Pj6xWq9mlAA3QbIXTePHFF+Xu7q6kpCSzSwEAoFVo166d5syZo7vvvlu/+c1vdPLkSbNLAgAAAAAAuGxZWVlatWqVamtrzS4FaIBmK5zG0aNHzS4BAIBWoX6Tta6uTu3atZOHh4fZZQEAAAAAADRLWVmZfvrpJ7PLABpFsxVO45577pGXl5f+8Y9/KCMjw+xyAAC46hprstpwmn0AAAAAAHCt8vX11Z133qmamhq98847ZpcD2KHZCqdxyy23yNfXV/v376fZCgD4RblYk9WGyVYAAAAAAHCt6tixo0JDQ2W1Wmm2otWh2Qqn8e9//1sdOnRQXl6e2aUAAHBV2Jqs8+fPv2CT1aZr167y9PRUWVmZJMnT01OdO3eWJFVXVysnJ8e4b7du3dSmzbnDxMLCwiat6d69u9zc3CRJBQUFKi8vlyR16NBBnTp1kiRVVVUpNzfXWNOjRw+5urpKks6cOaOKigpJkpeXlzp27ChJslqtdvv2nj17ysXFRZKUn5+vyspKSZK3t7e8vb0lSZWVlcrPzzfW9OrVy/jvvLw8Wa1WSed+UfPy8pIkVVRU6MyZM5IkFxcX9ezZ01iTm5urqqoqSVKnTp3UoUMHSVJ5ebkKCgokSa6ururRo4exJicnR9XV1Q3WlJWVqbCwUJLk5uam7t27G2uys7NVU1PTYE1paamKioouuaZz587y9PRssKZNmzbq1q2bsSYrK8u4xk2XLl3Uvn17SdLZs2dVXFws6dwktJ+fn7Hm9OnTqqurk3QuS7aslZSUqKSkRNK5hr6vr6+xJjMz0/hvHx8ftW3btsGatm3bysfHR5JUV1en06dPG2t8fX2NDwkUFxfr7Nmzks7lvmvXrpKk2tpaZWVlGWv8/PyMKe6ioiKVlpZKktq3b68uXbpIkmpqapSdnW2sqZ93JsABAAAAoHUqLi5WTEyM8Tsw0JrQbIXT+POf/2x2CQAAXDVjx45VRESE6urqjCbWxTzxxBOSpJ07d0qSJkyYoKeeekrSuYbd4sWLjftu2LDBaM49//zz2r17tyRp8uTJWr58uSQpPT1djzzyiLHmpZdeMpqq69at0549eySdO/PEsmXLJEmJiYmKjIw01vzxj380moOrVq3Sjz/+KEmaOXOmUc/Ro0eNOiXprbfeMpq6Tz/9tOLj4yVJd9xxhxYsWCBJio+P19NPPy3pXBM0OjraWL9ixQodOXJEkjR37lzNnz9fkrR//35FRUVJOtcArL9m+fLlOnnypCQpPDxcd955pyTp+++/19q1ayWdaxDXX7Ns2TKlpqZKkhYuXKhZs2ZJkr7++mtt2LBB0rlGZ/01S5YsMRqHDz30kKZNmyZJ+uc//6mXXnpJ0rnGYP01CxcuNBrLS5cu1ZQpUyRJX3zxhV599VVJUu/evfX6668ba8LDw41m5+OPP64JEyZIkrZt26a3335bktS3b1+9/PLLxpo5c+YYje0nn3xSo0ePliRt2bJF7733niRpwIABeu6554w1oaGhRoP2N7/5jUJCQiRJ77//vv7yl79IkoYMGaJ169ZJOtfAv+OOO4z1K1eu1ODBgyVJmzZt0scffyxJGj58uJ599llJ55rX8+bNM9asWrVKQUFBkqQ33nhDn376qSRp9OjRWrlypaRzHyC47777jDVr166Vv7+/JHH9HwAAAABopfLy8vTmm2+aXQbQKJqtcBqDBg2Su7u7kpOTjckHAACc1Y8//qhdu3Zp/vz56tu37yUn8nbt2mU0DKVzjU9bk8w2uWqzdetWY9oxMTHRuP348ePGGtsEpM2WLVuMpm9ycrJx+7Fjx4w1tolOm7/85S/GRGH9SwAcPnzYWFN/QlWSNm/ebEzD1p9ojIuLMyZJ60/P1tXVGY8lyW4aNzY21pjArT9RWVVVZbemfg0//vijMTGanp5u3F5ZWWm3xnYfSdq7d69Rk60BK5173euvqX/8smfPHuM1SUpKMm4vKSmxW1P/vfvmm2+M177+e11YWGi3xtY0laSvvvpKx48flyQlJCTY/cz119heW+lclg4fPizpXDPcJicnx25NfTt37lRsbKwkGWulc6+7bY1t2tZmx44d+uGHHxqsSU9PN9bUr0uSPv/8c6PpX7+2lJQUY41tgtrm73//uzEVbWvUAgAAAABal/bt2ys4OFi1tbXGh6iB1sIlICCgzuwiAEd4++235evrq9WrVysuLu6S99+2bZskKTIy0u6PpQCu3BtvvKHu3btr7dq1OnDggNnlAE5lzZo1CgkJ0dtvv60dO3ZIkkJCQjR37lyNGzdOVVVVjTZe60+OAmjcY489punTp+vTTz/lGkCAg9111126//77tXfvXq1fv97scgCnMmnSJD311FNKTk7Wk08+aXY5gFMZOHCg1q9fr/LycruzowC4ch07djQ+FPvggw82+FD3+YKCgvTCCy/IarUqPDz8apQINBmTrXAaJSUlcnd3bzDhAACAszt06JAOHTqkgIAAhYWFaebMmaqsrLS7hqvtdK4AAAAAAADXmpqaGhUVFclqtZpdCtAAzVY4jV//+tdmlwAAgKnS0tL0xz/+Ue+//75CQ0M1Z84cubi4qH379g1O0QoAAAAAAHCtSElJ0aJFi8wuA2iUq9kFAAAAwLGKior04Ycf6u6779Y777yjnJwcubm5mV0WAAAAAAAA4HRotsJpvPTSS9q8ebNCQkLMLgUAgFbjiy++0OLFi7V//36zSwEAAAAAAGiWvn37avPmzYqOjja7FKABTiMMp9GhQwd5e3szuQMAQCO4ZisAAAAAALhWubq6ytvbm2u2olWi2QqnsX79erm7uys1NdXsUgAAAAAAAAAAgINkZmZq5cqVqq2tNbsUoAGarXAaJ0+eNLsEAAAAAAAAAADgYBUVFTp69KjZZQCNotkKp7Fw4UJ5eXnp888/V1pamtnlAAAAAAAAAAAAB/Dz89O8efNUU1Ojt956y+xyADuuZhcAOMrkyZN16623ysfHx+xSAAAAAAAAAACAg3h7e+vWW2/VLbfcYnYpQANMtsJp7Nq1Sx06dFBubq7ZpQAAAAAAAAAAAAcpKirSZ599purqarNLARqg2QqnsWXLFrNLAAAAAAAAAAAADpafn69NmzaZXQbQKJqtcBrDhg2Tu7u7EhMTVVxcbHY5AAAAAAAAAADAAdq3b6/BgwertrZW8fHxZpcD2OGarXAaTzzxhKKiohQUFGR2KQAAAAAAAAAAwEF69uypqKgorVy50uxSgAaYbIXTyM/PV11dnaxWq9mlAAAAAAAAAAAAB6murlZubi5//0erRLMVTuO3v/2t2SUAAAAAAAAAAAAHS01N1SOPPGJ2GUCjOI0wAAAAAAAAAAAAADQDzVY4jVdffVUfffSRQkJCzC4FAAAAAAAAAAA4SL9+/fTRRx9p8+bNZpcCNMBphOE0PDw81LZtW7m5uZldCgAAAAAAAAAAcBAXFxe1bdtWLi4uZpcCNECzFU7j97//vdzc3JSZmWl2KQAAAAAAAAAAwEEyMjK0YsUK1dXVmV0K0ADNVjiN5ORks0sAAAAAAAAAAAAOVllZqcTERLPLABpFsxVO46GHHpK3t7e2bt2q1NRUs8sBAAAAAAAAAAAO4OfnpwULFqiqqkqvvvqq2eUAdmi2wmmMHz9evr6++vrrr2m2AnAqUVFRkqQ1a9Zc8D4Wi0UrV66Up6en9u7dqzVr1igqKkrjx49v8vPY1klSWFiYFi5cqPfff1/bt2837hMYGKjVq1drz549io6ObvAYGzduVHBw8CWfKzExUZGRkU2uDQAAAAAAAL9c3t7emjJliqxWK81WtDo0W+E0duzYoQ4dOig7O9vsUgDAoT7//HOtXLlSERERio6ObrSJWlVVpU2bNmn79u2aOnWqcXtTm5obN240/jswMFChoaFGo7WxBurcuXM1d+7cBs8tSVu3bjUasRaLRcuXL9crr7yi2NhYSVJERIRGjBjRjFcCAAAAAAAAv0SFhYX65JNPVF1dbXYpQAM0W+E0tm3bZnYJANAiYmNj9f777ys0NFRffvmlpIs3UXfv3n1Fz7dixQrt27dPcXFxevfdd7Vnzx7juS412SrZN2Jt1q5da/c119gAAAAAAABAU505c0Z//vOfzS4DaBTNVjiNUaNGycPDQ0ePHlVxcbHZ5QCAQ23fvt3udL6XKyIiokEDVLI/dbB07pTFwcHBCg4O1ty5c5WYmHjBpuqFMNkKAAAAAAAAR/L09FRISIhqa2v1448/ml0OYIdmK5zGY489Jl9fX61evVpxcXFmlwMALSo4OFg7duxocPv5p/St7/xp2PqnDraxNV4jIiI0adIkPf/88woLC9OSJUvk7u5u3K/+9GpOTo5WrVqllJSUBt+zYbIVAAAAAAAAzdWjRw/99re/ldVqVXh4uNnlAHZotsJpZGVlqbKyUhUVFWaXAgAOU38itf7E6NGjRxUYGKiYmBjjNluD9Eo/cGKxWDR16lRt2bJFKSkpSklJuaypWiZbAQAAAAAA4EhVVVXKyMhQVVWV2aUADdBshdP47//+b7NLAACHi46OVnR0tN0Uqp+fn3Jzc7Vu3TqtXLlSkyZNUmxsrCZPnqx169YZE6bNERgYqOXLlysuLk4LFy7U0qVLFRMTI4vFom7dujW6pv6piC90HdnzfyYAAAAAAACgqdLS0vT444+bXQbQKJqtAABcQywWi3x8fLRr1y7FxsZq3rx5ioqK0owZM7R161ZjerS5Ro4cqS5duuj666/XunXrFBsbq8DAQA0bNkxvvvlmgwlXWxPYYrFo5cqV8vT0bPRxzz+NsCSVlZUZzwEAAAAAAAAA1yKarXAab731lnx8fLRmzRrFx8ebXQ4AtIjZs2fLarUqLi5OUVFRGj9+vBITE/Xmm29qyZIlmjRpkt31U+tr7Dqvubm5dl9v3779sk4ZbGNr/Na3ceNGWa1WxzpntQAAIABJREFU+fj4KD8/X0VFRcYELAAAAAAAANBU/fr10/PPPy+r1ap7773X7HIAO65mFwA4iouLi1xdXeXi4mJ2KQDQIrp27arBgwfryJEjeuWVV+Tn56dZs2YpMjJS27dv1/LlyyVJDz74YKPrExMTNWvWLON/iYmJF3yuiIgI7dixQzt27NDSpUubXGNgYKDeffdd7dixQ/Hx8frggw8kyfj/HTt2KCoqqsmPBwAAAAAAANj+/u/qSlsLrQ+TrXAazz77rNzc3JSTk2N2KQDgMLbT8+7bt08jR47Uli1bLjh5mpKSokWLFjX6vcauk9rY9VUjIiI0d+5cozErnWugrl69WkuXLm208Zqbm6uwsDAtWbJEkrRp0yajRovFYtzPNtUaFRWlHTt2qKqqyu6+AAAAAAAAQGPS09P1xBNPqLa21uxSgAZotsJpZGRkmF0CADicxWLRTz/9pA0bNhiN10tNmtquhSo1furgC8nNzVV0dHSjjVmr1XrRa7ZezumHOZUwAAAAAAAALofValVqaqrZZQCNotkKp7Fs2TJ5e3vrb3/7m5KTk80uBwAcon7js7Hrol7M7NmzlZiY2OgE6/lsTdPGpKSk6JFHHmn0e5d67NjY2AtO2wIAAAAAAABN0b17dz3wwAOqrq7W//3f/5ldDmCHZiucxujRo+Xr66svv/zS7FIAoFW4nAnSpjRkAQAAAAAAADN06NBBEydOlNVqNbsUoAGarXAa27dvV4cOHXT69GmzSwFwmaZMmaIFCxboiSeeUHl5udnlAAAAAAAAAGhFCgoK9NFHH6m6utrsUoAGaLbCaXz++edmlwDgMtmarD4+PmrXrp3c3NzMLgkAAAAAAABAK1NQUKAtW7aYXQbQKJqtcBrXX3+9PDw8dPjwYRUWFppdDoCLOL/J6uLiIknG/wMAAAAAAACAjZeXl0aOHKna2lp9//33ZpcD2KHZCqfx8MMPy9fXV6tXr1ZcXJzZ5QBoxIWarDZt2rBbAgAAAAAAAGCvW7dueuqpp2S1Wmm2otXhr9pwGunp6SopKVFFRYXZpQA4z6WarDaurq5XuTIAAAAAAAAArV1lZaWSkpK4ZitaJZqtcBqrV682uwQA5wkJCdHSpUsv2WS1ee2111RbW3uVqgOuTVlZWWaXAAAAAAAAcFVlZGTo17/+tdllAI2i2Qqn4ebmJhcXF9XU1Kiurs7scgBIysnJ0eHDhzVjxgxVVVXJ3d39ovdPTEyU1Wq9StUB16ZOnTqZXQIAAAAAAMBV5eLiIjc3N9XV1ammpsbscgA7NFvhNN544w2u2Qq0MtnZ2dqxY4c2b96s0NBQzZkzR5LUoUOHRj8U8eKLLyovL+9qlwlcU9asWWN2CQAAAAAAAFdVv3799MILL8hqtSo8PNzscgA7XBwPANDiCgsL9cEHH+juu+/We++9p5ycHFVUVDRouDKVDgAAAAAAAAC4ljDZCqexcuVKubm5qaCgwOxSAFxAXV2dPvvsM3322We68cYbNX/+fAUEBMjDw0OSLnlNVwAAAAAAAAC/PKmpqXr00UcZ1kCrRLMVTiM3N9fsEgBchm+//VbffvutRowYoblz52rs2LFmlwQAAAAAAACgFaqurlZWVpbZZQCNotkKpxEZGamOHTvqww8/VFJSktnlAGii+Ph4xcfHy9PTU5WVlWaXAwAAAAAAAKCV6dGjhx566CFVVVVpw4YNZpcD2KHZCqcxfPhw+fr66osvvjC7FADNUFZWZnYJAAAAAAAAAFohT09PjRkzRlar1exSgAZotsJpfPzxx/L09FRmZqbZpQAAAAAAAAAAAAfJz8/X5s2bVVNTY3YpQAM0W+E0du7caXYJAAAAAAAAAADAwYqKirRt2zazywAa5dapU6dnzS4CcIR7771Xd955p/z8/FRQUKCzZ8+qb9++slgs6tChg3JycuTp6akbb7xR/fr107hx4yRJmZmZCggI0NmzZ1VWVqagoCCNGjVKnp6eys3Nlbe3tyZNmqTAwEAlJydLkiZMmKCBAweqpKREZWVl6t+/v0aOHKl27dopLy9PHTt21A033KCAgAClpKRIkiZNmqT+/fursLBQFRUVGjRokEaMGCEPDw/l5+erS5cumjhxonr37q3U1FRJ0uTJkxUcHKwzZ86osrJSgwcP1vDhw9WmTRudOXNGPj4+mjBhgnr06KH09HRJ0k033aSgoCDl5eXJarXquuuuU0hIiFxcXFRQUCA/Pz+NHz9e3bt3N9ZMnTpV/fr1U05OjqqqqhQSEqJhw4ZJkgoLC9W9e3eNGzdOfn5+ysjIkKurq26++Wb169dPWVlZqq6u1ogRI3TdddeppqZGRUVF6tWrl8aOHauuXbvq9OnTatOmjW666Sb169dPmZmZqqmp0ahRozR06FBVVVWpuLhYvXv31tixY9WlSxedPn1aHh4emjJlivr166e0tDTV1tZq9OjRGjJkiCorK1VSUqI+ffpo9OjR6tixo7Kzs9W+fXtNnjxZ/fr1U2pqqurq6jR27FgNHjxY5eXldrnw8vJqkAvb9X7Hjx+vgQMHtkgu+vTpc1Vy0bNnT6WlpZmSi2HDhqlDhw5KT09Xjx49WjwXY8aM0eDBg6/JXHTq1Mm0XEyZMkXBwcFOu724WrkYN26cBg0a1OK5uOGGGzRgwAD1799ffn5+Sk9PV9euXVs8F0OHDr0quRg+fLgp+5GAgACNGTOmxXPRr18/WSyWFsuFbXsxcOBAu+1F586dr0oufH19r0ouevbsqeuvv97IhZubm7HGEbno06eP+vTpo8zMTHXo0MHIRbt27a5KLry8vMhFK8zFhbYXZuZi4sSJGjBgQKvORX5+viorK41c9O7dWwMGDFBubq7c3Nwclovs7GxVVVW1eC7S09PtcmG1WlskF7b32JaL0tJSlZaWtnguioqKVF5ebuSibdu2ysvLa/FcuLq6tsjxxfm5qK2ttcuFj4+PMjMzWzwXnTp1UlZWVovnolevXrruuutUXFwsq9Wqvn37XpVc+Pv7X5Vc1P+bB7loei5sfwuzbS/IRfNy0bt3b40cOVLV1dUqKCi4aC78/f01ZsyYazYXV3LceTm5uPHGG9W/f/9m/V3rcnJx8803KygoyMjFsGHDmn3ceTnbi5EjR16VXNj+5mHLRWBgoEaPHt3iuQgODtaoUaMu+vfOpuaiT58+Gjt2rCQpKytLgYGBRi5sfwuz5aJr166aPn265s+fr+DgYMXFxQloTZhshdOYOnWqfH19NXr0aOXl5SkrK0tjxozRggULtHfvXh0+fFhdunRRZGSk3brZs2erR48e2rBhg3JzczV+/Hjdfffd+uabb/Tzzz/L19dXkZGRqqqq0tdffy1JevDBB9W9e3etXbtWeXl5uuGGG3TnnXdq165dOnr0qHr16qXIyEiVlpbqm2++kSQtWbJEXbp0UVRUlAoKCjR58mTNmjVL//jHP5SQkCB/f39FRkaqsLBQe/bskSQ9/PDD8vLy0m9/+1sVFRXplltu0bRp07R9+3adOHFCffv2VWRkpHJycvSf//xHkvToo4/Kw8NDTz31lEpKSjR9+nRNmTJFH3/8sU6dOqXg4GBFRkYqIyNDe/fulSTjNTl+/LhKS0s1c+ZMTZgwQR9++KGSkpI0aNAgRUZGKikpSfv27ZObm5ux5ueff1Z5ebluv/12jR49Wu+9955SU1M1ZMgQPf744zp27JgOHDigtm3bGmsOHjyoyspKzZkzRyEhIXr77beVnp6u4cOH65FHHtGhQ4cUGxsrT09PY82+fft09uxZzZs3T4MHD9arr76qzMxMjRo1SosWLdKBAwcUHx8vb29vY82ePXtUU1Oje+65R0FBQXrppZca5OLQoUN2udi9e7ckacGCBfL393dILv71r3/p6NGj6tmzp5GLf//731eci6efflpFRUWaOnWqpk+f3mguvv/++2bn4vHHH5eLi0uzcpGXlydJuv7669W/f/8GuUhISNCBAwfk4eHhkFzcddddGjx4sF577TVlZmZq5MiRWrx4scNy8dVXX6murk733XefAgIC9NxzzzWaCz8/v8vORY8ePRQZGamysjIjF4sXL1bXrl0dkotPP/1UJ06cUGBgYINcPPbYY83OxYkTJ1RaWqoZM2Zo4sSJ+stf/mKXi1OnTl329qKxXMTFxamyslJ33nmnhg8f7pBcxMbGKj4+Xl5eXg7JxYIFC+xyMW7cOM2fP1/ffvutQ3OxZMkSde3a1fjjfP/+/RUWFuaQXOTm5tptL9q2bWvk4tZbb73sXNi2F7ZcDBw48JL7kTvuuKPZuYiOjlZ6erpCQkK0dOnSJu1HbLkYNWrUBXPx3XffqaamRuHh4QoODm5WLurvR+rnwrYfqa6uNnLxwAMPqEePHs3KxapVq4ztRWhoqGJiYlokFytWrDC2FzfddJORi/79+19xLlxdXY3X8ciRI8b2YsyYMUYuhg4dapeL+scXl8rF4cOHFRsbq/bt218wF0eOHJEkdevWTZGRkUYu6u9Hzs/Fyy+/rKysLI0ePVr333+/kYuuXbtedi5s24vGcvH73//e4bkoKioychERESFvb2+H5OKTTz6x216kp6e3SC42b97cIrn48ccfVVJSorvuuktDhgy54PbicnLxww8/NHt70VguFi5caJeLiRMnas6cOdq9e3eL5GLlypUqKirSzTffrFtvvbXJuSguLjb2I4cPH5YkdejQocH24le/+pVcXV2bnYuysrIGuRgyZIgiIyMdmouqqiojF6+//royMjI0cuRILVmypEm5sO1HLpaLr7/+2jju7NOnjzZs2KCcnByH5KJ79+4XzcWZM2fscnHs2LHLysVnn32mEydOqE+fPk3OxSeffKLExEQFBQVdMBcnT55s9LjzcnORkpJi5OL48ePav3+/3fFFfHy8w3Nx8OBBxcXFNen44nJy8dxzzyknJ0fjxo1TeHi4jh07Jklq06aNkYuvvvrqsnJRXl5u9/uIj4+Pnn32WZ05c0Y33nijZs+e3Wguvv3228vKRV5enpGLZcuWqV27dk3Khe1vHhfKxUcffaSkpCQNGDCgRXIRFhamESNG6E9/+pPS09M1bNgwLVu27IpyUX978f3336umpkbz589X//79HZKLPXv26PDhw3bHnY7MhW17sXPnTh07dky9e/dudi7qby9sufiv//ovFRcX2x1fXGkukpOTtW/fPrm4uDQ5F7YGoaQL5sK2vbjuuuu0bNky/fzzz4qNjVW7du0cmgvb8YXFYtHChQsdkouamhq7XPTs2bNFclFcXGzk4uGHH7bLhe2482K5WLp0aaO52Lp1qxITE9WvX78GuXj88cftcjFz5swm5+Lo0aMqLy/X7NmzNXbs2AtuL+ofX9TfjzQ1F/v377fLxWuvvdbkXISHh9vlYvTo0Vq4cKH27dunQ4cOqXPnzg7Nxbp164xczJ0796LHnU3NRUlJifHv6/7777fLxS233GKXi8DAQC1evFiSNGzYML3zzjsCWhOarXAaDz/8sJYvX65evXqpuLhYknTmzBklJCQY13G1Wq1KSEiQJA0aNEiSlJGRoaKiIp09e1bSuSZRQkKCTp8+bbem/rngk5KSVFhYqNLSUrs12dnZkqTy8nIlJCSooqLCWHPq1Cl5eXmprKxMkpSTk6OEhATl5ORIksrKypSQkGDUIUmJiYlq166d8ThZWVlKSEhQbm6uJKm0tFQJCQkqKCgw1pw4cUJt2rRRZWWlJOn06dNKSEgwml9nz561ewxJxmtiu7i4bc2ZM2ckScXFxXavSV1dnbGmqqrKeB29vLyMNUVFRUpISDA+gVZbW2ussb2WaWlp8vDwMOovLCxUQkKC8Qm0mpoaY01tba0kKTU1VS4uLioqKpIkFRQU2L3HVVVVxpq6ujpJUkpKivFpMuniuaj/HpeWll4wF5WVlQ1ycerUqUZzkZWVJen/5cL23tjeY29vb5WXl0u6cC7qH3zYcmFbk52d3SK5OH78uPH6SOemwJuaCx8fH0nnrqVQU1Nj1GLLhe2XlfprmpML2xpbLgoLCyVdWS7O/7dfX3JyssrKyoz34/xcVFRUOCQXp06dUm5u7gVzYXuP628vTp48qfbt2xvbC1suzs+So3Jx/pr8/HxJDXNR/9++bXuRnp4uLy+vJuWiurraWNO2bdvLykVaWlqjucjIyDAe+1K5yM/Pb3W5aNOmjd37cyW5sK2xvUbSuVy4u7s7ZHthy0VJSckV56L+Glsu0tLS7HJhW9OUXJy/H2ksF/X3PdXV1c3KxeXsR5KSklRUVGTkIjc3t9Hji8ZyYTu+OH9NY8cXV5KL89fYcmF7j21fS+eOL1xcXJqciwsdX3h7ezskF7ZjkovtR2zPa/t3e7FcpKSk2OXi/P2I7T2u71Lbi4vlwvYeNicXTT3udFQubNsH2/bicnJh24/YtocXy0VTjjubk4v6a1xdXS+4vah/fHGpXFzquLP+9uL8bUxTcnE5+5Hm5OJSx50Xy4Xtdxjbts32utXPxfHjx69qLurvE5qzH3F1dTV+ZtsxSVNyYfu3b8uFbU39XNiOSZKTk41JlYvlwvYc9XNxoeML27atpXJx/pqL5eJCxxeN5eL8Y5Lzfx+5klw0dtx5fi6aetx5sVxc6Lizubk4f43teW05r5+LU6dOXTQXtu2F7d+fdC5LeXl5DY4vHJ2LkydPXnYuTpw4Ien//T5yqeMLSRfMxYX2CRf6faRdu3YNsnQ5uWjKfiQ1NVU1NTUN3uOL7UculAvbmsa2F83JxalTp+xyYdtenH/caXtM23vs6el5yd9Tbfta2xp3d3cjS7b9SEvnIj09vdFcFBcXq0+fPnJxcblgLmzvcVP3Pc3NxeUcX5yfi6bsR5KTk1VcXHzVc2F7j88/7qyfixMnTsjDw+OSfyNtLBdN/X1Eavg30oyMDHXs2LFJx5D1s9TUXJx/3Gl7j68kF42tqf8eNzcX5x93nv/7SFNycf6//crKSg0fPtx4nsbe48Zy8Yc//EFAa+MSEBBQZ3YRgBls53e3fdoegOO88cYbxtTegQMHzC4HcCpr1qwxpr937NhhdjmAU3nssceMaU4+KQ041l133WVMf69fv97scgCnMmnSJD311FNKTk7Wk08+aXY5gFMZOHCg1q9fr/Lyct13331mlwM4lY4dO+q9996TdO4MYLbGMXAtcjW7AAAAAAAAAAAAAAC4FtFsBQAAAAAAAAAAAIBmoNkKAAAAAAAAAAAAAM1AsxUAAAAAAAAAAAAAmoFmKwAAAAAAAAAAAAA0A81WAAAAAAAAAAAAAGgGmq0AAAAAAAAAAAAA0AxunTp1etbsIgBHmTNnjiZNmqTi4mKdOXNGI0eO1OzZs9W1a1edOnVKnTt31v333y+LxaKBAwdKkmpra2WxWFRUVKTCwkKNGTNGs2bNUqdOnZSSkiJfX18tWLBAI0eOVHx8vFxcXHTPPfdo/Pjxys/P19mzZzV+/HjNnDlTHTt2VFpamrp376777rtPISEhOnTokFxdXbVgwQKNGzdOubm5Kisr0w033KAZM2bI09NTmZmZ6t27t8LDwzVs2DAdOXJEbm5uWrhwocaNG6fs7GwVFxfrxhtv1K233ip3d3dlZGQoICBA8+fP14ABA/Tzzz9LkhYvXqwxY8YoNTVVZWVluummmzRt2jS5uroqMzNTffv21bx58xQUFKQjR45IkiIiImSxWHTq1ClVVFRo2rRpmjp1qurq6pSVlaXg4GDddddd6tu3r44ePSo3Nzc99NBDslgsOnHihKxWq2677TbdfPPNqqqqUk5OjgYNGqQ5c+bI399fCQkJ8vDw0OLFi2WxWHTs2DFVVVUpNDRUU6ZMUUVFhXJzczV06FCFhYWpZ8+eOnHihNq3b69FixbJYrHo559/Vk1NjW6//XZNnjxZZWVlysvLU0hIiO644w75+fkpMTFR3t7eeuCBB2SxWBQfH6+6uroL5sLHx6dBLmJjYyVJ8+bN08SJE1VQUKDCwkKNHj1aoaGh6tSpk5KTk+Xj46MFCxZoxIgRiouLkyQjF7m5uSouLta4ceM0c+ZMeXl5KSUlRd26ddO9996rYcOGKT4+XpJ03333ady4ccrKylJJSYkmTpyo2267Te3atVNaWpp69eql8PBwDRkyRIcOHZIkPfDAAxo7dqwyMjJUWlraKnPh7++vDh06qLS0VKNGjbqsXMyaNeuKczFs2LArzkWnTp20cOHCZuVi5MiROnjw4BXnIjs726lycSXbC2fLRXh4uCZMmNCsXHTr1k0+Pj4qKCjQiBEjmpULDw8Ppaeny9/fv9m5CA4OvuxcBAYG6tixY3a5OHnypCorK03LhSP2I60hF7btxYQJEzRjxoxWkYuHHnpIo0ePvqJc3Hrrrc3ORWVlpXJzczVkyBDdeeedRi48PT314IMPNpoLHx8f9e7dW/n5+Ro6dKi6deumkydPNikXAC5u6NChGj58uNLT0/Xdd9+ZXQ7gVPr06aOJEyeqsLBQO3fuNLscwKn4+Pho+vTpqq6u1ieffGJ2OYBTadu2rebMmSNJ+vvf/67KykqTKwKar43ZBQCOsnz5ct10001ycXHRrFmzGnz/sccek4uLS4PbZ8+ebff/5z9mfbfffrvd16GhoQ3WPPHEE3Zfh4WF2X19fm0zZ85s8Bi2nYxNv3799PTTT2v48OGaNm2aqqur9cMPP6hbt24KDQ1VTk6OtmzZIkmaMWOGPDw8tHv3buXl5WnkyJGaMmWKysvLtX//fvXo0UOhoaHKyMjQxx9/bPdzxMTEqLCwUBaLRRMmTFBRUZEOHjyo3r17KzQ0VElJSdq6datcXV2NNZ999plKSko0duxYjR49Wnl5eTp06JACAgIUGhqqY8eO6dNPP5W7u7ux5pNPPlFZWZnGjRunkJAQZWZm6siRIwoMDFRoaKgOHTqkL774Qm3btjXWfPTRR6qsrNTEiRM1ePBgJScn69ixYwoKClJoaKgOHDignTt3qn379saazZs3q6amRpMmTVJQUJBOnDihkydPqn///goNDdXevXv15ZdfqkOHDsaa6OhoSdKUKVPk7++vn3/+WUlJSRo0aJBCQ0P1zTff6KuvvlLHjh0VGhqqqqoqvfPOO5Kkm266Sd27d9fBgweVlpamwYMHKzQ0VO3atdM333yjrl27KjQ0VKWlpdq8ebMkadq0aerSpYt++OEHZWZm6rrrrtOsWbPk6uqq77//Xj4+PgoNDVVhYaE++OADSdL06dPl5eWlPXv2KDs7WyEhIcaBvyNzMWvWLLm4uDQrF3l5eZKkAQMGqH///kYu/P39L5mL8ePHNzsXKSkpOnbsmIKDg684F15eXsaaP/3pT6qrq9PkyZMVEBDQpFxs2rSpSbno0qXLRXORkZHRKnOxc+dOFRYWatSoUZo4cWKDXJw6darJ2wtbLhISEvTpp5+qTZs2LZILR2wvmpOLTp06NcjFzTff3KRclJWVGbm45ZZbjA8PSVKvXr00dOjQZuWipqZGe/fuveJc/O1vf7vsXGzbtq1BLoqLiy8rF1u3bjX2I8OHD7+iXPTr10+hoaGKjY3Vzp071a5dO4fm4siRI0pKStLAgQNbNBe27cWwYcOavb04Pxe5ublGLm677Ta1bdv2snIRGhraaC6Ki4t18OBB9erV65K5uP76668oFz///LP69u1rlwsPD48L5sLWKO7UqZMmTpyo2NhYxcTE2OXi/ffft8tF165d9fe//13Hjx8XAAAAAAD45aHZCqcxZswYnUxM1OpnnWtYO2T4cN3+/zeCDx8+rOrqaiUkJEiScnNzFRMTo5KSEuP+X375pdzc3FRcXCxJ+umnn1ReXm78ATA7O9tontnExMRIkkpLSyVJcXFxKioqUmJioiQpMzNTMTExRgOtrq7OWFNeXi5JOnDggHJzc5WUlCRJSktLU0xMjLKzsyVJVVVVxhrbp5T27dunjIwMpaamSpJSU1MVExOjjIwM4362NVVVVZKkH374QcnJyUpPT5ckJSUlKSYmRmlpaUY9tjU1NTWSpO+//17Hjx9XZmamJOnUqVOKiYkxai0tLTXW2Hz77bfq0qWLsrKyJEknTpxQTEyMTp48KUkqKSlRTEyM8RyS9O9//1sdO3ZUbm6uJOn48eOKiYkx3q+CggLFxMTIarUaa7766it5enoaEzFHjhyRq6ur8cfeM2fOKCYmxnidJelf//qX2rZtq4KCAkkypnKakgvbbU3Jhe0T0U3NRW1trfE6jh49WpJ08uRJnTx50nit09PTm50L2/t3sVzYcuDoXNTV1UmS9uzZc8W5SEhIUExMjI4dOyZJKiwsdGgubO/h+bnIyclxaC7Onj0rSYqPj1dxcbHRALxYLi60vTg/F9XV1S2Si+Tk5Evm4rvvvnN4LoqLix2Si6+//lqenp4KCgqSJJ0+fVqpqanNyoXteS5ne3HixAlJVz8XOTk5kuxzUVFRIUn68ccflZmZ6dBcVFRUODQXp0+flnRue9iSubDtE87fXuTn5zskF7t27XJYLmz7kdOnT192LjIyMlokF3v37jUmjuu/P43lorq6WtK5XHTs2FETJkzQ0aNHabYCAAAAAPAL5RIQEFBndhGAIzz77LNq266dfve735ldikNdf/31mnHbbXrWyZrIcG5vvPGGunfvrrVr1+rAgQNmlwM4lTVr1igkJERvv/22duzYYXY5gFN57LHHNH36dH366afGmSsuZt68eerXr592797N/g64hLvuukv333+/9u7dq/Xr15tdDuBUJk2apKeeekrJycl68sknzS4HcCoDBw7U+vXrVV5ervvuu8/scgCn0rFjR7333nuSpAcffNAYHgKuRUy2wmns2rVL02+91ewyWkRjpz8GAACAuWynWAcAAAAAAL9cNFt2o50xAAAgAElEQVThNLp06SJXmpIAAAC4Svz8/NS+fXsVFBTYnXYZAAAAAAD8criaXQDgKHfffbfatmtndhktgslWAACA1ufRRx/Vyy+/rJtuusnsUgAAAAAAgElotsJp1NbWml0CAAAAfkFqa2tVW1ururo6s0sBAAAAAAAm4TTCcBpvvfWWbpsxw+wyAAAA8Auxdu1as0sAAAAAAAAmY7IVaIZRo0bpr1u26Jlnnrkqz8dphAEAAAAAAAAAAFofJlvhNMLDw1VRUWHa8z+0ZIlmz56td999V9s//dS0OgDAUTZu3Chvb2+tWrVKKSkpl7yvJEVGRja4PT4+XtHR0cZtERERmjt37mXVUlZWpnXr1ik2NlaSZLFYtGLFCm3ZskXbt283nis3N1eSNHz4cLv7A0BLeOyxxzR06FB98skn+uqrr8wuBwAAAAAAmIBmK5xG586dlZ2TY3YZLYLJVgCOtHHjRgUHB0uS9u7dqzVr1jR6v8jISG3cuFErVqxo0EStz2KxyMfHR1u2bJEkRUVFyc/P74JroqOj7ZqvtsdYuXKlYmJiGnzPJjAwUO+++666detm3LZ06VItXbpUiYmJRqN1zZo1CgsL08qVK/X+++8rLS1NK1eulKenp6qqqrRp0yajQQsAV8LX11e9e/eWl5eX2aUAAAAAAACT0GyF09i5c6eGDh3qsMcbNWqUnv7tb+Xp6SlJqqqquuDUatgdd2j27Nlyd3fXww8/rEWLFjHhCqBVS0xMNJqhUVFRGj9+/EXvv2PHDruv6zctLRaLrFar4uLiFBgYKH9/f33xxRcOrzklJUWLFi2S1Phka1RUlHHf7du32zVU582bp7CwMC1cuNDhdQH45dqyZYt27tx5yel/AAAAAADgvGi2wmkkJSVp0ODBDnu8gwcPan54uPH1yy+9pAULFig1La3Bfbd/+ql8fX1b7DTCTLYCaEm2ydbAwECtXr1ae/bsaXS61NbMrD8Ja7FYNGPGDP30009KSUlRRESE/P39jYlTSQoODjZOG1y/yXu5Gjv9cP3nsanfGGaSFUBLSkhIMLsEAAAAAABgMpqtcBrjxo2Te5uWi/RPP/2knj17ttjjXwzNVgBXQ0pKik6dOqURI0Y0+N6FJlZnz55tnAEgMDBQkyZNsjs1cWPXbL2YqVOn6vbbb2+0QVr/9MO267PWb/xGRERoxIgRzW7mAsDlmjp1qnr16qX9+/fr2LFjZpcDAAAAAABMQLMVTmPUqFEOv2brM888o/HjxhlfV1VVqU9AQKPTrS1l4IABV+25AODzzz/X8uXLZbFYFBsba9w+ffp0VVZW2jVAw8LCNHjwYB09elSSNHLkSFmtVr333nvNfv5jx44pMzNTS5cu1bRp0+wap7brutqau8HBwcYUa1lZmfbt2ydvb28FBgZq5MiRCg8P1/PPP2/3cwCAI02aNEmjRo1SUVERzVYAAAAAAH6hXM0uAHCU48ePq6a62mGP98wzz2h4SIj+OypKs2+/XXt/+MFhj90Ubm5u+vWTT2rw4MF66aWXrupzA/jlio2N1alTp7R48WLjNovFoqlTp2rXrl129/Xz89Pu3btVVFT0/7F3/2FV1/f/xx/yGwR/gkvSTkotXSlw7FN0xVZz2BCdTLOalUnGYrkLa8u1RYXXIaN1zbaSNWdjpDlLTdFjykyd0+Yas3lCM8sM9Ciigr8IBQGR7x9+OQMFRYe+9H3ut+vquuSc9+t9Hucau65z8TjP10vS6XNSH3/88f/p7MKysjLl5ubqiSeeUFhYmJxOp5KTkz3ZsrOzdfToUc2aNUvFxcUqLCxUUlKSxo4dq+3bt6uurk49e/bU6NGj9cUXX1C0AriktmzZovXr16u0tNR0FAAAAAAAYAiTrbCMNWvWKGnEiA6957Fjx3T48GHFxsYqIjxcx48flyQdPnxYx44dU0R4uOfagwcPSpLCmz12sSJ791b65MkqKytTRkbG/3w/ALgQc+bMkcPhUGZmppYvX66MjAytXLmy1W19pf+e5dramapSyzNb23uGqtvtVkpKilJTUzV+/Hjt2bNHLpdLjz76qLp169biPNiCggIVFxdr+vTpGjFihMaOHet5HwBwKS1dutR0BAAAAAAAYBhlKywjIiJCPh14tumKFSv07K9+pTd+/3tVV1fr5V//WikTJmjo0KFyLlsmp9OplJQUvf7aa3ryqafkXLZMgwYP1ujRozV69GgV/vvfmjZt2gW/bnR0tJ6cPFmrVq3SO++802HvBwDay+12a+rUqXI4HJo2bZry8/PbdeZq8zNVm1zoma3nu2fzbYVbO7e1trZWN998s/Ly8v6nCVsAaI/IyEgFBwfr4MGDnil/AAAAAADgXShbYRn33Xdfh57Z+sknn+j+Bx4467EmzmXL5Fy2rMXzF1OuNnfPsGFKS0vTG2+8cdZ2nQBwOU2ZMkXdu3dXdXW1xowZo8jIyBal5pUiLi5OBQUFKi8v16pVq3TdddfpyJEjKioqkt1u15QpU7RgwYLzTtICwMVITU1VbGys8vLy9P7775uOAwAAAAAADKBshWWcPHlSamw0HeOiPfzQQ7r77ruVmZmpTz/91HQcAF4oOTlZEydOlL+/v/Lz8z1TpDabTQ6Hw1NqTp061cjUqN1uV0ZGhkJCQjyPFRYWKisrS6mpqXrggQeUl5enhIQETZgwQZs3b9axY8dUVFR02bMC8A719fWqra1VQ0OD6SgAAAAAAMAQylZYxqxZszRi5EjTMS6Yr6+vnpw8WT3Dw5WRkaH9+/ebjgTAy2RmZiouLk7l5eWaPHnyWUVq0/mp0ulCdsaMGZLUrrNXO5LL5fKcxyqd3kZYOj1ZlpiYKIfDIZfLpaKiIjkcDsXFxamwsJDthAFcMi+//LLpCAAAAAAAwDDKVlhG4/+fak1MTDSc5MLcddddOrB/v57LyNCpU6dMxwHghS5ke2Cn03lWwXqu9c3PWD2XM4vU9mh+7+bnujYvhwEAAAAAAADgUqJshWVMmDBBXbp0kRobVVVVJem/BWxrbr31VknS1q1bdeLEiQ7JcK7Xa8unW7boL3/5S4e8PgC0V1RUlAoKCjzb8FpZ8+2H6+vrTccBYCFPPvmkbr75Zi1cuFBr1qwxHQcAAAAAABhA2QrLCAwMVFhYmJYsWdKu8/mWLFkiSZozZ45KS0svdTwAuGK0d9rUKi5mahYA2qNr166KiIhQcHCw6SgAAAAAAMAQylZYxuuvv66AgACVlJSYjgIAAAAvMG/ePC1fvlx79uwxHQUAAAAAABhC2QrL2Lp1q+kIAAAA8CLFxcWmIwAAAAAAAMMoW2EZDzzwgEJCQrRq1Srt3bvXdBwAAABY3D333KNrr71WGzdu1GeffWY6DgAAAAAAMICyFZaRkJCg8PBwffLJJ5StAAAAuOTi4uIUGxurgwcPUrYCAAAAAOClKFthGR9++KFCQ0N16NAh01EAAADgBVwulyoqKuR2u01HAQAAAAAAhlC2wjLmzp1rOgIAAAC8yPLly01HAAAAAAAAhlG2wjJuuOEG+fv7a/fu3Tp+/LjpOAAAALC4vn37KjQ0VAcOHNDhw4dNxwEAAAAAAAb4mA4AdJRf/vKXys7O1o033mg6CgAAALzAo48+quzsbN15552mowAAAAAAAEOYbIVlHD9+XIGBgWpoaDAdBQAAAF6gpqZGVVVVqq+vNx0FAAAAAAAYQtkKy3jqqadMRwAAAIAX+c1vfmM6AgAAAAAAMIxthAEAAAAAAAAAAADgIlC2wjJ++9vfavbs2brllltMRwEAAIAXePrppzV79mzdc889pqMAAAAAAABDKFthGWFhYeratav8/NgdGwAAAJde586d1bVrVwUGBpqOAgAAAAAADKGVgmVMnz5d/v7+2rVrl+koAAAA8AJvv/228vPztX//ftNRAAAAAACAIZStsIzt27ebjgAAAAAvwpf8AAAAAAAAZSss46GHHlJoaKhWrFih0tJS03EAAABgcUlJSerbt68++ugjffrpp6bjAAAAAAAAAzizFZZx9913KzExUeHh4aajAAAAwAvceuutSkxM1PXXX286CgAAAAAAMITJVljG2rVr1blzZ1VUVJiOAgAAAC+wceNGlZWVsZ0wAAAAAABejLIVlvHuu++ajgAAAAAvsnLlStMRAAAAAACAYZStsIyBAwfK399fO3fuVFVVlek4AAAAsLh+/fopLCxM+/btY3cVAAAAAAC8FGe2wjJ+/vOfy+FwKCoqynQUAAAAeIHx48fL4XAoLi7OdBQAAAAAAGAIk62wjKNHj8rHx0f19fWmowAAAMALfP311zp8+LBqa2tNRwEAAAAAAIZQtsIyfvGLX5iOAAAAAC/y2muvmY4AAAAAAAAMYxthAAAAAAAAAAAAALgIlK2wjJycHM2bN0+DBg0yHQUAAABe4JlnntG8efM0fPhw01EAAAAAAIAhlK2wjKCgIIWEhMjX19d0FAAAAHiBps+ffn6czgIAAAAAgLfirwKwjOzsbPn7+6u0tNR0FAAAAHiBP//5z+rcubMqKipMRwEAAAAAAIZQtsIydu7caToCAAAAvMjevXtNRwAAAAAAAIZRtsIyUlJSFBYWJqfTqd27d5uOAwAAAIsbNWqUbDab/vGPf6ioqMh0HAAAAAAAYABntsIy7rzzTg0dOlQ9evQwHQUAAABeICYmRkOHDlXfvn1NRwEAAAAAAIYw2QrL+OCDDxQSEqLy8nLTUQAAAOAFPvroI+3atUvFxcWmowAAAAAAAEMoW2EZixYtMh0BAAAAXmTNmjWmIwAAAAAAAMMoW2EZgwcPVkBAgHbs2KHKykrTcQAAAGBx3/zmN9WlSxft2bNHBw4cMB0HAAAAAAAYwJmtsIz09HQ999xz6tevn+koAAAA8AI/+tGP9Nxzz+m2224zHQUAAAAAABjCZCsso6KiQidPnlRtba3pKAAAAPACR44c0f79+1VdXW06CgAAAAAAMISyFZaRkZFhOgIAAAC8SE5OjukIAAAAAADAMLYRBgAAAAAAAAAAAICLwGQrLGPmzJkKDw/Xiy++qC1btpiOY3k5OTmKioq6oDXFxcVKT0/3/Jyamqr4+HhNnTpVbrdbdrtdU6ZM0fLly3XPPfeoqqqqxfVnstvtysjI0JYtW5SVlXXO1266duXKlcrNzW3x+OTJkzVjxgy5XK4Lej8AAMC7Pffcc4qJidHs2bO1YsUK03EAAAAAAIABlK2wDD8/P/n5+cnHh4Hty6G1EjQ1NVWJiYnKzs5us7hMTk7WxIkT5e/v73ls5syZkqSVK1fq2LFjOn78uFJSUpSZmanZs2d7ytgzuVwuZWdnKyMjQ6mpqS1K1DPZ7XYdO3ZMq1evls1mk8Ph0IYNGyhYAQDARfP19eXzJwAAAAAAXo6yFZaRlZUlPz8/7d+/33QUnIPT6ZTT6ZR09mSrzWbTLbfc4rm2aVrVZrNp9uzZ6tWrV5v3HTNmjMaMGdPisfLycs+9o6OjVVJSIrfbreTkZNXV1Wn16tXq2bPnJXiXAADAG8yaNUshISE6fPiw6SgAAAAAAMAQylZYxp49e0xHQDu0tv1w02Rrk7S0NKWlpXl+bl6aJicn64EHHtD06dPPmkq12Wx67rnntGLFCk+hK50uda+77jqtWbNGkpSQkKA+ffq0eN1p06Z5/p2fn3/OKVkAAABJOnDggOkIAAAAAADAMMpWWMaPf/xjhYWFafHixa1uOYvLw9/fXxkZGTp27Fir2/82bT/cdD7rggULWhSjOTk52rx5c5tlZ1FRkUaPHi273X5W2RoTE+O5ponNZlN8fLzn5+TkZPXu3VuzZs2S0+nkzFYAAHDRxowZo+uvv17r16/Xpk2bTMcBAAAAAAAGULbCMm677TaFh4dr7dq1lK2GzZ07VwkJCZo5c+ZZU6KpqakttvttPsVaXFwsSYqMjJQkZWZmKiIiosX5sG63Wxs2bFB0dPRZr5uQkKCNGze2+N9/woQJqqur80yeREdHa8uWLS0KXgAAgItxyy23KDY2Vjt27KBsBQAAAADAS/mYDgB0lOXLl2vhwoWc2WpYfX299uzZo/T0dM2aNUs/+MEPNHv2bNlsNklSbm6u8vPzVV5erunTp+vo0aOaNWuWkpKSlJ6eroqKCkmnJ1AHDx7s2fq3udWrVyssLEypqamex1JTUxUWFqbVq1e3uDYwMFDz58/3/JyVleU5CxYAAOB/8eGHH2rhwoXasWOH6SgAAAAAAMAQJlthGUwqXnmcTqecTqdycnI0ZcoUpaeny263KzExUSEhIZoyZYqk/0635ufna/PmzRoxYoT69OnT5gSq2+3WkiVLNH78eFVUVCgiIkKJiYnKzs4+a6r5ueee8xS9Uutnxkotz2xtfkYsAABAW9atW2c6AgAAAAAAMIyyFZYxZMgQBQQEaNu2baqsrDQdB8003wbY5XJp7Nixklo/t9Vut6tHjx46duyY5syZ0+Y9m66fOHGi6uvrlZ2d3a4zV5tnaXo9zmwFAAAXY+DAgerWrZvcbrfKyspMxwEAAAAAAAawjTAs4yc/+YmeeeYZ9evXz3QUXICAgAClpaWpoKBAmZmZGjlypEJCQlRSUiK3263U1NQW2xA3sdvtGj9+vOrr6+Xv76+pU6cqOTnZ0LsAAADe6L777tMzzzyjIUOGmI4CAAAAAAAMYbIVllFWVqaamhrV1NSYjoJzSE1N1ZgxYzw/19fXa9asWZ7thsPCwjR9+nSlpqYqOTlZkZGRnuJVkjIzMxUXF6fq6uoW06zJycmaOHGi0tLSVFhYyLmsAADgkquoqNCePXtUVVVlOgoAAAAAADCEshWWMXXqVNMR0A65ubnKzc2V9N9thKXTZ6lKUkpKiiQpLCxMEydOlCQtXbpUs2fPVq9evVRYWKikpKSz7tt0Pqx0upAtKCjwnL0KAABwKcycOdN0BAAAAAAAYBhlKyyjU6dOkqTGxkbDSbxX8yK1PVwulx588EFJ/z2DtUnz8lSS3nrrrXbft7Wp1scff7zNDE0FLwAAwIVo+vwp8RkUAAAAAABvxZmtsIw333xT+fn5iomJMR0FAAAAXuCFF15Qfn6+Ro4caToKAAAAAAAwhLIVAAAAAAAAAAAAAC4C2wjDMl544QX5+vrq0KFDpqMAljN37ly99957WrFihRoaGkzHAQDgivCHP/xBgYGBqqysNB0FAAAAAAAYQtkKy9i/f7/pCIBl9ezZU4888ohSUlK0dOlSrVixgi82AAC83sGDB01HAAAAAAAAhlG2wjImTZqkLl26aMGCBdq5c6fpOIClNDY2KiQkRJI0evRo/ehHP9Lq1avldDpVUlJiOB0AAGbcf//96t+/v/72t7/p448/Nh0HAAAAAAAYwJmtsIzY2Fjdfvvt6tq1q+kogOV06tTJ8+/AwEBJ0tChQ5WTk6Np06YpNjbWVDQAAIwZMGCAbr/9dl1zzTWmowAAAAAAAEOYbIVlLFmyRMHBwdq3b98FrbvpppvUs2fPS5QKsC5fX19Jkt1u16BBg7Rnzx4tWrRI69atM5wMAIDLY+3atfrss8/0xRdfmI4CAAAAAAAMoWyFZRQUFFzUunHjxikyMrKD0wDexd/fX1FRUUpPT1dKSor8/f1NRwIA4JLbsGGD6QgAAAAAAMAwylZYRlxcnIKCgrR582YdOXKk3etWrlypw4cPX8JkwNVvypQp53y+rq5OjY2NWrx4sZYsWaLf/e53njNeAQCwqkGDBqlnz5766quvVFpaajoOAAAAAAAwgLIVlvHYY48pPDxcDofjgsrWwsJC/jgGnMfTTz/d4tzWJjU1NfLx8dF7772n/Px8nThxwkA6AADMGD16tGJjY5WXl8fnSQAAAAAAvBRlKyzD7XarsrJSNTU1pqMAllNXV6fAwEDPz00l6+LFiylZAQBeq6ysTF26dFFlZaXpKAAAAAAAwBDKVljGtGnTTEcALKuhoUESJSsAAM3l5uaajgAAAAAAAAyjbIVlBAQEqFOnTqqvr9epU6dMxwEsxcfHR7W1tZSsAAA04+/vLx8fHzU0NOjkyZOm4wAAAAAAAAN8TAcAOsobb7yh+fPna/DgwaajAJazaNEijRs3Tu+88w5FKwAA/9+zzz6r+fPna/jw4aajAAAAAAAAQ5hsBQCc1zvvvGM6AgAAAAAAAAAAVxzKVljGr371K/n4+KiystJ0FAAAAHiB119/XQEBATp27JjpKAAAAAAAwBDKVljGoUOHTEcAAACAF+FLfgAAAAAAgLIVlvHUU08pLCxM8+bNU0lJiek4AAAAsLgHH3xQUVFRWr16tQoLC03HAQAAAAAABviYDgB0lJtvvll2u11dunQxHQUAAABe4IYbbpDdbldERITpKAAAAAAAwBAmW2EZCxcuVHBwsPbu3Ws6CgAAALzAqlWrVFRUpM8++8x0FAAAAAAAYAhlKyxj9erVpiMAAADAi7B1MAAAAAAAoGyFZXz7299WUFCQXC6XDh06ZDoOAAAALM5ut6tnz57avn27du/ebToOAAAAAAAwgDNbYRmPPPKIJk2apL59+5qOAgAAAC8wcuRITZo0SdHR0aajAAAAAAAAQ5hshWV89dVXqqio0PHjx01HAQAAgBfYvXu3goKCdPjwYdNRAAAAAACAIZStsIxXXnnFdAQAAAB4kdmzZ5uOAAAAAAAADKNshWV07txZPj4+qq6uVkNDg+k4AAAAsLjg4GD5+fnpxIkTqq+vNx0HAAAAAAAYwJmtsIzXXntNb7/9tgYNGmQ6CgAAALzAL37xC7399ttKTEw0HQUAAAAAABhC2QoAAAAAAAAAAAAAF4FthGEZTz/9tDp16qTjx4+bjgIAAAAv8Oqrr3q2EQYAAAAAAN6JshWW8fXXX5uOAAAAAC/Cl/wAAAAAAADbCMMypkyZohdffFE33HCD6SgA0OEyMzOVmpra5nM5OTntvldycrLeeecd2e12ZWZmavbs2bLZbB0VFQC8xiOPPKIXX3xRd9xxh+koAAAAAADAECZbYRk33XSTwsPDFRoaajoKAHS45cuXKyMjQ5IUGRmpuLi4s64pKCjw/Lu8vFxTp06V2+0+5303bNggSXI4HG1e/+qrr+rDDz+U0+n0PJaZmXlWhvz8fOXm5nqeHzx4sLKzs+Vyudr5LgHg6nL99dfrlltu0caNG01HAQAAAAAAhlC2wjLmzZunoKAglZaWmo4CAB3O5XJp7ty5GjFihF566SVlZWV5nsvMzFRERITS09NbrElOTtaMGTPk7+/f6j2nTZvW4ueZM2equrq6RUGanJysG264QZWVlS3KVkktrrXb7crIyFBkZGSLbABgZStWrNDGjRv1xRdfmI4CAAAAAAAMoWyFZaxbt850BAC4pJxOp5xOp+x2u1599VWFhIS0eL75ZGthYaGysrLOKkil0wXqAw88oOnTp5936jQ6Olr+/v7q37+/bDZbm5OyLpdL+/btU0RExEW8MwC4Om3atMl0BAAAAAAAYBhlKyxj6NChCg4O1saNG1VRUWE6DgB0mNTUVI0ZM0bSf7fqHTt2rOf5tiZbJclms8nhcKikpKTFxGnnzp01cuRIT9mampqq+Pj4FlsJ2+12DR48WOvWrdNtt92mYcOGebYJBgBIt912myIiIrRt2zbt3LnTdBwAAAAAAGAAZSssY9y4cQoPD9fevXspWwFYSm5urnJzc5WTk6MePXpo0aJFZ021Si0nW+vr65WXlyen06mUlBTl5OQoJyenRSE7ZMgQPfjgg7rnnnvUvXt3vf/++y3uZ7fbdezYMS1YsEB9+/ZVdHR0mxntdrt69+6tlStXdsA7BoCrQ2JiomJjY5WXl0fZCgAAAACAl6JshWV8/vnn6tq1q6qqqkxHAYBL5vDhwxo7dqxycnJUUVFx1vmobW0RfObU6/Hjx7Vv3z49/PDDKi4uVkpKSovnbTab4uPjVVJSIrfbrc2bNysxMVF2u91z35CQkBbnvjZN3QKAt9i5c6d8fX118OBB01EAAAAAAIAhlK2wjN/+9remIwDAZRUXF9dimrVJdXV1q9c3bSncq1cvVVdXa968eRo5cqSGDBmi5OTkFue7xsTEKDQ0VJs3b5Z0+kzWxMTEFlsPV1dXKzs7+7znvgKAVc2dO9d0BAAAAAAAYBhlKyyjW7du8vHxUVVVlerr603HAYBLrrCwsM3J1uaaznxt2lpYkuearKwspaamKi0tTQkJCZ4J2ISEBIWEhCgtLU1paWmee/Xv3182m+1Svi0AuGqEhYXJ399f1dXVOnHihOk4AAAAAADAAMpWWMZvfvMbhYeHy+FwqKioyHQcALgkQkJClJ2drcDAwPNOtiYnJ2vixInavXu3kpKSPM8nJye3uL75mbCLFi3SwoUL1bt377O2BU5OTtb48eMVExNzid4dAFxdfvazn3nObD3z3GsAAAAAAOAdKFsBALgK2Gw2hYWFKTExUfn5+QoLCzvvZKvT6WyxNfD5NE21ZmZmStJZ2wMXFRVp9OjRSkhIUEVFxf/ydgAAAAAAAADAEihbYRmTJ09Wp06dVFtbazoKAHS4nj17SpKef/55uVwu5eTktHg+JydHUVFRkqTi4uJWz1FtzzWSzipwm7jdbqWkpLQrb1v3AAAreeWVV+Tr66u6ujrTUQAAAAAAgCGUrbCMmpoa0xEA4JJxuVwtis6mKdS2fm5Ne64BALQfX/IDAAAAAACUrbCMZ599Vl27dlVeXp6+/PJL03EAAABgcY899phuvPFGLV++XBs2bDAdBwAAAAAAGOBjOgDQUfr376+bbrpJISEhpqMAAADAC1x77bW66aab1L17d9NRAAAAAACAIUy2wjJmz56toKAg7d6923QUAADaLTs7W4sXL9amTZtMRwFwgZYtW6Z//vOf7KoCAAAAAIAXo2yFZfzzn/80HV3mCE8AACAASURBVAEAgAsWExOjAQMG6MCBA3rvvfe0du1a05EAtFNRUZHpCAAAAAAAwDC2EYZlfP/739cPf/hD9erVy3QUAAAuSFBQkGw2m37605/qL3/5i0aPHq2AgADTsQCcxx133KHRo0crKirKdBQAAAAAAGAIZSssY+zYsZowYYIiIyNNRwEAoN0aGxs9/w4ODlaPHj00fvx4LVy4UI8++qgiIiIMpgNwLsOGDdMjjzyib33rW6ajAAAAAAAAQ9hGGJaxZcsWdenSRZWVlaajAPj//Pz85O/vbzoGcEXr1KnTWY8FBQVJkpKTk3Xfffdp3bp1ys/P11dffXW54wE4hy+//FINDQ06cOCA6SgAAAAAAMAQylZYRk5OjukIAM4wbtw4TZ061XQM4KoVEBCgxsZG3X333frOd76jrVu3eopYAObNnz/fdAQAAAAAAGAYZSssIyIiQr6+vjpy5Ihqa2tNxwEgqbKyUgUFBaZjAFe04cOHtzrd2lxtba1KS0u1ZMkSjRgx4jIlA3A+3bt3V2BgoL7++mtVV1ebjgMAAAAAAAygbIVlZGdnKzw8XA6HQ0VFRabjAJC0bNkybdq0yXQM4Io2dOjQVqdVGxsbVVdXp9LSUv3lL3/Rv//9b0mibAWuIOnp6YqNjVVeXp7ef/9903EAAAAAAIABlK0AAAAGnTp1qsXPbZWsAAAAAAAAAK48lK2wjCeeeEKS1NDQYDgJAADt17SFMCUrcPV56aWX1KlTp7O+NAEAAAAAALwHZSss4+TJk6YjAABwwfz9/T1nslKyAlcXvuQHAAAAAAAoW2EZmZmZ6tatm2bNmqXt27ebjgMAQLvs2rVL8+bNo2QFrkKPP/64BgwYIKfTqfXr15uOAwAAAAAADKBshWX07dtX4eHhCg4ONh0FAIB2mzx5sukIAC7SNddco379+qlLly6mowAAAAAAAEMoW2EZf/rTnxQYGKhdu3aZjgIAAAAvkJ+fr7///e8qKSkxHQUAAAAAABhC2QrL2Lhxo+kIAAAA8CJbt241HQEAAAAAABhG2QrLGDlypEJCQrR+/XodOHDAdBwAAABY3He+8x1dc801Kioq0pdffmk6DgAAAAAAMICyFZaRnJys8PBwffnll5StAAAAuOTuvvtuxcbGqqamhrIVAAAAAAAvRdkKy9i0aZO6dOmio0ePmo4CAAAAL7Bt2zadOHFCZWVlpqMAAAAAAABDKFthGX/84x9NRwAAAIAXWbRokekIAAAAAADAMMpWWEZkZKR8fX1VUVGhEydOmI4DAAAAi4uIiFBQUJCOHj2qqqoq03EAAAAAAIABPqYDAB3F4XBoxowZGjBggOkoAAAA8AJPPPGEZsyYobvvvtt0FAAAAAAAYAhlKyyjsbHR8x8AAABwqfH5EwAAAAAAsI0wLOPxxx83HQEAAABe5MUXXzQdAQAAAAAAGMZkKwAAAAAAAAAAAABcBMpWWMaLL76o3//+95zZCgAAgMti0qRJ+v3vf6/vfve7pqMAAAAAAABD2EYYlnHNNdcoPDxcQUFBpqMAAADAC4SHh+vaa69VaGio6SgAAAAAAMAQylZYxh/+8AcFBARo586dpqMAAADACyxYsEAffPCB3G636SgAAAAAAMAQylZYxieffGI6AgAAALzI9u3bTUcAAAAAAACGUbbCMsaMGaOQkBD97W9/0759+0zHAQAAgMUNHTpUkZGR+s9//qMvvvjCdBwAAAAAAGCAj+kAQEcZPny47r33Xn3jG98wHQUAAFxlkpOT9eabb8pms7V5zauvvqrk5OQWj+Xk5CgzM/OCXy8nJ0ezZ88+5+s1vzYnJ6fVx1NTUy/4tdFx4uPjde+99+rGG280HQUAAAAAABjCZCss49///rc6d+6sI0eOmI4CAACuUHa7XRkZGQoJCWn1+ZkzZ571WHl5uaZOnaoPP/xQ48ePlyQ5nU6lpqYqKipKUVFRKigoOGtdcXGx0tPTW32d9PR05eTkaMqUKW1e05S3Z8+eWrBggSQpMzNTERER51yDy+fTTz9VZWWl9u7dazoKAAAAAAAwhLIVlpGbm2s6AgAAuMK5XC6NHTu2xWM5OTmqqqpSeHi4JGnjxo2tfq5wu92KiIhQQkKCpNNbyD7//PNyuVxnXdtUimZmZiouLu6cmc4sauvr65WXlyen0ym73a66ujoVFRXJZrOpT58+WrFixQW9Z1w6S5YsMR0BAAAAAAAYRtkKy7DZbPLz81NZWZlqampMxwEAAFew5hOu+fn5qqio0IgRI/TSSy9pypQpKigoUGFhobKyslqsy83Nld1u15QpU7RgwYJWi9YmFRUVnvU2m00Oh0MbNmxotcht2oq4+evZ7XYlJiZqy5YtcrvdSk1NVZ8+fZSWlqa0tDRJUlRUlMaMGSPp3JO0uDR69+6tkJAQHTx4UJWVlabjAAAAAAAAAyhbYRnPP/+8wsPD5XA4VFRUZDoOAAC4AqWmpnrKySbNf26+jXBcXJwKCgpUXV0tt9utgQMHSpLy8/P14IMPKjMz01N6Nmmr8HS73SopKVF0dPRZz7U1sTpy5EjPdsc2m03x8fEtCuCcnBxt3ryZ3T0M+vGPf6zY2Fjl5eXp/fffNx0HAAAAAAAYQNkKy6irq1Ntba1OnTplOgoAALhC5ebmKjc3V6mpqYqOjm5zErT59KrT6ZT03+nU5pqXq01bB7dl+fLlmjx5sux2e4uJ2GHDhqm2ttbzOpKUnJysAQMG6PPPP5ckxcTEqK6uTnPmzLm4N45Lor6+ns+fAAAAAAB4OcpWWMZPf/pT0xEAAMBVJCoq6qzzUpurr6+/4HsUFxdLkiIiIlRRUdHiWpfLpZKSEj366KOestVut2vo0KFasGBBi2sjIiK0du1aRUZGSpKcTmeLMhZXhpdfftl0BAAAAAAAYBhlKwAAALzSuc44bZpsvZB7nG+yVZLmzJkjh8OhzMxMLV++XBkZGVq5cuVZRWrT1sBNZ7m2tv2x1PLM1vr6euXl5VHKAgAAAAAAXEaUrbCMX//61+rRo4dee+01bdu2zXQcAABwheuIydYL5Xa7NXXqVDkcDk2bNk35+fntOnO1afvj5jiz1bwnn3xSN998sxYuXKg1a9aYjgMAAAAAAAygbIVl9OzZU+Hh4QoICDAdBQAAXAUudrI1JCRE2dnZktreRliSysrKWl0/ZcoUde/eXdXV1RozZowiIyOVlZV1sW8DBnXt2lUREREKDg42HQUAAAAAABhC2QrLeP311xUQEKCSkhLTUQAAwBXufNOgLpdLDz74YKvPJSYmKj8/X5GRka0Wtna7Xb1799bmzZs9jyUnJ2vixIny9/dXfn6+Z43NZpPD4VBBQYHKy8s1depUud3u//Hd4XJ55513tHz5cpWWlpqOAgAAAAAADKFshWVs3brVdAQAAHCFa+vs03Oprq72TLJK0vPPPy+Xy9XiGrvdroyMDIWEhEg6PeGam5urzMxMxcXFqby8XJMnTz6rSHW73UpJSZF0upCdMWOGJHH26lXiq6++Mh0BAAAAAAAYRtkKy7j//vvVuXNnrVq1Snv37jUdBwAAXIFaO/v0QjQVo2dyuVwaO3bsWY9fyPbATqfzrIL1XOvb2gIZl8+wYcPUp08fbdy4UZ999pnpOAAAAAAAwADKVljGsGHDFB4erk8++YSyFQAAAJfcHXfcodjYWB08eJCyFQAAAAAAL0XZCsv4xz/+odDQUB06dMh0FAAAAHgBl8ulgwcPavfu3aajAAAAAAAAQyhbYRlvv/226QgAAAC4whQUFGj9+vVaunSptm/f3qH3Xr58eYfeDwAAAAAAXH0oW2EZN9xwg/z8/LRnzx4dP37cdBwAAABcIe666y7Fx8fr888/13vvvaePP/64Q+7bt29fde7cWeXl5Tp8+HCH3BMAAAAAAFxdfEwHADrKL3/5S7388su68cYbTUcBAADAFcbX11c333yzMjIy9Oabb2rYsGH/8z0fffRRvfzyy7rzzjs7ICEAAAAAALgaUbbCMo4fP65jx46poaHBdBQAAABcgTp16qTAwED16dNHaWlpevfddzV27FgFBwdf1P1qamp07Ngx1dfXd3BSAAAAAABwtWAbYVjGU089ZToCAACXzV133aXExETTMYCrVkhIiCTpoYce0iOPPKJly5Z5Hmuv3/zmN5ciGgAAAAAAuIpQtgIAAFylfH19TUcArnq+vr7y8/OTn5+fGhsbTccBAAAAAABXGcpWWMZvf/tbde/eXa+++qq2bt1qOg4AAJfU+vXrVVBQYDoGcMVr7f8nnTp1Ul1dnfz9/VVQUKD8/HyVl5dr0qRJF3Tvn//85xo0aJDeffddrVq1qqMiAwAAAACAqwhlKywjLCxM3bp1k58fv9YAAAA4W/OS9a9//aunZL1YoaGh6tatmwIDAzswJQAAAAAAuJrQSsEyXn31Vfn5+WnXrl2mowAAAOAK0tEla5O3335b+fn52r9/fwekBAAAAAAAVyPKVljGF198YToCAAAArjD19fUdXrI24Ut+AAAAAACAshWW8dBDDyk0NFQrVqxQaWmp6TgAAAC4AqxcuVKLFy/u0JK1SVJSkvr27auPPvpIn376aYffHwAAAAAAXPl8TAcAOsrdd9+txMREhYeHm44CAACAK8TMmTMvSdEqSbfeeqsSExN1/fXXX5L7AwAAAACAKx+TrbCMtWvXqnPnzqqoqDAdBQAAAF5g48aNKisrYzthAAAAAAC8GGUrLOPdd981HQEAAABeZOXKlaYjAAAAAAAAwyhbYRkDBw6Uv7+/du7cqaqqKtNxAAAAYHH9+/dXaGio9u3bx+4qAAAAAAB4Kc5shWX8/Oc/l8PhUFRUlOkoAAAA8AIPP/ywHA6H4uLiTEcBAAAAAACGMNkKyzh69Kh8fHxUX19vOgoAAAC8QFVVlQ4fPqza2lrTUQAAAAAAgCGUrbCMX/ziF6YjAAAAwIv87ne/Mx0BAAAAAAAYxjbCAAAAAAAAAAAAAHARKFthGTNmzNC8efN0yy23mI4CAAAAL/DMM89o3rx5Gj58uOkoAAAAAADAEMpWWEZwcLBCQkLk58fu2AAAALj0goKC+PwJAAAAAICX468CsIyXX35Z/v7+2rNnj+koAAAA8AJ//vOfFRoaqvLyctNRAAAAAACAIZStsIySkhLTEQAAAOBF9u7dazoCAAAAAAAwjLIVlpGSkqLQ0FA5nU6mWwEAAHDJjRo1Stddd502bNigoqIi03EAAAAAAIABnNkKy7jzzjv1ve99Tz179jQdBQAAAF4gJiZG3/ve99S3b1/TUQAAAAAAgCFMtsIyPvjgA3Xu3JkzswAAAHBZ/Otf/5Lb7VZxcbHpKAAAAAAAwBDKVljGokWLTEcAAACAF1m9erXpCAAAAAAAwDDKVljG4MGD5e/vrx07dujrr782HQcAAAAWd+ONN6pLly4qLS3VgQMHTMcBAAAAAAAGULbCMtLT0xUeHi6Hw6GioiLTcQAAwFUgNTVV0dHRSk9Pb/Mam80mh8OhXr16qbi4WOnp6crMzFRcXFy7X6ewsFBZWVmtPpeZmanBgwcrOztbLpfrnPfJzMxU//79NXXqVLnd7haPS2rzNXBpjBs3TrGxscrLy9P7779vOg4AAAAAADCAshWWcfDgQZ08eVK1tbWmowAAgKvE6tWrFR8fr8zMTGVlZSk1NVVjxow567r8/Hzl5ubKbrfLZrNJkqd4PZ+cnJxzPp+VlaXMzExNnjz5rBK1OZvNpv79+2vDhg1yu91KTU1VfHy8pk6d2o53ikvhyJEj2r9/v6qrq01HAQAAAAAAhlC2wjKeffZZ0xEAAMBVxu12a8aMGZo8ebLsdrskqby8vM3S83yTp+fSVpHb3MyZM896rKnojYmJUUBAgCdDdHS0p3iFGecr0gEAAAAAgPVRtgIAAMCruVwupaSkSJKncL0QbZWoZ24dnJubq9zcXEmnS7qKiopWt/1tbWtjm82m0aNH69ChQ3K5XEpOTtZ1112nqKioFq9dUFAg6dyFMQAAAAAAADoOZSssY+bMmQoPD9eLL76oLVu2mI4DAACuUr169Wp1wlT675Tpmc7cUvh8E4+bN29WfHy8bDbbWYVodHS0Nm/e3OKxYcOGqVevXqqqqpIkJSQkaPfu3Z7X5MxWM5577jnFxMRo9uzZWrFihek4AAAAAADAAB/TAYCO4ufnJz8/P/n48GsNAADOLzk5WU6nUwUFBZ6yUpJKS0tVXl6uwsJCJSUlKSkpSbNmzdLRo0f/p22Em1u9erXq6uoUExNzVqbAwECtXr3a85jdbtfQoUNVVFTk+TksLExvvfVWh2TBxfP19eXzJwAAAAAAXo7JVlhGVlaW/Pz8tH//ftNRAADAVcDpdMrpdLYoWiMjI1VbW6uXXnpJDodDixYt0sqVK5WYmKi5c+d2WNnqdru1ceNGjR49WkVFRXK73Z6tgs88h7Vv374qKirS4cOHFR0d3WLbY5j15ptvKjg4WIcPHzYdBQAAAAAAGELZCsvYs2eP6QgAAOAqZrPZ1L9/f0/ZmZKS4jmPtbCwUE6ns0NfLzc3V9HR0ZoyZYqmT58uh8OhkpKSs7Ypbnrd1NRUSaenXydOnCh/f/+z7tl0ZqvU9pbH6Dh8yQ8AAAAAAFC2wjJ+/OMfKywsTIsXLz7r7DMAAIDzGTZsmEJDQ+VyuTwla3l5uaZPn65JkyZp0aJFys7ObnW6NSoqqkXRKUkVFRXnfc309HTl5ORo5syZKiwsbNeZq00Tuc1xZqsZo0ePVr9+/bR+/Xpt2rTJdBwAAAAAAGAAhwvBMm677TZ9+9vfVvfu3U1HAQAAV5mgoCDFx8dr48aNysjIUHx8vJ544gmlpKRo7dq1Gjt2rPbt26dHH3201fXFxcWe812TkpJUXFzcrtfNzMxUVFSUjh49qri4OOXk5HTk28IlNmjQIH37299WZGSk6SgAAAAAAMAQJlthGcuXL1dISAjbuQEAgHax2WxyOBwqKytTZGSkNmzYcM5td9PT01t9vLU1bV0rSXa7XRkZGQoJCVFhYaGSkpI8z+Xk5KigoEDV1dVtTtHiyvHhhx9qx44d2rFjh+koAAAAAADAEMpWWEZHn6MGAACsLSYmRocOHVJGRoaneB0zZsw519TX1ysvL09S61sHt6WiosKzNfG5itSmkrZ5IcvZq1eudevWmY4AAAAAAAAMo2yFZQwZMkQBAQHatm2bKisrTccBAABXuOZnn7rdbqWkpLR7bXR0tIqLi885wdqkaWvg3NzcdpemLpdLY8eObfHYudZyVqsZAwcOVLdu3eR2u1VWVmY6DgAAAAAAMICyFZbxk5/8ROHh4XI4HCoqKjIdBwAAWNiFlJvtKWRxdbrvvvsUGxurvLw8ylYAAAAAALyUj+kAQEfZt2+f9uzZo5qaGtNRAAC4oowaNUrXXHON6RiA5VRUVGjPnj2qqqoyHQUAAAAAABjCZCssIzMz03QEAACuKKNGjdK4ceMUEBCg7du3a//+/aYjAZYyc+ZM0xEAAAAAAIBhlK2wjE6dOkmSGhsbDScBAMCs5iVrcHCwJCkgIMBwKsB6+PwJAAAAAADYRhiW8eabbyo/P18xMTGmowAAYMSoUaP07rvvasKECerataunaJUoW4FL4YUXXlB+fr5+8IMfmI4CAAAAAAAMYbIVAADgKtfaJOuZfHz4jh0AAAAAAADQ0ShbYRkvvPCCfH19dejQIdNRAAC4LJKTk/WjH/1IQUFBCgwMPOe1SUlJOnbsmD7//HNJ0k033aTvfve7kqSqqirNmzfPc+3DDz+s0NBQSdLf/vY37dixQ5I0cOBA3XXXXZKko0ePav78+Z41KSkpCgoKkiStWrVKJSUlkqRBgwbpzjvvlCQdPHhQixYt8qx57LHH5O/vL0n661//KrfbLUmKiYlRXFycJOnAgQNasmSJZ01aWppn69bly5ertLRUknTrrbfq1ltvlSSVlZVp2bJlkk5v85qWluZZv3TpUs/ZtbfffrtiY2MlSXv27NGKFSskSX5+fkpNTfWsWbx4sSoqKiRJd955pwYNGiRJ2rVrl1auXClJCgoKUkpKimfNggULdOTIEUnSd77zHX3rW9+SJH311Vdas2aNJKlz584aP368Z80777yjr7/+WpI0dOhQffOb35Qkbd++XX//+98lSV27dtW4ceM8a95++21VV1dLkhISEnTDDTdIkj777DP94x//kCT16NFD999/v2fN7NmzdeLECUlSYmKirr/+eknSli1b9NFHH0mSevXqpTFjxnjW5Obm6uTJk5KkESNGqG/fvpIkl8uljRs3SpJ69+6t5ORkz5pZs2Z5ttcdNWqUIiMjJUkff/yxNm3aJEnq06ePRo4cKUk6deqU3nzzTc/6MWPGqFevXpKkwsJCFRUVSZJsNpuGDx8uSaqrq1NeXp5nzX333aeePXtKkv75z3/q008/lSRFRUVp2LBhkqSamhrNmTPHs2bcuHHq2rWrJKl79+66EH/4wx8UGBioysrKC1oHAAAAAACsg7IVltH0h1MAALzB4MGD9a1vfUsBAQHt2iL49ttvV2Fhoads7dOnj0aNGiXpdKHZvGxNSEjwlFxffvmlp2y12WyeNaWlpS3K1u9///uewmrr1q2esrVfv36eNcXFxS3K1uHDhyskJESStGnTJk/ZeuONN3rWfP755y3K1pEjR8rX11eS9K9//ctTtt50002eNZs3b25RtjY9Lkkffvih5zPDwIEDPc/95z//aVG2Nl+zZs0aT9l68803e5776KOPPGVrQEBAizUFBQWesnXw4MFKSkqSJK1bt85TtgYHB7dYs3TpUk/ZGhMTo4SEBEmny+umsjUkJKTFmvfee89Ttg4ZMsRThvv6+nrK1rCwsBZr5s2b5ylb/+///k933HGHJKmhocFTtnbt2rXFmrfeestTtsbFxWnIkCGSTheXTWVrjx49WqyZNWuW59/NS+rKykpP2RoeHu5Zc/LkyRZla3x8vAYMGCDpdFHfVLZ+4xvf8Kyprq5uUbbedddd6t+/v6TTpXtT2dq7d2/PmqNHj7YoW7/73e+qT58+kk4Xzhfi4MGDF3Q9AAAAAACwnk59+/ZtNB0C6AiTJk1SWFiYFi5cqJ07d573+qY/3Kanp3v+UAugY/zxj3/UN77xDU2bNs3zB3UAHSMrK0uDBg3Sn/70JxUUFOiuu+7S/fffr2uvvfacpetLL72kwsJCNTQ0SDpdKDZNlTY2NnrKN+n0lGbT9GhdXZ1nja+vr+c1Tp06pdra2kuypnm2M9c03ya5rTUNDQ2qq6trdU1tba1OnTrV4Ws6derkmew9c42/v7/8/E5/x/HkyZOqr69vdc2JEyc8k6AducbHx6fF5HPzNQEBAZ7yur6+3lOonrmmpqbG8++OXNP89+PMNYGBgZ7tr9v6nTrzd/d/XTNx4kQlJCRo2bJleuutt3Q+999/v/r166e1a9fq448/Pu/1gDe799579fDDD6uwsFCvvPKK6TiApcTHx+vpp5/Wrl279LOf/cx0HMBSvvnNb+qVV15RTU2NHnzwQdNxAEvp0qWL54uwEyZM8Hz5GLgaMdkKy4iNjVV4eLg++OAD01EAALhs1q9fr/Xr1ysmJkb33nuvhgwZopMnT3pKtyYnTpzwFE/S6TKuqfA6U/MiqrmGhoYWZdilWnOubG3dy/SaxsbGNtfU19d7ik8Ta06dOtXmmuYFs4k15/r9aF6yX641TSV0ew0YMECxsbHatm3bBa0DAAAAAADWQdkKy1i6dKmCg4O1b98+01EAALjsioqKVFRUpH79+umHP/yhhg0bptraWgUFBV1wgQSgfdauXatt27bpiy++MB0FAAAAAAAYQtkKy2g6Zw0AAG+2c+dO/e53v9OcOXM0YsQI/fCHP1RjY2OLqVYAHWPDhg2mIwAAAAAAAMMoW2EZcXFxCgwM1JYtW3TkyBHTcQAAMOrw4cOaO3eu5s2bp5iYGJWXl5uOBFjOoEGD1LNnT+3YsUN79+41HQcAAAAAABjgYzoA0FEee+wxPfXUU7LZbKajAABwxTh16pRcLpfKyspMRwEsZ/To0XryySdlt9tNRwEAAAAAAIYw2QrLcLvdqqysVE1NjekoAAAA8AJlZWXq0qWLKisrTUcBAAAAAACGULbCMqZNm2Y6AgAAALxIbm6u6QgAAAAAAMAwylZYRkBAgDp16qT6+nqdOnXKdBwAAABYnL+/v3x8fHTy5Ek1NDSYjgMAAAAAAAzgzFZYxhtvvKH58+dr8ODBpqMAAADACzz77LOaP3++kpKSTEcBAAAAAACGULYCAAAAAAAAAAAAwEVgG2FYxq9+9Sv5+PiosrLSdBQAAAB4gddff10BAQE6duyY6SgAAAAAAMAQylZYxqFDh0xHAAAA+H/t3XtcVXW+//G3KCAIkookKiLSZJaAm6xMnZpQh1SCnGo6pUwe1GnGn3adJu1HWmZWdrNT86uZktHTOOd0mpHBWydTs5IRvABS3kMFb6HgjYsCKr8/au3ZGzaIu42Lvffr+XjM4zFu9tr7k34Xa63v+3uBF2GQHwAAAAAAIGyFx3j00UfVuXNnLVmyRPv27TO7HAAAAHi4Bx98UNHR0Vq9erVyc3PNLgcAAAAAAJiAPVvhMQYOHKj4+Hh17tzZ7FIAAADgBa655hrFx8crLCzM7FIAAAAAAIBJmNkKj/Hxxx+rY8eOOnz4sNmlAAAAwAusXr1aBQUF2r59u9mlAAAAAAAAkxC2wmOsXr3a7BIAAADgRXJycswuAQAAAAAAmIywFR7jpz/9qTp27Ki8vDyVl5ebXQ4AAAA8XHx8vLp166bdu3erpKTE7HIAAAAAAIAJ2LMVHuNXv/qVpk6dqoiICLNLAQAAgBdISkrS1KlTFRcXZ3YpAAAA5vwEQwAAIABJREFUAADAJMxshcf49ttvVVZWpqqqKrNLAQAAgBc4ePCgAgICdOLECbNLAQAAAAAAJiFshcd45ZVXzC4BAAAAXuTPf/6z2SUAAAAAAACTEbbCY3Tq1Ent2rXT2bNndeHCBbPLAQAAgIcLCAhQ+/btVVNTo7q6OrPLAQAAAAAAJiBshcdYsGCBQkND9fzzz6ugoMDscgDAZWbNmiVJmjNnTpPviY+P1zPPPKPAwEDl5ORozpw5mjVrloYMGdLi7zGOa6qG2NhYzZs3T3l5eZest1+/fpo9e7aKi4sv678DANzJU089JYvFooyMDC1fvtzscgAAAAAAgAkIWwEAaONWrFihZ555RpMnT9YHH3zgMEStq6tTRkaGsrKylJCQYH29qKhI06dPv+R3vP32283+3AhvH3nkkUYhqq3IyEj169dPGzZsUHFxsSZPnqzhw4dr9uzZLfgvBQAAAAAAAAD3QtgKj/Hkk0/Kx8dHlZWVZpcCAC6Vl5enDz/8UGPHjtVnn30mqfkQdd26dU5/1+TJk/WLX/yi2fe8++67jV5bunSpPvjgAw0aNEh+fn7W2a9xcXHW4BUAPM3rr78uX19fnT171uxSAAAAAACASQhb4THOnDljdgkA0GqysrKUlZXl9PFNhagNlw7+4IMP9MEHH0j6frbr8ePHHS77O3nyZMXFxdkFvpGRkRo3bpzKy8uVl5enlJQU9enTR9HR0XbfvWrVKknSsWPHmp0lCwBtXVVVldklAAAAAAAAkxG2wmP87ne/U+fOnfWf//mf+vbbb80uBwBaVXR0tDW0tGW7nHBDDWfDXmrp4G3btmn48OGKjIxsFIjGxcVp27Ztdq+NGjVKYWFhqqiokCSNHDlSJSUl1u9kz1YAnuZXv/qVrrnmGn3yySfauHGj2eUAAAAAAAAT+JhdAOAq/fv3V0xMjIKCgswuBQBcZvLkyVq1apVWrVqlyZMnW1/fuXOnqqurtXTpUo0ZM0ZjxozR0qVLdfLkSRUUFLjkuz/77DPV1tZq0KBBdq+npKTI39/fuqSxJMXHxyshIcH63fHx8QoODtaf//xnl9QCAG1R3759FRMTo9DQULNLAQAAAAAAJmFmKzzGkiVL1LFjRx06dMjsUgDAZYxlfW1noXbv3l3Hjx/XvHnz9Mwzz2j48OHKy8vTbbfdpnnz5rlsWd7i4mJt2rRJ48aNU0FBgYqLi61LBTfchzUiIkIFBQU6ceKE4uLilJeXp4kTJ7qkDgBoq1atWqVNmzZp165dZpcCAAAAAABMQtgKj7F+/XqzSwCAVhcfH69u3bppzZo1ysvL07333qtZs2bpzjvv1NKlS5WXl+fS7/vggw8UFxen3/3ud3rttdf0/PPPa9++fdZ9XQ3GssXG7NuUlBSlpaXJ19e30WfaLn+8dOnSRp8FAO5iy5YtZpcAAAAAAABMRtgKj5GQkKCAgABt2rRJx48fN7scAGgVSUlJqq2tVUFBgWbNmqUhQ4aoqKhIf/zjH5WWlqbhw4dr9uzZDme3OtrntSW/L6dPn663335b7777rnJyclq052pWVlajfWPZsxWAp7npppsUFhamHTt2aP/+/WaXAwAAAAAATMCerfAYDzzwgCZPnqxevXqZXQoAtIquXbvquuuu044dO/Qf//Ef6t69u8aMGaPp06crKytLjzzyiCTpoYcecnh8UVGRdX/XMWPGqKioqEXfO2vWLEVHR+vUqVMaMmSI3ZLGAODNRo8ercmTJ2vgwIFmlwIAAAAAAEzCzFZ4jJ07dyokJEQVFRVmlwIALhMfH69nnnlGmzZt0qBBg/TRRx81mjFqKC4ubnKfVEdL9U6fPv2S3xsYGKicnByNGTPG+rO3335bq1atUnV1tebNm+fypYsBwF3s379f7du3V1lZmdmlAAAAAAAAkxC2wmO88cYbZpcAAC4XHx+vwsJCzZ8/3xqAPvzww80eY4SgkuOlg5ty/PhxTZ48Wb/4xS+aDVKNkNY2kGXvVQDe6MMPPzS7BAAAAAAAYDLCVniMkJAQtW/fXhUVFaqrqzO7HABwCdsAMy8vT/fee2+Lj01KSlJRUVGzM1gNxtLAH3zwQYtDU0f1NHcse7UC8DTBwcHy9fVVdXW1zp07Z3Y5AAAAAADABISt8BivvfaaQkND9fzzz6ugoMDscgDAdJcTbrYkkAUA2Hv88cdlsViUkZGh5cuXm10OAAAAAAAwgY/ZBQAAIEmDBw9Whw6MAQIAAAAAAAAAuA96teExHn30UUlSTU2NyZUAuByDBw/Wgw8+qKioKE2YMEHnz583uyQAAFpk/vz58vHxUW1trdmlAAAAAAAAkxC2wmNUV1ebXQKAy2Absvr7+0uSfHxYcAEA4D7YpxUAAAAAABC2wmPMnDlTISEhWrhwofbu3Wt2OQCa0DBkra+vt/6MsBUA4E7S0tJ07bXXasWKFdqwYYPZ5QAAAAAAABMQtsJj9OvXT6GhoerUqZPZpQBwYPDgwRo/frz69u1rF7K2a9fO+p727dubVR4AAJetd+/e6t+/v7Kzs80uBQAAAAAAmISwFR5j0aJF6tixo0pKSswuBYANI2Tt16+ffH19HYashqFDh6qiouJKlwi4leDgYLNLAPCDZcuWKTs7W3v27DG7FAAAAAAAYBLCVngMZhQAbYuPj48efPBB9e/f3/pnyXHIapg6deoVqQ1wZ7t37za7BAA/KCgoMLsEAAAAAABgMsJWeIzExEQFBAQoOztbx48fN7scwOtdvHhRf/3rX3Xq1CndfffdGjFihOrq6uTr69vkMa+++qpOnz59BasE3E9qaqrZJQD4wa233qqrr75aX3/9tYqKiswuBwAAAAAAmICwFR7j3nvvVWhoqA4cOEDYCrQhRUVFev3117V48WKNHTtWKSkpqq+vV0BAQKP3FhYWqry83IQqAfdx9913m10CgB+MGjVKFotFGRkZhK0AAAAAAHgpwlZ4jMLCQoWEhDArDmijysrKtHjxYv31r3/V2LFjdc899ygwMNAudG1uiWEAANqaPXv26OLFiyotLTW7FAAAAAAAYBLCVniMt99+2+wSALRAXV2d/vGPf+gf//iHEhISdO+99yo8PFz+/v6qr683uzwAAFrsv//7v80uAQAAAAAAmIywFR6je/fu8vHx0cmTJ1VbW2t2OQBaYN26dVq3bp1uuOEGjR07VhcvXjS7JAAAWqxLly7y8/NTRUWFqqurzS4HAAAAAACYwMfsAgBXmTdvnt577z1df/31ZpcC4DJt375d8+fP18mTJ80uBQCAFps+fbree+89jRgxwuxSAAAAAACASQhbAQAAAAAAAAAAAMAJLCMMj/Hb3/5W7dq10/nz580uBQAAAF7gxRdflI+Pjy5cuGB2KQAAAAAAwCSErfAYhKwAAAC4ki5cuEDQCgAAAACAl2sfEhLynNlFAK7w/vvvKy0tTT/72c/03Xff6ejRoxo1apSmTZumnj17qqCgQGFhYXrhhReUmJioLl26SJJ69eql5ORkHT16VKWlpRo9erSmTp2q7t27q7CwUL169dLzzz+vESNG6LPPPpMkpaen6+6771ZJSYnKysqUnJyshx9+WF26dNE333yjvn37atasWbrtttu0bt06SdJzzz2n5ORk7du3TydOnNAvfvELTZkyRUFBQdq5c6euueYapaena+jQoVq/fr2k72dLJCUlac+ePTp16pTuv/9+TZo0Sf7+/tq9e7cGDBigZ555RjfddJO+/PJLSdIrr7yiMWPG6JtvvlFFRYUmTJigiRMnqn379tq7d69iYmI0Y8YMDRo0SNnZ2ZKk119/XXfeeacKCgpUVVWliRMn6le/+pXq6+tVVFSk+Ph4PfXUUxo4cKA2btyoDh066LXXXlNiYqK2bNmis2fPavLkyZowYYJqamp04MAB3XLLLXryySd13XXXKTc3VwEBAZo/f74SExO1ceNG1dTUaOrUqXrggQdUVVWlkpISDRs2TI8//rj69eunLVu2qHPnznrppZeUmJioL7/8UufPn9cjjzyi+++/X6dPn9ahQ4d0++2369FHH1WfPn2Ul5enrl276sUXX1RiYqLWrVunixcv6oknntB9992nsrKyS7aLTz/9VJL09NNP65577mmVdnH77bdr7dq1Ht0uOnbsqMDAQAUEBGjcuHFe0y569+6t5557zmG7OHjwoI4fP6677rpLv/nNb3TVVVdp+/btbaJdbN++XWfOnNH48eP17//+743ahcVi0YYNG0z5fZGTk6Oamhr99re/1YMPPtioXURHR2vz5s0KDg7Wyy+/fEXbxerVqyVJv//97x22i7CwsFZpF+3bt1fXrl118eJFjRs3rtl2MXfuXIftomPHji5tF2+88YYSExNd0i5qa2u9ol00dx1p7d8Xl2oX1113XZttFzfffHOrtosOHTqoR48eqqqq0t13333JdjF9+nSlpqaqqqpKe/bsaeltK+CVrr/+esXGxurQoUPW+00ArtGnTx8NHTpUp06dsj67AHCNbt26adSoUTp//rz+/ve/m10O4FH8/f01btw4SdI//vEP1dTUmFwR4DxmtsJj/OUvf9GECRPUo0cPBQUFSZJCQkIUFRWl0tJSSZKvr6+ioqLsjrv66qvVo0cPderUSZLUpUsXRUVF6eDBg5IkPz8/RUVFqa6uznpM7969dfXVVzc6pqioSJLUsWNHRUVFqaqqynpMnz591KVLF3Xs2FHS9zdrUVFR2rVrlyQpICBAUVFROnXqlN0xQUFB8vPzkySFhoYqKipKhYWFkqTAwEBFRUVZ65Ckvn37ys/PT/7+/nbHGOFyp06dFBUVZf1MSerXr5/170eSwsLCFBUVpZCQEElSUFCQ3d9bu3btrH/u0OH7XyM9evRQVFSUrrrqKklScHCwoqKirBdJHx8f6zHt27e3O6Zz586SpM6dOysqKkqVlZVNHhMeHq6oqCjrv/FVV12lqKgonThxwlqPcUy7du0kfR+o2x7TknbRu3dv9e7d26l2ERgYaHfMvn37JLm+XRj/xsYxrm4XUVFRateunVPtoqyszO7vwGgXxjGt1S6Cg4Mlub5dtGvXTvX19erVq5ciIiKabBfGMY7aRUBAgCSpa9eudu3C39/f9HZh/Lt37969xe3CeM0Vvy+MY2praxsd4+PjY/dv3FS7aN++/SXbhfFv3Bq/L5prF839vrhUu6iurrYeExERoa5du1rfY/z7NNcuIiMjHbaLr7/+2u6YH9su+vbta9cujGMatov6+vpG/8YN20XDYxy1i4b/xq5oFydPnmx0jCvaRcPrldEujH9jV7WLy/l9cal2Yfy+MGo3jvH393dJuzDOfeOYy2kXxv1Fc+3iUteR5trFjh077P6uL9UuAgICtGbNGuvfHQAAAAAA8D7MbIXHKC4u1qFDh7R161bt3LlT1dXVqqio0M6dO5Wfn6+ysjKdP39excXF2rhxo2699VZJ0ocffqivvvpKu3fvVnV1tc6cOaMdO3Zo27Zt1mMOHDignJwcawdpaWmpNm/erD179ujs2bOqqKjQ9u3bVVhYqPLyctXW1mr//v3Kzc3VoUOHJEnfffedNm3apD179qimpkanT5/WN998o8LCQp08eVI1NTXat2+fcnNzdfjwYesxubm5+vbbb1VTU6NTp07p66+/1tdff61Tp07p3LlzKioq0qZNm3TkyBFJ0pEjR5Sbm6uioiLV1tbq1KlTKiws1DfffGM95ttvv9XmzZt19OhR6zEbN27Uvn37VFdXpxMnTmjbtm365ptvdObMGVVXV2vv3r3asmWLvvvuO0nS4cOHrcecP39e5eXlKigo0Pbt21VRUWGd4bF161aVlpbq4sWLOnTokDZu3Kj9+/frwoULOn78uAoKCrRz505VVFSourpau3fvVl5eno4dO6aLFy/q4MGD2rhxow4cOKCLFy+qrKxMeXl52rVrlyorK1VZWaldu3YpPz9fx48f14ULF1RSUqKNGzequLhY9fX1On78eIvbRUlJiSTp2LFj2rJlS6u0i02bNlmP8dR2MXDgQAUFBWnFihVau3attV1UV1dfsl2UlZUpPz/fqXaxc+dOu3ZRUFCgY8eO/eh2UVxc3Grtoq6uzi3bRVFRkV272L59u06fPu3U7wtPbRcFBQXWc9/ZdpGbm2t3zKZNm9SvXz+FhoZqw4YN+uSTT5xqF4WFhS1uFydPnrzsdnHy5ElT2kVVVZXT7SI/P996jNEuSkpKXNYuKioqLtkuvvvuO23ZssWpdrF3716dO3fuR/2+uNLt4uzZs9q7d6+2bt1qPcYV7aK8vNzpdtG1a1f16dNH33zzjTIzM1vULr744gvr3xOApjGzFWg9zGwFWg8zW4HWw8xWeJJ2ERER9WYXAZghMzNTkjR9+nRrIArANd577z1dffXVmjt3rrZu3Wp2OYBHmTNnjmJiYvT+++9r1apVZpcDeJSpU6dq1KhRWrZsmf785z+bXQ7gUe655x5NmDBBOTk5euWVV8wuB/Aow4cP15NPPqkDBw7o8ccfN7scwKNce+21euWVV3T27Fk9+OCDZpcDeJTOnTtr8eLFkqSHHnpIZ86cMbkiwHk+ZhcAAAAAAAAAAAAAAO6IsBUAAAAAAAAAAAAAnEDYCgAAAAAAAAAAAABOIGwFAAAAAAAAAAAAACcQtgIAAAAAAAAAAACAEwhbAQAAAAAAAAAAAMAJhK0AAAAAAAAAAAAA4ATCVgAAAAAAAAAAAABwAmErAAAAAAAAAAAAADiBsBUAAAAAAAAAAAAAnEDYCgAAAAAAAAAAAABOIGwFAAAAAAAAAAAAACcQtgIAAAAAAAAAAACAEwhbAQAAAAAAAAAAAMAJhK0AAAAAAAAAAAAA4ATCVgAAAAAAAAAAAABwAmErAAAAAAAAAAAAADiBsBUAAAAAAAAAAAAAnNAuIiKi3uwi4LyBAwfq1ltvVUhIiNmluJ3BgwdLkrZv366zZ8+aXI17qa6uVl5ennJycswupVX169dPt912m0JDQ80uxe3ceOONateunYqKinTy5Emzy3ErtbW1Kiws1Pr1680upVWFhYVp5MiR6tmzp9mluJ2BAweqY8eOOnz4sI4ePWp2OW7l/Pnz2r17tz755BOzS2lVnTp10p133qm+ffuqXbt2ZpfjVq655hpdddVVKi8v1/79+80ux61cvHhR+/fv18qVK1VbW2t2Oa0qKSlJP/nJT9S+fXuzS3ErvXv3Vo8ePVRZWaldu3aZXY5bqa+v1+HDh7V69WqdOHHC7HJa1ciRI3XDDTfI19fX7FLcSmhoqPr27asLFy4oPz/f7HLcTmlpqdavX6+DBw+aXUqrGjZsmCwWizp27Gh2KW4lODhY/fv3lyRt2bLF5Grcz6lTp7RhwwaPv/bHx8fr5ptvVlBQkNmluJUOHTpo0KBBkqRt27aprq7O5IrcS2VlpTZt2qS8vDyzS4EIW93auHHj9G//9m9asXKlxz9woW0J6tRJCQkJ2rp1q/70pz+ZXU6r+NnPfqZHH31Uqz75REeOHDG7HHiRjv7+GjZsmI4ePapXX33V7HJaRVxcnGbOnKns7GztI8zAFdS+fXvdNHiwfHx89Nxzz3nkg1yfPn2U/uyz2rt3r3bu2CFu9HGl+LRrp4ExMerVq5demDNHpaWlZpfkckFBQZo9e7Yqq6qUn5enCxcvml0SvEV9vX5y7bW6MT5eL774osd2WKenpyu4c2flbNyoWg+8RqPt6t27t+5MTNT8+fO1ceNGs8tpFdOmTdOAAQO0/osvVF1dbXY58CJh3bvrrrvu0sKFC7Vy5Uqzy2kVqampGjFypFavXq3Tp0+bXQ68SEhIiBJ//nOtXr1aS5YsMbscr0fY6qYiIyO1YMEC/f7pp1VUVGR2OfBCnTt31isvv6xFixZ53MNIYGCgFi5cqDfffFNbtm41uxx4qRfmzFFOTo6WL19udiku9/bbb2vlypVa/dlnZpcCL/XYY4/p1MmTysjIMLsUl5s9e7b27N2rjz76yOxS4KUeeughdQ8N1fz5880uxeWmTp0qHx8f/b933zW7FHippKQk/XT4cD311FNml+Jyv/zlL9X/uuv04osvml0KvNTQoUM1KS1NaWlpqq/3rK7SO+64Q3fffbeeeeYZnT13zuxy4IUGDBiguS+8oF//+tc6fvy42eW4VExMjJ5++mn9/umn9d1335ldDrxQeI8eevXVV/Xiiy9q+/btZpfj1diz1U1ZLBZ9+dVXBK0wzZkzZ7Rm7VrdeOONZpficnFxcTpw4ABBK0z12Zo1uunmm80uw+X69eunwMBAglaY6n//9381ZMgQs8twuaCgIA0aNEjLli0zuxR4seXLl+vWW2/1yCV2hwwZ4rEzMuAeVqxYoV69ennkNgw333yzVn/6qdllwIv985//1KnTpxUXF2d2KS43ePBgrVmzhqAVptm5c6c2b94si8VidikuFx8fr88//5ygFaY5+t13WrtunUf20bsbwlY3FRAQoMrKSrPLgJerqKhQYGCg2WW4XEBAgKqqqswuA17uzJkzCgwIMLsMl+P8Qltw+vRpBXjo+VVbW8te9DDVmR+WTvPE/eACAwN1+swZs8uAl6uqrvbI8ysgIEBnKirMLgNerqqqymPvESvoQ4TJPPr84voFk1VVVnrk+eVuCFsBAAAAAAAAAAAAwAmErQAAAAAAAAAAAADgBMJWAAAAAAAAAAAAAHACYSsAAAAAAAAAAAAAOIGwFQAAAAAAAAAAAACcQNgKAAAAAAAAAAAAAE4gbAUAAAAAAAAAAAAAJxC2AgAAAAAAAAAAAIATCFsBAAAAAAAAAAAAwAmErQAAAAAAAAAAAADgBMJWAAAAAAAAAAAAAHACYSsAAAAAAAAAAAAAOIGwFQAAAAAAAAAAAACcQNgKAAAAAAAAAAAAAE4gbAUAAAAAAAAAAAAAJxC2AgAAAAAAAAAAAIATCFsBAAAAAAAAAAAAwAmErQAAAAAAAAAAAADgBMJWAAAAAAAAAAAAAHACYSsAAAAAAAAAAAAAOIGwFQAAAAAAAAAAAACcQNgKAAAAAAAAAAAAAE4gbAUAAAAAAAAAAAAAJxC2AgAAAAAAAAAAAIATCFuBBiIjI/Xeu+8qJTnZ7FIAt5Wenq709HSzywAAAEAbkZ6eroyFCxUZGWl2KQAAAADgUh3MLgBwlZTkZE2cOFG+vr6XfG91dbVeevll5efnN/pZcXGxNm/erPHjx6vk4EGH7wG8xVsLFuh4WZnmzp17WcetXLlSM2fM0KS0NC3MyHD4npTkZI0ePVovvfyyiouL7X5msVj05BNP6OOPP1bWsmVO1w+0Fenp6Rpyyy3WP+fk5kqS3Wu2MjMz7c4di8WimTNm6NNPP23ynLI1KS1N48aNs3utqKhIixYv1swZMxQYGGh9vblrIuAO3lqwQIWFhVqzdq1mzpihTz75RJKs15jU1FRJcngtm5SWptjYWD362GONztOGioqK9Ohjjzn8WWRkpPW7uW7BXaQkJ+u+++7T62+80eQ1ID09XUePHNHCjAyH15aGjh07pufnzGl0byf96/5w5IgRzV7LJqWladiwYXafYwzimzt3rsN7yOaeBY8dO6bPPvtMY8eO1etvvKF4i8V63gMAPFdkZKRmz5ql7Oxs63WnqWuZ7fXL0XENGfeNtse9tWCBoqOj7d6XmZkpSQ6fzbgOwVsY/RmFX399yf7Fpvo+LBaLpk+bprffeYe+C7RZhK3wKKWlpXYP3Y4e1I1OBUNzD+YvzJlj92duhuBt1q1bp/HjxyslObnJzmPjQSQsLKzRz8aNG2f3UGEb6mQtW6aY2FilpqZq7ty5djdODT+fDmx4AuMa8taCBY1eMxjtvayszPqa8bARGBjY6Jwy1NXVadGiRXbniO2Df3p6urqHhkqSamtrtWTJEmUtW9bomgi4ozfefFMzZ8xQdXW1JOnaa69VdHS09Z4wpHNnbdiwoUWflZOb22wo2xQG68FTGQFpeM+emjt3rrXTyxjk4KgTOiU5WQvefLPJQbCOrmWOrmPG99h2XK9Yvtz6///wwz2jMUApa9kyu7psBw2yahHcWcNwyLh/dNSX0fDe8q0FCxQcHNwoRJLU5MAIwFOkpqYqLCxM48aNU1JSkhYtWqSFGRl2A/SMZ6LRo0c3+TmOzrVjx47p/0yb1ugcMu4lbc814/2Ons0Ab5Cfn6+XXn75kpMyJCneYlFlZaXWrF1rN/Ahj+cruAHCVkBSVVVVsyO6JXEzBI/naBSmYcqUKZoyZYrdaw07pBvOxGvIUaizcuVKTZ82TRaL5UdUDniOrl27KigoyPpn48G+qqpKkhrNQDWC2KNHjzbqoA4LC7N2REvfd75Jkp+fn905bQRUgDuyHYwwfvx4SVLv3r0lSbNnzdKHH36oyMhIDRgwwO46lp2dLYvFYp3lnbl0qUpLS9W7d2+7MMeWcQ7ZfqcjDQfrNRUiAe4gPz9fS5Ys0X333afku+7ShAkTrG0/OjraYQCUtWyZy9q7ERpdamYr4KlSkpOVlJRkfdaalJam8J497d5j+xw2KS1NGQsXNhmkpqamKigoiPMHHm9SWpr6RUXp/0ybptTUVHUPDbVem7p27So/Pz+VHDwoSQoNDZWfn1+zn9eSfkPp+5WLHN1LNvVsBniS5iZjGBwNurMdjBAbG6t9+/eruLhYKcnJqq2t1Zq1a9W1a9fWLh/40Qhb4VGuvvpqu5sXQ8PX6FgGHDMe1NPT0xUbE9Pk0qI/dj/WhqOzX5gzR1988YWCgoLsOqmNjvG6urof9X1AWxAdHW198D5uM3O14QNJUVGRspYtk8Vi0X333WcNaVKSkzXr2We1NS9Pc+fOtQ6QaGqgQ3MzW/fs3atz587p68JCZrbCreXn5+uX999vPY+6dOliF2y0jpxmAAAYk0lEQVSmp6fr6NGj1sCm4Wy8hssIHzp8uEUzW21niBs/b7iaCtBWXO4AAanxaiRGW1+2fLnDsLPhwNSWdLYZjOvVoLg4u5lDf3jnHe3cuVORkZHW2hvObM3MzNSatWvtvss2BDauvQXbtl2yDqAtiomNVV1dnXVGz6W2k1izdq2GDRtmXT3IVkpysmJjYrRkyRJWYIBHi4yM1LBhwxoFnJlLl2rRokVKSEjQvv37NXbsWOs10FjuN2PhQuv1xJgR+89//rPF393czNaKigqtW7dOMbGxTOaARyouLlbapEmSmt+uoqkV7CalpalPnz5at26dJCkhIUG9e/e2O49t71svNekDuNIIW+FRnFlGGMD3jKWoMpcutXZyOep8c8Vy2gszMuw6uocNG6b/+fhjvfraaz/qc4G2zNEywpL9A4mt/Px8Tfhhr0lJ1oeQiRMnasXy5aqurtazs2Y57CyzPcekf80EevjXv9b//WGwhPHwb/sdgDsyZoCXlpbq5MmTmjJlihISErRo8WL1i4pSeXm5pO8f6v39/e2W6W6O7X2ko4f4a6+91u6aKTUe4Cc1vTQxcKUYgxIampSWpsTExCYH101KS7PrhDbOg9DQUNXU1DQ7sKCpa1tziouLrUsBG8uedu3aVdOnTXNYo3E9Nb7LYrHoySee0Mcff2z9HNtlhPtGRl5WPUBbcPTIEQ255RbFWywtCkiLi4u1b/9+9YuKUqRNm+/atatSUlJU+PXXrLQAj1dcXKy333lHTz7xhFauXKnbb79dn3zyiRISEjRlyhQVFRU1eW+WNmmS3eDwkpIS7dmzR0OHDnXYPyL96znPtp/EuDYZA9XTJk1SSnKyxo8fbzdgD/BUBdu2KSUlxeH1a1BcnPU9BmOQhCElOVnh4eF6//33rYPR2bMVbR1hKyCpU6dOTd402WKZD3iy9PR0DbnlFlVXV+vkyZOS7PfxeWvBAoWHh2vR4sUOj29qL0lbxqxy2xFu4T17qqKiQk88/niTyxhLLMMIz2Q729VWZmamwnv21JBbbrF7/dixY3rs8cdVXFzscKZSdXW1Pv7b33Tfvfc2OYPJNgwKCwuzBrdNdbYDbZnRabVo0SIVbNummTNm6P3331dCQoJemDNHBdu2KTgoSBaLRX0iIhQUFGRdMs4QHR2t//noIxUXF2vAgAGNzkm7GRGZmdbZRXv27NGrr71mndH3YwciAVdaeM+eCgwMbDLEMQbuGKGmca9ocHT9WrF8ucPZps2xXYnBYrEoPDxcgYGB1qXAG658YquwsND6/8eOHavy8nKH94q2s3Pj2b4CbmRhRoZiY2Pt9px05nnonnvuUZcuXfR1VlYrVAm0TX5+ftZtJqZMmaK6ujq9//77iomN1VsLFmjdunUOl6W/7rrrVF1drU8//VThPXtq9OjRdssINxzcIzVevash22umsaWLKwayA21VcXGxsrOz7VYHMiQkJGjz5s12511qaqpqa2tVWloq6fuVHRggBHdD2AqP4uwywg1nxDrCnq3wdI6WmVrw5pvWGTuZmZlNPgjU1tZaR5s1xXZWecG2bRo9erT6RERIknXWgYERa/AWx44dk5+fn/VB3VhOp6yszOFMuklpaZo9a5aenzOnyZlKkvTxxx9b/78RylZWViovP193Jiay3A48hhGgWCwWvTh3rvVcsr0evbVggeItFoX37Kny8nLl5+dbZ8P6+vpaO7rS09PtZqE2tTSw7T7jKcnJuq5/f73+xhvWY4xliYG2LDIyUv2iolRUVOSwE8yRy52hfbkzW6XvA9Pa2lrrNSs1NVWVlZXNzmyV/rU33/PNDKA1lt+Xvp9xDriLRx97zLokqbF6w+VcZ4xBD9t37FBCQgId1/AatbW1yszMtM5sHT58uAIDA9UvKkphYWHWa4LRZ5iZmamysjL5+fmpsrJS0r9WCLrUCnkNVxYywtec3Fx1Dw1VeHg4g1vhdYyl7SelpdmtbhccHKw1a9favdff318fffSR7v+hj4OVgeCOCFvhMUJDQ1VSUmL30NGSZYRDQ0Pl5+d3yc/nlzw8WcOZCpL9DDrp+w4q29GYxkzTkoMHFRQUdMnvaNj5XVNTY92rpLCw0GENtrMYGPUJd+doz9aKigodLytTTGysspYt08gRI+Tn52ddTqepEdINBxHZzvxueEzDWavvvPNOo/OZma1wV7ahqfSvmQLSv5Y9LSwsVGJionx9fbVixQpJ/7om2e7F2j00VBWVlU0uDWwbxNbW1qrk4EGNHTtWV111VaNZd7bnF8sIoy1K/WEJ+UWLF2v6tGl2nWDNaW7mTsNriaN7O0eMc8RisahfVJS2bdumAQMGaPny5crOztbMGTMuObO1YSe3JOvS/cZ/G/eRcGfGkqST0tKUlJSklOTkJt/bPTRUFRUV1ue4uro6ZWVlqeTgQc2cMaPF5zvgiW4YOFBBQUF6dtYs9YmIaDSz9a0FC7T3228brYJQWVmpEydONPm5tgN6pO/7L5Luusv6Z0erEtHHAU9XXFysrKwsjR8/XmVlZQoNDbVuYdFwwtOzzz5rt/x9w3PKYHtPaLs6CtAWELbCY4T37GntvL7c4/bt388vZng1oxPYttM6LCzM4UzxhjczKcnJqqystNtroSWOl5Wpd69ekqSysjKF9+ypoqIia6ffhx9+qNTUVGVnZyu8Z09mlsPtGZ3JDfdsXblypZ584glNSkvTHXfcoY8//th6ftl2HhszGrKzs+06yIyZ4MbSqMbPjM7wwMBAvTBnjvX8crT0MEEr3FXWsmUKDQ21G1xnDKwzlvs1RlRXVFQ02bls7Od66NAhu2XiDMZ+W5LUJyLCOlCvYYjKzFa4g5TkZMXGxGjJkiXKz89XVlaW9ZxpybXAUceWcS1q6FKDDRqeWzt37rTrzLZdxeFSK580Fe5GR0c3CohZ4QHuqqysTHV1dU3+3FiK+9NPP7W+dvLkSRVs26bi4mJ9+umnGjZsmNasXUsfCDyeo2WES0tLrc9HBqPf4+DBgyo/cULZ2dl2YWtMbOwl9yo3BvgY4ZAx0DYzM1OSGl2HCFrhLYxJFxMnTlRdXV2L+x4anh+sgAd3QNgKj2HMjrscxvJZ2dnZrVQV4H4cdTIbUpKTNXr0aLvXWvLg4cjRI0cUGxNjnR0U08Il7AB31D00tMkBQfn5+fr888+ty0w1tbSbMQup4XI7TbHtDLddCr+2tlZLlixR1rJlLVoSC3AH2dnZ1o4yY6a3cR1LTU1VWFiYunTpopTkZIfn2KC4OAUFBTU7Y8EQGhqq8vJyjR07tsnZdo5WgmDZRrQFxszUzMxMa5vMWrZMMbGxmjljRrMdYK/On6+a2tpWq8123ztJ6tq1q8N9Xxued0Zw6ijUfWvBAhUWFhKswm2lJCdr+PDheur3v5f0/T53xkDXQXFxjd4/8aGHVFlZ2eT9ojEAKTU1lVUX4NH6RESotrZW7777ru6//37rMsIbNmywXm+M/o2Gs+xsZ9ddbr+hMcjIGChraOrZDPB0FotF48ePV11dnXx9fTXr2Wd5NoLHImyFR0hJTla3bt2sMxhaauSIEZJa3nENeINOnTo12Xksff+QYLBYLLquf3+7/SFbamFGhsrKyjRx4kTNevZZlZaWqqamxqmagbbMmGHQ1ICglORkJSUlqaioSENuuUXp6el2nV/GjPOSkhKH+98Zo64bhkQNZ6cXFRVJ+n6Et+1Sqw33MQfczcKMDOvsuFOnTkmSxo8frzNnzig1NdW6VFy8xaIpU6YoNDS0UfCSkJCgXbt3q6ysrMnrYE5uriIjIzVs2LBGM8wNzGxFW2V0+hrnQ8NAde7cuZqUlqYX5sxxOBvVGBB09MgRDYqLc7j6iaPryZBbbrEbfOBIU/unnjhxwnrdM5ZfLC4uVrdu3ZjVAK8RGhqqAQMGWM8j28DGCFvHjRtnnTWXk5vb7DWouLhY2dnZ1qWI6eyGp4qJjVV5ebk+X79en69fL0kaPnz4ZX/O5fYbNnXda+rZDPBUxoojDVfSMvo3pkyZwnYr8DiErfAIMbGx2rV7d5MP3A1HRRcVFSk/P18TH3pI2dnZLJ8D2Licma3xFovKy8sv+yHddr8vo8MgNTVV3UNDlZ+fb+1Y+3z9eutSPE11xAFtXZ+ICJ04cUIBgYHWB+/CwkKF9+yp6OhohYeHa84LL1jPubcWLFDm0qVas2aNbr/9dkmy+7nRYW470yczM7PRtYyZrfAGtoMRHO2LdfToUes1JT8/X3n5+Zo5Y4bCwsJksVgUGBionTt3qlu3blq0eLH6REQ0u4wwA/XgjozzZGteXrMdWgszMrRm7VrNnjVLmUuXatGiRSo5eFDdunXT+++/b93nuLWWEW5o6K23asGbb8rX19euo67hvndr165VTExMoxmwBkfLCEss4Qj34Gg/YoOx/3hzHLXx5j4T8ASRkZHqHhqqRYsXS/pX/0N1dbX++l//1eLPCQgM1MAbblBWVlaL+w2Z2QpvZttXkZOba/d8ZrC9dqWnp2vF8uXW8wNwd+0iIiLqzS4Cl++BBx5QUHCwFi5caHYp8GI///nPFRsTo/nz55tdikslJCRo6NChmvfSS2aXAi82aNAgPfjAA/rd735ndikudcMNN+jhhx/WY48/bnYp8GLh4eF6+aWXrEsze4ru3bvrnXfe0QMPPmh2KfBiHdq310cffaQJEyaoqqrK7HJc6m9/+5t+/fDD1hnUgBn++Mc/6qV587Rv3z6zS3GpP/zhD3rnD3/Q7t27zS4FXmzOnDlauWKFNm7caHYpLjVr1ix9+dVX+vLLL80uBV5s+rRpOnDggLKysswuxaV+85vf6MSJE/rb3/9udinwYr+87z6FhIToj3/8o9mleDUfswsAAAAAAAAAAAAAAHdE2AoAAAAAAAAAAAAATiBsBQAAAAAAAAAAAAAnELYCAAAAAAAAAAAAgBMIWwEAAAAAAAAAAADACYStAAAAAAAAAAAAAOAEwlYAAAAAAAAAAAAAcAJhKwAAAAAAAAAAAAA4gbAVAAAAAAAAAAAAAJxA2AoAAAAAAAAAAAAATiBsBQAAAAAAAAAAAAAnELYCAAAAAAAAAAAAgBMIWwEAAAAAAAAAAADACYStAAAAAAAAAAAAAOAEwlYAAAAAAAAAAAAAcAJhKwAAAAAAAAAAAAA4gbAVAAAAAAAAAAAAAJxA2AoAAAAAAAAAAAAATiBsBQAAAAAAAAAAAAAnELYCAAAAAAAAAAAAgBMIWwEAAAAAAAAAAADACYStAAAAAAAAAAAAAOAEwlYAAAAAAAAAAAAAcAJhKwAAAAAAAAAAAAA4gbAVAAAAAAAAAAAAAJxA2Oqmzp49q6CgILPLgJcLDg5WdXW12WW43Llz59SpUyezy4CXCw4OVvXZs2aX4XKcX2gLQkJCdNZDzy8/Pz917NjR7FLgxTqHhEiSampqTK7E9aqrqxXSubPZZcDLdQoM1Llz58wuw+XOnj2rzsHBZpcBL9epUyePvUcMpg8RJvPU84s+erQFnYKCPPL8cjeErW4qPz9ft/30p4qOjja7FHipzsHBGpGQoK1bt5pdisvl5+erb9++GnzjjWaXAi/281GjtHnTJrPLcLmioiKdPXtWo0aONLsUeLHRd96p3Nxcs8twuYqKChUUFCg5OdnsUuDFkpKSlJOTo/Pnz5tdisvl5ORozNixZpcBL5aUlKTDhw/ryJEjZpficps2bVJiYqLZZcCLDRs6VF2uukrbtm0zuxSX27x5s0aMGMGAPJjm+gEDdNNNN6mgoMDsUlwuLy9PCQkJ6tGjh9mlwEuF9+ihhDvu8Mg+enfTLiIiot7sIuCccePG6f7779eqVatUVl5udjnwIkGdOmnEiBHaunWr/vSnP5ldTqu444479Mgjj2jlqlUe2ZmBtqujv7+GDRum0tJSzZ8/3+xyWsWgQYM0c+ZMffXVV9q3f7/Z5cCLdOjQQTcNHqz27dtr9uzZqqurM7skl4uMjFR6err27N2rHTt2qL6eW31cGT7t2mlgTIx69+qlF154QaWlpWaX5HLBwcGaPXu2zlRUKD8vTxcuXjS7JHiRn/zkJxp8442aN2+edu7caXY5rSI9PV3BwcHamJOj2tpas8uBF4no3Vt33nmnXn31Vf3zn/80u5xWMX36dPXv31/rv/jCI1coQ9sVFhamu5KSlJGRoZUrV5pdTqtITU3ViBEj9Onq1Tp9+rTZ5cCLhISEKDExUWs++0x/+ctfzC7H6xG2urmYmBjdeuut6sxyVriCzp49q7y8PG3cuNHsUlpVVFSUfvazn6lbt25mlwIvUldXp8LCQn3++edml9Kqrr76ao0cOVLh4eFmlwIvcuHCBe3evVurVq0yu5RW1alTJ40ePVp9+/Y1uxR4kfr6eu3fv18rV670yCWEbSUlJenaa6+Vjw8LReHKOXTokFavXq0TJ06YXUqrGjVqlK6//nr5+vqaXQq8yLFjx/T555/r4MGDZpfSqoYPHy6LxSJ/f3+zS4EXOXXqlDZs2KBdu3aZXUqruvHGG3XzzTezbRKuqKqqKuXm5iovL8/sUiDCVgAAAAAAAAAAAABwCkNxAQAAAAAAAAAAAMAJhK0AAAAAAAAAAAAA4ATCVgAAAAAAAAAAAABwAmErAAAAAAAAAAAAADiBsBUAAAAAAAAAAAAAnEDYCgAAAAAAAAAAAABOIGwFAAAAAAAAAAAAACcQtgIAAAAAAAAAAACAEwhbAQAAAAAAAAAAAMAJhK0AAAAAAAAAAAAA4ATCVgAAAAAAAAAAAABwAmErAAAAAAAAAAAAADiBsBUAAAAAAAAAAAAAnEDYCgAAAAAAAAAAAABOIGwFAAAAAAAAAAAAACcQtgIAAAAAAAAAAACAEwhbAQAAAAAAAAAAAMAJhK0AAAAAAAAAAAAA4ATCVgAAAAAAAAAAAABwAmErAAAAAAAAAAAAADiBsBUAAAAAAAAAAAAAnEDYCgAAAAAAAAAAAABOIGwFAAAAAAAAAAAAACcQtgIAAAAAAAAAAACAEwhbAQAAAAAAAAAAAMAJhK0AAAAAAAAAAAAA4ATCVgAAAAAAAAAAAABwAmErAAAAAAAAAAAAADiBsBUAAAAAAAAAAAAAnEDYCgAAAAAAAAAAAABOIGwFAAAAAAAAAAAAACcQtgIAAAAAAAAAAACAEwhbAQAAAAAAAAAAAMAJhK0t5OvrK19fX7PLAAAAAAAAAAAAANBGELa2gG3ISuAKAAAAAAAAAAAAQCJsbVZTs1kJXAEAAAAAAAAAAAAQtjrQkiWDCVwBAAAAAAAAAAAA70bY+iOwjysAAAAAAAAAAADgvQhbXYDAFQAAAAAAAAAAAPA+hK0uQuAKAAAAAAAAAAAAeBfCVhcicAUAAAAAAAAAAAC8B2HrZairq7vkewhcAQAAAAAAAAAAAO9A2OpAc6EqgSsAAAAAAAAAAAAAibDVKS0NXAldAQAAAAAAAAAAAM9F2HoZbMPTuro6ZrkCAAAAAAAAAAAAXswjw1ZjVumVCDoJXAEAAAAAAAAAAADv5HFhqxnBJoErAAAAAAAAAAAA4H08JmxtaibrlQo5CVwBAAAAAAAAAAAA7+IxYaurNRWeNheYtjRwJXQFAAAAAAAAAAAA3J9XhK1tMdxsizUBAAAAAAAAAAAAaDmvCFul1g83nZmxSuAKAAAAAAAAAAAAuC+vCVtby49dFpjAFQAAAAAAAAAAAHBPXhW2ujrYdNXnEbgCAAAAAAAAAAAA7serwtbLVVdX5/D1ls5mraura/IzHH0mAAAAAAAAAAAAAPfhdWHrlQg1G4aslxO6AgAAAAAAAAAAAHAPHhu2NhdutlbgeqlQtamfEcYCAAAAAAAAAAAA7sdjw9YrraVhacP3EbICAAAAAAAAAAAA7qmD2QW0prq6uiZnsfr6+rok6HTmMwhYAQAAAAAAAAAAAPfn8TNbWzPYJDQFAAAAAAAAAAAAvJcpYauvr6/1f2Zy9P0NXyNQBQAAAAAAAAAAAODIFQ9bzQhYWxKYtoXwFwAAAAAAAAAAAID7uKJha0tmkl5pjkJWs2sCAAAAAAAAAAAA0Pa1iT1bf2y42ZLjL3c54JZ8JqEsAAAAAAAAAAAA4L2uWNjqbsEke7UCAAAAAAAAAAAAaE6bmNkquTaM/bFBKUErAAAAAAAAAAAAgEu5ImFrW5jV2tKlhh0FrYSvAAAAAAAAAAAAABpq9bD1coLW1ghlfX19W/y5l/P9TQWzAAAAAAAAAAAAALxDh9b8cDNntLbmdxOyAgAAAAAAAAAAAGi1ma3NhZ3NhZWXG5I6ev+PCVovVTdBKwAAAAAAAAAAAADJibD1x84YbUlY2dqzUi8Vmjr6fkJWAAAAAAAAAAAAALb+P/kVwfz/CkplAAAAAElFTkSuQmCC;" vertex="1" parent="1">
          <mxGeometry x="-280" y="160" width="1073" height="796.63" as="geometry" />
        </mxCell>
      </root>
    </mxGraphModel>
  </diagram>
</mxfile>
